<svg width="431" height="256" viewBox="0 0 431 256" fill="none" xmlns="http://www.w3.org/2000/svg">
<path fill-rule="evenodd" clip-rule="evenodd" d="M4.03692 118.808C4.46125 117.641 5.22785 115.84 5.71741 114.82C6.22455 113.805 7.16682 112.071 7.80196 110.985C8.4371 109.899 9.65965 108.01 10.5265 106.791C11.3759 105.565 12.7917 103.75 13.6376 102.744C14.5011 101.745 15.942 100.181 16.849 99.279C17.7493 98.3945 19.1491 97.0966 19.9758 96.4053C20.7849 95.7074 22.0466 94.7191 22.7536 94.1835C23.4715 93.6722 24.9114 92.6914 25.9447 92.0387C26.978 91.3859 29.4604 90.098 31.4742 89.195C34.2469 87.9372 35.6909 87.4208 37.5415 86.999C38.8809 86.7043 40.9842 86.3586 42.25 86.2573C43.5157 86.156 45.8682 86.1065 47.5071 86.1876C49.1284 86.262 51.7059 86.5196 53.2184 86.7739C54.7377 87.0106 56.8458 87.3912 57.9183 87.6389C58.9975 87.8689 62.6783 88.7683 66.1107 89.6334C69.5364 90.516 73.3888 91.4404 74.6813 91.6914C75.9671 91.9599 77.9238 92.2628 79.0365 92.405C80.1491 92.5472 81.9461 92.6885 83.0395 92.7227C84.133 92.757 85.6823 92.7034 86.4947 92.6305C87.307 92.5577 88.7519 92.3032 89.719 92.0881C90.6861 91.873 92.1276 91.416 92.9216 91.0746C94.0795 90.57 94.7355 90.1155 96.142 88.8C97.1084 87.9004 98.2305 86.6979 98.6296 86.1255C99.0288 85.5532 99.7468 84.1967 100.221 83.1097C100.861 81.6428 101.196 80.6035 101.483 79.1634C101.714 78.0839 101.945 75.9986 102.019 74.5376C102.087 72.9334 101.999 70.3645 101.774 68.1052C101.576 66.0375 100.967 61.7206 100.395 58.5241C99.8223 55.3276 99.1595 51.3119 98.9046 49.6049C98.6673 47.9045 98.3983 45.5481 98.3299 44.3549C98.279 43.1683 98.2601 40.9475 98.3189 39.4204C98.3777 37.8932 98.5638 35.6096 98.7422 34.3494C98.903 33.0825 99.2279 31.1738 99.4757 30.101C99.7059 29.0216 100.253 27.0568 100.696 25.7363C101.155 24.3213 101.913 22.4368 102.525 21.2008C103.092 20.0284 104.11 18.2025 104.798 17.1364C105.468 16.0636 106.526 14.5549 107.135 13.8009C107.761 13.0536 108.868 11.785 109.621 11.0251C110.373 10.2653 111.611 9.12721 112.376 8.4929C113.141 7.85857 114.711 6.74639 115.879 6.0041C117.047 5.26179 118.989 4.23075 120.178 3.69766C121.373 3.14701 123.373 2.43985 124.614 2.08748C125.854 1.73515 127.538 1.33005 128.37 1.20451C129.203 1.07893 130.806 0.884697 131.946 0.795948C133.086 0.707202 134.968 0.679452 136.156 0.729602C137.326 0.773059 139.316 0.988027 140.58 1.20803C141.869 1.41715 143.768 1.81872 144.833 2.08391C146.04 2.40268 148.045 3.1063 150.232 4.01996C152.425 4.91606 154.554 5.92843 156.024 6.77016C157.303 7.47884 158.915 8.4754 159.614 8.9632C160.313 9.45101 161.438 10.302 162.117 10.8425C162.796 11.383 163.749 12.2089 164.241 12.6582C164.727 13.1251 165.811 14.2422 166.664 15.171C167.499 16.0931 168.678 17.4879 169.281 18.2811C169.895 19.0987 170.878 20.4793 171.476 21.3914C172.081 22.2859 173.186 24.1359 173.938 25.489C174.697 26.8245 176.136 29.6469 177.13 31.7363C178.125 33.8257 180.325 38.7693 182.031 42.7397C183.72 46.7035 185.814 51.3451 186.669 53.0596C187.525 54.7741 188.863 57.1756 189.655 58.4232C190.43 59.6641 191.591 61.3142 192.194 62.1075C192.822 62.8898 193.97 64.1525 194.723 64.9223C195.483 65.6745 196.786 66.7949 197.606 67.389C198.517 68.0583 199.807 68.7913 200.905 69.29C202.009 69.7711 203.235 70.1978 204.019 70.3559C204.745 70.5115 206 70.6478 206.808 70.6938C207.622 70.7222 209.066 70.6284 210.006 70.4836C211.252 70.2743 212.478 69.8559 214.402 68.9788C216.051 68.239 217.764 67.2817 218.82 66.5168C219.783 65.8373 221.646 64.2732 222.971 63.0673C224.295 61.8615 226.227 59.961 227.267 58.8681C228.307 57.7752 230.81 55.0062 232.823 52.7342C234.852 50.4689 237.613 47.3953 238.978 45.9233C240.344 44.4513 242.824 41.955 244.492 40.3768C246.159 38.7985 248.293 36.8947 249.241 36.1491C250.171 35.3968 251.757 34.19 252.776 33.4712C253.794 32.7523 255.605 31.5908 256.801 30.8794C257.991 30.1857 259.95 29.1614 261.163 28.6174C262.37 28.091 264.33 27.3286 265.525 26.9386C266.719 26.5486 268.586 26.0322 269.685 25.7869C270.778 25.5593 272.606 25.2496 273.76 25.1257C274.92 24.9842 276.791 24.9322 277.937 24.9866C279.083 25.0409 280.653 25.1964 281.42 25.3479C282.247 25.5018 283.956 26.0322 285.548 26.6589C287.614 27.4663 288.652 27.9624 289.88 28.7523C290.766 29.3313 292.048 30.2425 292.721 30.8006C293.4 31.3411 294.705 32.5628 295.604 33.5292C296.51 34.4781 297.763 35.9416 298.381 36.8009C299.006 37.6427 299.988 39.184 300.598 40.2216C301.209 41.2592 302.004 42.87 302.41 43.8096C302.799 44.7426 303.347 46.2597 303.642 47.1768C303.925 48.0696 304.442 50.1984 304.787 51.8795C305.15 53.5672 305.57 56.1621 305.737 57.675C305.905 59.1879 306.113 61.6012 306.175 63.0739C306.255 64.5533 306.334 67.8837 306.366 70.492C306.399 73.1003 306.457 76.4834 306.524 77.998C306.573 79.5058 306.766 82.1149 306.951 83.7952C307.118 85.4687 307.492 87.8653 307.771 89.1389C308.051 90.4124 308.527 92.224 308.832 93.1654C309.138 94.1068 309.741 95.5845 310.175 96.4539C310.608 97.3233 311.452 98.7517 312.063 99.6286C312.675 100.506 313.805 101.922 314.59 102.765C315.375 103.607 316.674 104.847 317.48 105.476C318.28 106.123 319.591 107.065 320.402 107.575C321.538 108.29 322.653 108.795 325.376 109.833C328.211 110.893 329.327 111.237 331.145 111.588C332.385 111.819 334.491 112.098 335.831 112.226C337.17 112.354 339.414 112.484 340.853 112.509C342.291 112.534 344.882 112.495 346.616 112.431C348.357 112.35 352.506 112.019 355.859 111.667C359.206 111.332 365.093 110.717 368.955 110.297C372.81 109.894 377.402 109.511 379.136 109.447C380.871 109.384 383.507 109.382 384.974 109.438C386.441 109.494 389.074 109.712 390.82 109.935C392.566 110.157 394.995 110.539 396.229 110.788C397.462 111.036 399.699 111.607 401.179 112.05C402.849 112.525 404.9 113.267 406.483 113.97C407.921 114.579 410.001 115.613 411.147 116.25C412.292 116.888 413.967 117.929 414.886 118.581C415.811 119.215 417.183 120.261 417.937 120.87C418.684 121.497 420.142 122.897 421.172 123.994C422.203 125.091 423.527 126.683 424.146 127.542C424.757 128.419 425.66 129.85 426.153 130.722C426.646 131.594 427.335 133.004 427.681 133.84C428.026 134.676 428.495 135.981 428.713 136.728C428.949 137.482 429.286 138.919 429.499 139.946C429.693 140.966 429.937 142.809 430.038 144.075C430.121 145.334 430.168 147.324 430.093 148.523C430.036 149.729 429.819 151.619 429.621 152.771C429.371 154.326 428.972 155.743 428.02 158.399C427.267 160.588 426.431 162.623 425.873 163.719C425.361 164.691 424.404 166.359 423.716 167.425C423.046 168.498 421.899 170.134 421.157 171.079C420.433 172.03 419.241 173.468 418.504 174.294C417.784 175.126 416.149 176.777 414.915 177.957C413.657 179.148 411.888 180.728 410.94 181.474C410.01 182.226 408.375 183.454 407.319 184.219C406.245 184.978 404.488 186.159 403.381 186.845C402.275 187.53 400.688 188.475 399.872 188.928C399.037 189.375 396.957 190.454 395.249 191.292C393.541 192.131 388.578 194.546 384.234 196.654C379.872 198.756 375.03 201.117 373.443 201.901C371.857 202.685 369.582 203.851 368.371 204.496C367.159 205.141 365.122 206.317 363.874 207.109C362.609 207.895 360.831 209.13 359.939 209.836C359.046 210.542 357.735 211.713 357.013 212.444C356.31 213.182 355.196 214.469 354.564 215.335C353.505 216.742 353.285 217.161 352.381 219.534C351.537 221.748 351.36 222.425 351.245 223.729C351.179 224.59 351.197 226.126 351.284 227.165C351.371 228.205 351.678 229.932 351.958 231.045C352.228 232.133 353.126 234.528 353.924 236.341C354.728 238.137 356.074 240.783 356.918 242.211C357.768 243.622 360.241 247.482 362.41 250.764C364.591 254.07 367.153 258.064 368.108 259.676C369.045 261.281 370.534 263.921 371.377 265.51C372.238 267.106 373.789 270.373 374.83 272.762C375.871 275.151 377.169 278.503 377.728 280.205C378.269 281.901 379.037 284.689 379.418 286.383C379.798 288.078 380.252 290.424 380.428 291.598C380.605 292.772 380.807 294.881 380.889 296.302C380.955 297.715 380.987 299.9 380.934 301.148C380.881 302.396 380.735 304.151 380.631 305.058C380.51 305.957 380.282 307.4 380.108 308.279C379.934 309.159 379.515 310.891 379.176 312.15C378.81 313.48 378.109 315.426 377.507 316.847C376.939 318.18 376.074 319.923 375.581 320.742C375.088 321.56 374.134 323.008 373.451 323.955C372.768 324.902 371.426 326.524 370.49 327.556C369.536 328.581 367.992 330.046 367.049 330.833C366.129 331.61 364.636 332.731 363.741 333.336C362.853 333.923 361.266 334.868 360.225 335.437C359.183 336.006 357.266 336.866 355.972 337.359C354.678 337.852 352.621 338.497 351.407 338.779C350.187 339.079 348.286 339.421 347.185 339.565C346.084 339.709 344.127 339.829 342.853 339.846C341.585 339.847 339.353 339.74 337.925 339.579C336.498 339.418 334.311 339.087 333.078 338.839C331.844 338.59 330.088 338.183 329.187 337.96C328.286 337.738 325.96 337.032 324.04 336.422C321.738 335.705 317.41 334.076 311.446 331.724C305.225 329.253 301.242 327.775 298.859 327.008C296.932 326.415 294.392 325.689 293.239 325.39C292.078 325.109 290.232 324.728 289.133 324.55C288.033 324.373 286.12 324.167 284.873 324.115C283.632 324.044 281.702 324.094 280.615 324.203C279.527 324.311 277.921 324.565 277.08 324.768C276.238 324.97 274.689 325.446 273.686 325.809C272.658 326.182 270.915 327.007 269.794 327.626C268.691 328.252 266.807 329.447 265.648 330.273C264.488 331.099 262.411 332.802 261.031 334.048C259.651 335.293 257.641 337.243 256.545 338.376C255.45 339.508 253.728 341.387 252.703 342.546C251.678 343.705 249.907 345.607 248.757 346.778C247.589 347.943 245.674 349.749 244.458 350.775C243.26 351.808 241.527 353.24 240.617 353.94C239.689 354.633 237.911 355.867 236.646 356.653C235.398 357.445 233.26 358.623 231.929 359.263C230.582 359.897 228.498 360.773 227.289 361.198C226.088 361.606 223.944 362.217 222.556 362.534C221.168 362.85 219.082 363.203 217.922 363.344C216.768 363.468 215.049 363.598 214.096 363.617C213.143 363.636 211.519 363.621 210.492 363.572C209.465 363.523 207.716 363.36 206.61 363.2C205.498 363.058 203.631 362.729 202.458 362.483C200.954 362.152 199.252 361.604 196.722 360.64C194.105 359.642 192.585 358.983 191.214 358.199C190.175 357.602 188.742 356.714 188.036 356.244C187.33 355.774 185.814 354.632 184.681 353.698C183.542 352.781 181.865 351.216 180.972 350.232C180.08 349.248 178.862 347.798 178.277 347.011C177.691 346.225 176.663 344.646 175.985 343.522C175.313 342.381 174.198 340.185 173.496 338.649C172.818 337.103 171.832 334.675 171.337 333.279C170.826 331.877 169.719 328.497 168.858 325.794C167.997 323.091 166.873 319.705 166.361 318.302C165.867 316.907 164.95 314.666 164.352 313.331C163.748 312.014 162.757 310.127 162.126 309.142C161.495 308.158 160.598 306.87 160.106 306.26C159.608 305.667 158.68 304.67 158.028 304.059C157.382 303.431 156.278 302.527 155.578 302.039C154.886 301.534 153.521 300.732 152.543 300.239C151.564 299.745 150.056 299.11 149.15 298.846C148.252 298.564 146.665 298.241 145.612 298.101C144.559 297.961 142.961 297.876 142.075 297.88C141.188 297.885 139.66 297.987 138.667 298.111C137.681 298.219 135.87 298.535 134.639 298.81C133.401 299.103 131.287 299.687 129.919 300.111C128.561 300.56 126.314 301.334 124.954 301.842C123.587 302.367 120.95 303.375 119.069 304.087C117.213 304.788 114.509 305.811 113.087 306.376C111.672 306.923 109.787 307.594 108.894 307.877C108.008 308.144 106.531 308.587 105.617 308.822C104.696 309.075 102.953 309.478 101.759 309.707C100.559 309.954 98.1517 310.305 96.4299 310.494C94.6906 310.676 92.0051 310.861 90.4449 310.89C88.8913 310.902 86.5263 310.826 85.1802 310.715C83.8342 310.605 81.721 310.343 80.4745 310.13C79.228 309.917 77.4101 309.566 76.4498 309.341C75.4894 309.116 73.1195 308.314 71.187 307.577C68.71 306.634 67.1097 305.923 65.7738 305.153C64.734 304.555 63.0476 303.49 62.048 302.787C61.0551 302.067 59.5586 300.873 58.733 300.136C57.9141 299.381 56.6753 298.144 55.971 297.353C55.26 296.579 54.13 295.162 53.4441 294.216C52.7583 293.271 51.8198 291.827 51.349 291.003C50.8848 290.162 50.1706 288.763 49.7616 287.883C49.3351 286.996 48.7421 285.543 48.4587 284.65C48.1576 283.75 47.7496 282.287 47.5322 281.379C47.3149 280.471 47.0491 278.74 46.928 277.526C46.8069 276.313 46.7084 274.565 46.7069 273.618C46.7054 272.672 46.8294 270.868 46.9727 269.594C47.116 268.321 47.4609 266.359 47.7221 265.251C47.9657 264.137 48.4864 262.242 48.8756 261.062C49.2673 259.823 50.059 257.851 50.7377 256.439C51.3788 255.073 52.3947 253.146 52.9897 252.165C53.5846 251.185 54.654 249.54 55.3569 248.54C56.0598 247.54 57.1192 246.132 57.7149 245.413C58.3107 244.694 59.2914 243.599 59.8712 242.975C60.4578 242.333 61.8978 240.929 63.0675 239.866C64.2439 238.785 66.1273 237.168 67.2719 236.276C68.4165 235.384 70.5174 233.83 71.964 232.831C73.3931 231.826 76.7473 229.623 79.408 227.92C82.0862 226.224 84.8597 224.383 85.6086 223.843C86.3398 223.296 87.7104 222.128 88.6216 221.268C89.5327 220.408 90.6841 219.075 91.2096 218.33C91.7175 217.577 92.3577 216.372 92.6456 215.617C92.9603 214.791 93.1989 213.795 93.2333 213.124C93.2718 212.495 93.1674 211.449 92.9818 210.774C92.7962 210.1 92.3571 209.087 92.0167 208.555C91.6654 207.999 90.9704 207.13 90.4518 206.591C89.9332 206.051 88.8006 205.116 87.9281 204.502C86.992 203.844 85.3357 202.911 83.8718 202.212C81.9996 201.318 80.7348 200.836 78.6894 200.237C77.1911 199.787 72.432 198.497 68.1254 197.339C63.8121 196.199 58.3477 194.701 56.0078 194.03C53.668 193.36 50.1662 192.308 48.2463 191.697C46.3331 191.069 43.3659 190.039 41.6794 189.396C39.9929 188.754 37.3386 187.642 35.7734 186.945C34.215 186.23 32.0049 185.167 30.8463 184.564C29.6944 183.944 27.9042 182.94 26.8711 182.325C25.838 181.71 23.9919 180.484 22.7664 179.634C21.5409 178.785 19.6387 177.336 18.5588 176.421C17.4722 175.524 15.7449 173.88 14.7077 172.801C13.6705 171.721 12.2577 170.096 11.5585 169.186C10.8592 168.276 9.62554 166.498 8.83348 165.25C8.04811 163.985 6.75176 161.579 5.96646 159.891C5.18117 158.204 4.1885 155.793 3.76622 154.525C3.34394 153.257 2.82301 151.509 2.60311 150.661C2.36565 149.806 2.02458 148.166 1.79301 147.032C1.57902 145.904 1.29323 143.803 1.14036 142.356C1.00505 140.916 0.867356 138.69 0.849984 137.416C0.850178 136.148 0.914077 134.079 1.00211 132.845C1.09015 131.611 1.33893 129.532 1.55497 128.226C1.77102 126.92 2.16618 125.038 2.42902 124.031C2.69187 123.024 2.99488 121.912 3.08696 121.565C3.17904 121.218 3.59502 119.968 4.03692 118.808ZM16.893 128.838C16.6502 129.792 16.3237 131.599 16.1695 132.848C16.0221 134.08 15.898 135.884 15.9037 136.873C15.8985 137.837 15.987 139.4 16.083 140.362C16.1682 141.3 16.3872 142.732 16.5193 143.547C16.6756 144.351 17.02 145.77 17.2901 146.698C17.5602 147.626 18.2325 149.452 18.7778 150.766C19.3297 152.063 20.2003 153.844 20.6863 154.733C21.1789 155.605 22.0538 157.005 22.6258 157.827C23.1913 158.666 24.2293 160.008 24.9026 160.828C25.5759 161.648 26.7771 162.93 27.5366 163.683C28.2961 164.435 29.724 165.703 30.6901 166.494C31.6562 167.285 33.1795 168.408 34.0721 168.97C34.9579 169.549 36.4252 170.45 37.3445 170.941C38.2572 171.45 40.6714 172.611 42.7042 173.506C44.9411 174.5 48.5466 175.914 51.799 177.092C54.7771 178.147 58.3024 179.349 59.6425 179.739C60.9827 180.129 63.7642 180.907 65.823 181.47C67.8818 182.033 71.8437 183.039 74.6169 183.734C77.3968 184.41 81.2885 185.39 83.2419 185.913C85.2019 186.418 88.6903 187.506 90.9766 188.317C93.6736 189.264 95.8386 190.129 97.085 190.765C98.1449 191.31 99.7552 192.205 100.648 192.766C101.54 193.328 102.982 194.4 103.874 195.122C104.759 195.862 105.922 196.929 106.473 197.542C107.031 198.136 107.801 199.074 108.194 199.626C108.587 200.178 109.324 201.465 109.815 202.498C110.307 203.53 110.888 205.12 111.13 206.017C111.347 206.925 111.606 208.412 111.697 209.332C111.807 210.26 111.848 211.684 111.819 212.498C111.773 213.305 111.634 214.621 111.517 215.402C111.384 216.176 111.044 217.596 110.748 218.53C110.457 219.505 109.859 220.968 109.372 221.929C108.881 222.849 108.124 224.15 107.656 224.797C107.188 225.444 106.189 226.693 105.432 227.572C104.675 228.451 103.405 229.778 102.6 230.518C101.812 231.264 100.349 232.518 99.3456 233.303C98.36 234.094 96.5068 235.421 95.2568 236.273C93.9892 237.118 90.8826 239.094 88.3283 240.676C85.7739 242.259 82.6188 244.256 81.3136 245.148C79.9908 246.032 78.0689 247.433 77.0348 248.246C76.0006 249.06 74.3029 250.506 73.2637 251.438C72.2245 252.37 70.68 253.995 69.8139 255.054C68.9655 256.119 67.7973 257.707 67.2358 258.6C66.6743 259.492 65.7656 261.138 65.2182 262.258C64.6709 263.378 64.0064 265.016 63.7244 265.915C63.4599 266.82 63.0823 268.286 62.8881 269.219C62.6939 270.151 62.5112 271.792 62.4592 272.879C62.4247 273.972 62.4345 275.425 62.5122 276.119C62.5899 276.812 62.8315 278.132 63.0664 279.047C63.3014 279.961 63.85 281.478 64.2807 282.407C64.7005 283.312 65.4373 284.599 65.9091 285.261C66.3875 285.906 67.2072 286.923 67.7584 287.536C68.3163 288.131 69.4222 289.135 70.2218 289.782C71.0215 290.429 72.339 291.354 73.1504 291.864C74.2053 292.528 75.4015 293.084 77.5096 293.887C79.4596 294.63 80.993 295.094 82.191 295.329C83.1714 295.501 84.75 295.74 85.7221 295.829C86.6875 295.935 88.3264 296.016 89.3738 296.013C90.4212 296.009 92.1204 295.932 93.1594 295.845C94.1985 295.758 95.9997 295.519 97.1869 295.307C98.374 295.095 100.562 294.581 102.049 294.161C103.537 293.742 106.003 292.971 107.538 292.429C109.065 291.904 112.959 290.449 116.2 289.229C119.43 287.985 123.293 286.559 124.748 286.067C126.21 285.557 128.231 284.898 129.225 284.613C130.219 284.328 132.072 283.846 133.352 283.549C134.625 283.27 136.515 282.903 137.581 282.746C138.64 282.606 140.38 282.423 141.454 282.35C142.521 282.293 144.295 282.285 145.382 282.337C146.468 282.389 148.346 282.581 149.54 282.774C151.431 283.092 152.224 283.334 155.492 284.579C158.208 285.634 159.79 286.338 161.168 287.104C162.208 287.701 163.82 288.698 164.745 289.332C165.67 289.966 167.064 291.061 167.85 291.743C168.637 292.425 169.95 293.73 170.768 294.645C171.593 295.543 172.758 296.973 173.369 297.85C173.987 298.71 174.891 300.14 175.383 301.012C175.869 301.902 176.794 303.804 177.429 305.253C178.053 306.678 178.85 308.652 179.19 309.607C179.548 310.568 180.622 313.875 181.58 316.957C182.538 320.039 183.575 323.231 183.861 324.065C184.165 324.905 184.774 326.525 185.237 327.688C185.681 328.843 186.584 330.857 187.255 332.159C187.925 333.461 188.937 335.296 189.528 336.225C190.119 337.155 191.201 338.593 191.933 339.416C192.666 340.238 193.999 341.491 194.891 342.213C195.776 342.953 197.15 343.939 197.962 344.45C199.08 345.157 200.213 345.669 202.848 346.674C205.676 347.751 206.617 348.029 208.178 348.261C209.218 348.436 211.015 348.578 212.167 348.614C213.32 348.651 214.821 348.619 215.508 348.559C216.202 348.481 217.466 348.279 218.301 348.094C219.129 347.926 220.616 347.507 221.564 347.184C222.512 346.861 224.166 346.163 225.247 345.649C226.311 345.128 227.992 344.199 228.977 343.569C229.962 342.938 231.433 341.928 232.257 341.296C233.081 340.665 234.69 339.346 235.822 338.328C236.954 337.311 238.752 335.601 239.827 334.521C240.903 333.442 243.038 331.217 244.565 329.585C246.092 327.953 248.227 325.728 249.302 324.649C250.378 323.569 252.344 321.682 253.668 320.476C254.993 319.27 256.901 317.643 257.904 316.858C258.907 316.073 260.263 315.1 260.906 314.681C261.548 314.262 262.946 313.446 263.994 312.859C265.06 312.279 266.935 311.424 268.156 310.964C269.385 310.486 271.428 309.876 272.708 309.579C273.988 309.281 276.108 308.942 277.429 308.802C278.75 308.661 280.736 308.572 281.843 308.571C282.943 308.588 284.931 308.702 286.271 308.83C287.61 308.958 289.945 309.324 291.497 309.634C293.031 309.936 295.611 310.557 297.217 310.988C299.595 311.612 302.513 312.664 312.979 316.611C321.032 319.659 326.687 321.713 328.181 322.122C329.486 322.498 331.204 322.952 332.017 323.141C332.824 323.347 334.512 323.668 335.759 323.882C337.005 324.095 338.876 324.305 339.904 324.354C340.931 324.404 342.568 324.383 343.541 324.311C344.514 324.239 346.144 323.975 347.177 323.745C348.193 323.508 349.961 322.934 351.063 322.468C352.166 322.003 353.759 321.201 354.561 320.682C355.38 320.169 356.683 319.176 357.475 318.472C358.266 317.767 359.399 316.589 360.015 315.817C360.649 315.052 361.6 313.664 362.146 312.705C362.948 311.34 363.369 310.394 364.098 308.217C364.791 306.186 365.113 304.92 365.294 303.44C365.454 302.334 365.598 300.638 365.616 299.639C365.652 298.646 365.553 296.636 365.42 295.137C365.287 293.637 364.913 291.241 364.582 289.786C364.268 288.339 363.662 286.075 363.243 284.748C362.805 283.414 361.67 280.587 360.713 278.451C359.763 276.298 358.282 273.32 357.419 271.783C356.549 270.264 354.984 267.615 353.919 265.922C352.861 264.211 349.917 259.688 347.389 255.867C344.862 252.047 342.265 248.039 341.626 246.97C340.993 245.884 339.822 243.626 339.036 241.939C338.275 240.24 337.304 237.878 336.915 236.683C336.525 235.488 336.009 233.621 335.764 232.522C335.537 231.429 335.226 229.499 335.083 228.237C334.958 226.982 334.895 224.825 334.953 223.458C334.993 222.085 335.251 219.93 335.502 218.637C335.896 216.654 336.162 215.849 337.23 213.258C338.113 211.099 338.789 209.747 339.528 208.599C340.107 207.713 341.275 206.126 342.141 205.067C343.007 204.008 344.83 202.127 346.21 200.882C347.59 199.637 349.38 198.105 350.204 197.474C351.028 196.842 352.866 195.61 354.296 194.706C355.727 193.802 357.826 192.57 358.965 191.957C360.104 191.345 362.167 190.259 363.552 189.58C364.92 188.893 369.5 186.694 373.703 184.693C377.905 182.692 382.582 180.449 384.096 179.698C385.609 178.946 388.067 177.669 389.566 176.852C391.064 176.034 393.247 174.793 394.444 174.082C395.622 173.364 397.647 172.062 398.917 171.158C400.205 170.26 402.085 168.863 403.091 168.019C404.114 167.181 405.648 165.793 406.514 164.896C407.379 163.998 408.561 162.637 409.135 161.87C409.727 161.109 410.572 159.841 411.027 159.069C411.5 158.303 412.241 156.674 412.717 155.426C413.306 153.88 413.669 152.609 413.881 151.261C414.069 150.186 414.209 148.448 414.188 147.394C414.185 146.346 414.054 144.787 413.922 143.972C413.773 143.15 413.488 141.734 413.264 140.843C412.988 139.772 412.549 138.76 411.929 137.799C411.445 137.011 410.534 135.758 409.935 135.007C409.329 134.273 408.327 133.207 407.721 132.634C407.121 132.043 405.791 130.993 404.791 130.29C403.63 129.485 402.177 128.65 400.823 128.034C399.627 127.477 397.712 126.748 396.466 126.374C395.256 126.013 393.188 125.527 391.847 125.298C390.53 125.058 388.221 124.782 386.714 124.671C385.208 124.559 382.612 124.456 380.957 124.469C379.291 124.458 376.503 124.543 374.755 124.642C373.014 124.723 367.286 125.237 362.051 125.778C356.815 126.319 350.99 126.877 349.103 127.023C347.217 127.17 344.353 127.346 342.72 127.408C341.087 127.47 338.07 127.468 335.991 127.38C333.919 127.275 331.174 127.034 329.868 126.818C328.562 126.602 326.152 126.066 324.493 125.615C322.287 125.016 320.563 124.42 318.007 123.365C315.627 122.378 313.906 121.561 312.559 120.767C311.48 120.114 309.801 119.031 308.854 118.348C307.907 117.666 306.439 116.503 305.606 115.783C304.774 115.063 303.33 113.628 302.391 112.606C301.453 111.584 300.256 110.183 299.756 109.489C299.256 108.795 298.39 107.479 297.844 106.587C297.299 105.695 296.456 104.106 295.978 103.039C295.492 101.988 294.828 100.246 294.511 99.1793C294.175 98.1057 293.695 96.2523 293.43 95.0448C293.166 93.8373 292.793 91.7027 292.602 90.3019C292.412 88.9012 292.162 86.2302 292.068 84.3633C291.957 82.4897 291.839 78.6815 291.773 75.8992C291.731 73.106 291.634 69.769 291.582 68.4812C291.511 67.1867 291.411 65.3374 291.357 64.3709C291.285 63.3977 291.081 61.6095 290.925 60.3827C290.751 59.1493 290.358 57.0675 290.063 55.7278C289.769 54.3881 289.157 52.4041 288.71 51.3079C288.245 50.2051 287.544 48.7709 287.125 48.1282C286.712 47.468 285.963 46.4782 285.451 45.9209C284.939 45.3636 284.035 44.516 283.448 44.0507C282.808 43.5655 281.676 42.8928 280.73 42.4719C279.632 41.9732 278.611 41.6444 277.589 41.4763C276.762 41.3224 275.315 41.2136 274.369 41.2154C273.422 41.2171 271.771 41.4331 270.678 41.6607C269.447 41.9361 267.683 42.5521 266.002 43.3203C263.861 44.2953 262.695 44.9781 260.203 46.7656C258.492 47.9849 255.935 50.0494 254.517 51.3407C253.117 52.6386 250.781 54.9683 249.365 56.5215C247.948 58.0746 244.946 61.519 242.698 64.1441C240.468 66.7759 237.634 70.0429 236.375 71.3943C235.133 72.7525 233.31 74.6337 232.324 75.586C231.337 76.5383 229.595 78.048 228.468 78.9467C227.341 79.8455 225.536 81.1502 224.448 81.8422C223.359 82.5343 221.64 83.5092 220.632 83.9904C219.624 84.4717 218.018 85.1479 217.07 85.4709C216.122 85.7939 214.545 86.2392 213.571 86.4719C212.604 86.687 210.879 86.9356 209.739 87.0244C208.599 87.1131 206.948 87.1685 206.081 87.1199C205.215 87.0714 203.686 86.9117 202.699 86.757C201.523 86.5704 199.882 86.1262 197.958 85.4736C196.086 84.8411 194.385 84.1324 193.261 83.5434C192.289 83.0321 190.561 81.9712 189.434 81.1796C188.307 80.3881 186.62 79.061 185.734 78.2201C184.84 77.3968 183.54 76.0563 182.843 75.2472C182.145 74.438 180.646 72.4583 179.495 70.8325C178.344 69.2066 176.71 66.6319 175.84 65.1132C174.995 63.5836 173.445 60.4173 172.384 58.081C171.322 55.7448 169.197 50.8698 167.643 47.239C166.107 43.615 164.302 39.5868 163.638 38.2672C162.967 36.9652 161.88 34.9612 161.208 33.8198C160.537 32.6785 159.362 30.9029 158.598 29.8469C157.833 28.791 156.55 27.1953 155.732 26.2799C154.907 25.382 153.647 24.0968 152.902 23.4107C152.151 22.7421 150.874 21.7121 150.047 21.1356C149.228 20.5415 147.602 19.5801 146.437 18.9953C144.811 18.1946 143.827 17.8197 142.228 17.3713C141.074 17.0726 139.305 16.7004 138.297 16.5983C137.297 16.4787 135.742 16.3892 134.861 16.3759C133.975 16.3801 132.403 16.5459 131.348 16.7275C130.31 16.9159 128.704 17.3301 127.774 17.6599C126.868 17.9787 125.357 18.6709 124.423 19.2207C123.489 19.7705 122.171 20.6969 121.496 21.3053C120.798 21.9245 119.86 22.8551 119.408 23.4074C118.956 23.9597 118.266 24.9245 117.871 25.5387C117.476 26.153 116.758 27.5094 116.297 28.5613C115.809 29.6835 115.222 31.3311 114.914 32.562C114.597 33.7093 114.23 35.7829 114.064 37.1686C113.898 38.5543 113.781 40.7634 113.795 42.0973C113.81 43.4311 113.986 46.0335 114.187 47.8811C114.406 49.7354 115.116 54.3126 115.767 58.0421C116.436 61.7783 117.158 66.6417 117.393 68.824C117.628 71.0064 117.805 73.71 117.788 74.8104C117.753 75.904 117.689 77.55 117.621 78.4696C117.552 79.3893 117.368 80.929 117.244 81.888C117.095 82.8578 116.714 84.7046 116.385 85.9882C116.051 87.2895 115.538 89.0057 115.223 89.8317C114.908 90.6576 114.298 91.9948 113.875 92.84C113.435 93.6784 112.76 94.8701 112.365 95.4843C111.97 96.0985 111.199 97.173 110.658 97.8525C110.1 98.5253 109.095 99.6316 108.394 100.31C107.693 100.989 106.525 101.993 105.794 102.54C105.063 103.086 103.667 104.003 102.668 104.568C101.668 105.133 99.9141 105.934 98.7587 106.379C97.5924 106.8 95.664 107.373 94.45 107.655C93.2361 107.937 91.3002 108.266 90.1465 108.39C88.9928 108.514 87.1372 108.632 86.0237 108.651C84.9102 108.669 83.1149 108.629 82.0349 108.56C80.9548 108.49 79.1185 108.294 77.9775 108.121C76.8121 107.958 75.0051 107.632 73.9326 107.385C72.8535 107.154 69.5156 106.305 66.5098 105.482C63.4974 104.676 60.0081 103.749 58.7357 103.446C57.47 103.124 55.2104 102.666 53.6979 102.412C52.1854 102.157 50.1073 101.909 49.08 101.86C48.0527 101.81 45.9729 101.883 44.4913 102.023C42.9921 102.156 40.924 102.515 39.8573 102.833C38.7972 103.134 36.9274 103.87 35.7184 104.456C34.4919 105.035 32.7591 106.045 31.8337 106.679C30.9259 107.319 29.691 108.237 29.0986 108.736C28.5062 109.234 27.3273 110.375 26.4864 111.262C25.6455 112.149 24.4121 113.591 23.7628 114.45C23.131 115.317 22.3662 116.373 22.0733 116.825C21.7871 117.26 21.121 118.374 20.6123 119.287C20.1035 120.2 19.2223 122.038 18.6716 123.378C18.1209 124.717 17.5919 126.106 17.4999 126.453C17.4078 126.8 17.1357 127.884 16.893 128.838Z" fill="#02AF85"/>
</svg>
