<svg width="205" height="174" viewBox="0 0 205 174" fill="none" xmlns="http://www.w3.org/2000/svg">
<path fill-rule="evenodd" clip-rule="evenodd" d="M1.93527 56.807C2.13933 56.2523 2.50745 55.3961 2.74232 54.9107C2.98554 54.4286 3.4372 53.6046 3.7415 53.0885C4.0458 52.5723 4.63119 51.675 5.04608 51.0959C5.45262 50.5136 6.12991 49.6517 6.53446 49.1741C6.94736 48.6998 7.63615 47.9575 8.0696 47.5295C8.49983 47.1098 9.16863 46.4941 9.56345 46.1664C9.94993 45.8354 10.5524 45.367 10.89 45.1131C11.2327 44.8709 11.9201 44.4063 12.4133 44.0972C12.9064 43.7881 14.0907 43.1791 15.0512 42.7525C16.3737 42.1583 17.0622 41.9148 17.9441 41.7171C18.5825 41.5791 19.5846 41.4181 20.1875 41.372C20.7905 41.3259 21.9108 41.3064 22.6911 41.3478C23.463 41.386 24.6899 41.513 25.4097 41.6367C26.1328 41.752 27.136 41.9369 27.6463 42.0566C28.1598 42.168 29.9111 42.6026 31.5441 43.0204C33.1738 43.4465 35.0067 43.8933 35.6218 44.015C36.2336 44.1451 37.1649 44.2926 37.6945 44.3622C38.224 44.4319 39.0795 44.5022 39.6001 44.5204C40.1208 44.5386 40.8586 44.5157 41.2456 44.4824C41.6326 44.4491 42.321 44.3304 42.7819 44.2296C43.2428 44.1288 43.93 43.9137 44.3087 43.7524C44.861 43.5141 45.1741 43.2988 45.8461 42.6748C46.3078 42.2481 46.8442 41.6774 47.0353 41.4055C47.2263 41.1336 47.5705 40.4889 47.7983 39.9721C48.1053 39.2746 48.2669 38.7803 48.4061 38.095C48.5176 37.5814 48.6313 36.5888 48.6689 35.8931C48.704 35.1294 48.6668 33.906 48.5632 32.8297C48.4725 31.8448 48.1902 29.788 47.923 28.2649C47.6558 26.7418 47.347 24.8284 47.2285 24.0151C47.1184 23.205 46.9944 22.0825 46.9638 21.5141C46.9416 20.949 46.9364 19.8914 46.967 19.1643C46.9976 18.4372 47.0901 17.3501 47.1772 16.7503C47.256 16.1473 47.4139 15.239 47.5338 14.7285C47.6452 14.2149 47.9093 13.2802 48.1224 12.6522C48.3432 11.9791 48.7075 11.083 49.0009 10.4955C49.2731 9.93823 49.7608 9.07048 50.0901 8.56399C50.4111 8.05427 50.9174 7.33761 51.2087 6.97962C51.5084 6.62483 52.0378 6.02263 52.3972 5.66208C52.7567 5.30154 53.3484 4.7617 53.7136 4.46094C54.0789 4.16019 54.8286 3.63325 55.3861 3.28177C55.9435 2.9303 56.87 2.44264 57.437 2.19082C58.0073 1.93063 58.9607 1.59731 59.5521 1.43164C60.1435 1.26598 60.9458 1.07594 61.3424 1.01757C61.739 0.959199 62.5026 0.869447 63.0458 0.829121C63.5889 0.788795 64.4849 0.778827 65.0505 0.804723C65.6078 0.827418 66.5551 0.933165 67.1567 1.04008C67.7698 1.14186 68.6734 1.33632 69.1805 1.46443C69.7544 1.61828 70.708 1.95677 71.7478 2.39557C72.7907 2.82603 73.8028 3.31176 74.5013 3.7151C75.1091 4.05474 75.875 4.53202 76.2072 4.76552C76.5394 4.99899 77.0733 5.40615 77.3958 5.6647C77.7183 5.92327 78.1706 6.31815 78.4044 6.53295C78.6351 6.75611 79.149 7.2899 79.5537 7.73363C79.95 8.17415 80.5088 8.84037 80.7947 9.21915C81.0856 9.60948 81.5512 10.2686 81.8345 10.7039C82.1209 11.1309 82.6443 12.0138 83 12.6594C83.3589 13.2966 84.0395 14.6431 84.5095 15.6397C84.9794 16.6364 86.0188 18.9943 86.8244 20.8879C87.6217 22.7783 88.6109 24.9921 89.0154 25.81C89.4199 26.6279 90.053 27.7737 90.4281 28.3692C90.7948 28.9614 91.3452 29.7492 91.631 30.128C91.9284 30.5016 92.4731 31.1048 92.8303 31.4727C93.1907 31.8322 93.8094 32.3679 94.1987 32.6522C94.6317 32.9725 95.2447 33.3238 95.7665 33.5631C96.2915 33.7941 96.8744 33.9993 97.2478 34.0759C97.5929 34.1513 98.1906 34.2184 98.575 34.2416C98.9625 34.2566 99.6503 34.2143 100.098 34.147C100.692 34.0495 101.277 33.8523 102.194 33.4379C102.981 33.0885 103.798 32.6355 104.302 32.2731C104.762 31.9511 105.652 31.2095 106.285 30.6376C106.918 30.0656 107.84 29.1639 108.338 28.6453C108.835 28.1266 110.032 26.8123 110.994 25.7338C111.964 24.6586 113.284 23.1996 113.937 22.501C114.589 21.8024 115.775 20.6179 116.571 19.8692C117.368 19.1205 118.388 18.2176 118.84 17.8641C119.285 17.5075 120.042 16.9356 120.528 16.595C121.014 16.2544 121.878 15.7044 122.449 15.3677C123.017 15.0394 123.952 14.5549 124.531 14.298C125.106 14.0494 126.041 13.6897 126.61 13.506C127.18 13.3223 128.07 13.0796 128.593 12.9647C129.114 12.8581 129.985 12.7138 130.535 12.6567C131.087 12.5914 131.978 12.5698 132.524 12.5976C133.07 12.6255 133.817 12.7022 134.182 12.7756C134.576 12.8503 135.389 13.1058 136.146 13.407C137.128 13.795 137.622 14.033 138.205 14.4112C138.626 14.6885 139.235 15.1246 139.554 15.3915C139.877 15.65 140.496 16.234 140.923 16.6957C141.352 17.1491 141.946 17.8482 142.239 18.2584C142.535 18.6603 143 19.396 143.289 19.8911C143.578 20.3862 143.954 21.1546 144.146 21.6028C144.329 22.0477 144.588 22.7711 144.727 23.2083C144.86 23.634 145.103 24.6485 145.264 25.4496C145.434 26.2539 145.629 27.4903 145.707 28.211C145.784 28.9317 145.879 30.0813 145.906 30.7827C145.941 31.4873 145.973 33.0734 145.984 34.3154C145.995 35.5575 146.017 37.1687 146.047 37.89C146.067 38.6081 146.155 39.8509 146.24 40.6513C146.317 41.4485 146.491 42.5904 146.622 43.1973C146.752 43.8042 146.976 44.6677 147.12 45.1165C147.264 45.5653 147.549 46.27 147.753 46.6848C147.958 47.0995 148.358 47.7811 148.647 48.1997C148.937 48.6184 149.473 49.2949 149.845 49.6975C150.218 50.1001 150.834 50.6924 151.217 50.9934C151.597 51.3027 152.219 51.7536 152.605 51.9981C153.144 52.3403 153.675 52.5828 154.969 53.0815C156.318 53.5911 156.848 53.7571 157.714 53.9272C158.303 54.0392 159.306 54.1759 159.944 54.2391C160.581 54.3023 161.649 54.3682 162.335 54.3826C163.02 54.397 164.253 54.3826 165.079 54.3552C165.908 54.3195 167.885 54.1691 169.482 54.007C171.076 53.8532 173.881 53.5707 175.72 53.3771C177.557 53.1919 179.744 53.0172 180.57 52.9898C181.396 52.9624 182.651 52.9661 183.35 52.9952C184.049 53.0244 185.302 53.1328 186.133 53.2418C186.964 53.3507 188.12 53.5369 188.707 53.6573C189.294 53.7777 190.358 54.0532 191.062 54.2669C191.857 54.4961 192.832 54.8525 193.585 55.1903C194.269 55.4824 195.257 55.9785 195.802 56.284C196.346 56.5896 197.142 57.0881 197.578 57.4C198.018 57.7036 198.669 58.204 199.027 58.4954C199.382 58.7951 200.074 59.4646 200.562 59.9887C201.051 60.5128 201.679 61.273 201.972 61.6832C202.262 62.1018 202.69 62.7848 202.923 63.2008C203.156 63.6168 203.482 64.2894 203.645 64.688C203.808 65.0867 204.029 65.7091 204.132 66.0653C204.243 66.4247 204.401 67.1095 204.5 67.5987C204.591 68.0848 204.704 68.963 204.75 69.5661C204.788 70.1659 204.806 71.1136 204.769 71.6845C204.739 72.2586 204.633 73.1579 204.537 73.7063C204.415 74.4462 204.222 75.1206 203.765 76.3837C203.402 77.4244 203.001 78.3925 202.733 78.9132C202.488 79.3753 202.029 80.1679 201.7 80.6744C201.379 81.1841 200.83 81.9612 200.475 82.4098C200.128 82.8616 199.559 83.5442 199.206 83.9363C198.862 84.3315 198.081 85.1149 197.491 85.6747C196.89 86.2396 196.045 86.989 195.592 87.3424C195.148 87.6991 194.367 88.2813 193.863 88.6437C193.35 89.0029 192.511 89.5626 191.983 89.8871C191.456 90.2115 190.698 90.6588 190.309 90.8734C189.911 91.0847 188.918 91.5949 188.103 91.9913C187.289 92.3877 184.921 93.5293 182.849 94.5257C180.768 95.5189 178.458 96.6349 177.701 97.0056C176.945 97.3763 175.86 97.9275 175.282 98.2327C174.704 98.5379 173.731 99.0943 173.136 99.4696C172.532 99.8416 171.683 100.426 171.257 100.761C170.831 101.096 170.204 101.651 169.86 101.998C169.523 102.349 168.991 102.959 168.689 103.37C168.182 104.039 168.076 104.238 167.642 105.366C167.236 106.419 167.151 106.741 167.094 107.362C167.061 107.772 167.067 108.503 167.106 108.999C167.146 109.494 167.289 110.317 167.421 110.847C167.547 111.366 167.971 112.508 168.348 113.373C168.728 114.229 169.364 115.491 169.763 116.173C170.166 116.846 171.337 118.688 172.364 120.255C173.397 121.833 174.61 123.74 175.062 124.509C175.506 125.274 176.21 126.534 176.609 127.292C177.016 128.054 177.749 129.612 178.241 130.752C178.733 131.891 179.345 133.489 179.608 134.301C179.863 135.109 180.224 136.438 180.402 137.246C180.581 138.053 180.793 139.171 180.875 139.731C180.957 140.29 181.049 141.295 181.086 141.971C181.115 142.644 181.126 143.685 181.099 144.279C181.072 144.873 180.999 145.709 180.948 146.14C180.889 146.568 180.778 147.255 180.694 147.673C180.609 148.092 180.407 148.916 180.243 149.515C180.067 150.148 179.73 151.073 179.441 151.749C179.168 152.383 178.753 153.211 178.517 153.6C178.28 153.989 177.824 154.677 177.497 155.127C177.17 155.577 176.528 156.347 176.081 156.836C175.625 157.323 174.887 158.018 174.436 158.391C173.997 158.759 173.284 159.291 172.857 159.577C172.433 159.856 171.676 160.303 171.179 160.572C170.682 160.841 169.768 161.247 169.151 161.48C168.533 161.712 167.553 162.016 166.975 162.148C166.393 162.289 165.487 162.449 164.963 162.515C164.438 162.582 163.506 162.636 162.899 162.642C162.296 162.64 161.233 162.585 160.553 162.506C159.874 162.427 158.833 162.266 158.246 162.145C157.659 162.025 156.824 161.828 156.395 161.72C155.966 161.613 154.86 161.273 153.947 160.979C152.852 160.634 150.793 159.851 147.957 158.72C144.999 157.533 143.105 156.823 141.971 156.453C141.055 156.168 139.847 155.818 139.298 155.673C138.746 155.537 137.867 155.353 137.344 155.266C136.821 155.18 135.91 155.079 135.316 155.052C134.726 155.016 133.807 155.036 133.289 155.086C132.77 155.136 132.005 155.254 131.604 155.349C131.203 155.444 130.465 155.668 129.986 155.839C129.496 156.015 128.665 156.405 128.13 156.698C127.604 156.994 126.705 157.56 126.151 157.951C125.598 158.343 124.605 159.15 123.946 159.741C123.287 160.332 122.326 161.257 121.803 161.794C121.279 162.332 120.456 163.224 119.966 163.774C119.476 164.324 118.63 165.226 118.08 165.782C117.522 166.335 116.606 167.192 116.026 167.678C115.453 168.168 114.626 168.847 114.191 169.179C113.748 169.507 112.899 170.092 112.296 170.464C111.7 170.839 110.68 171.396 110.045 171.699C109.402 171.998 108.408 172.412 107.832 172.612C107.26 172.804 106.238 173.092 105.576 173.24C104.915 173.388 103.921 173.553 103.368 173.618C102.818 173.675 102 173.734 101.546 173.742C101.092 173.749 100.319 173.739 99.8296 173.714C99.3405 173.689 98.5082 173.608 97.9818 173.53C97.4522 173.46 96.564 173.301 96.0055 173.182C95.2902 173.021 94.4805 172.757 93.2775 172.294C92.0328 171.815 91.3105 171.498 90.6589 171.123C90.1648 170.836 89.4844 170.411 89.149 170.186C88.8136 169.961 88.0934 169.415 87.5556 168.968C87.0147 168.529 86.2187 167.781 85.7954 167.311C85.3721 166.841 84.7946 166.148 84.5171 165.773C84.2397 165.397 83.7529 164.644 83.4318 164.107C83.1139 163.563 82.5868 162.515 82.2549 161.783C81.9346 161.045 81.4692 159.887 81.2363 159.222C80.9949 158.553 80.4739 156.942 80.0684 155.653C79.6629 154.365 79.1335 152.75 78.8922 152.082C78.6592 151.416 78.2266 150.348 77.9441 149.711C77.6584 149.083 77.1897 148.183 76.8911 147.712C76.5925 147.242 76.1673 146.628 75.9341 146.336C75.6978 146.053 75.2577 145.577 74.9481 145.285C74.6417 144.985 74.1174 144.552 73.7852 144.319C73.4563 144.077 72.8079 143.693 72.3427 143.456C71.8775 143.22 71.1604 142.915 70.7298 142.787C70.3024 142.651 69.5473 142.495 69.046 142.427C68.5447 142.358 67.7843 142.315 67.362 142.315C66.9397 142.316 66.2121 142.362 65.739 142.42C65.2691 142.469 64.4065 142.617 63.8196 142.746C63.2295 142.883 62.2221 143.157 61.5696 143.357C60.9222 143.568 59.8512 143.933 59.2026 144.173C58.5507 144.42 57.2932 144.896 56.3964 145.232C55.5111 145.563 54.2221 146.045 53.5439 146.311C52.8689 146.57 51.9701 146.886 51.5445 147.019C51.1222 147.145 50.4183 147.353 49.9824 147.464C49.5434 147.582 48.7128 147.771 48.1439 147.878C47.5718 147.994 46.4251 148.157 45.6049 148.244C44.7763 148.328 43.4972 148.411 42.7542 148.422C42.0144 148.425 40.8883 148.385 40.2475 148.33C39.6067 148.275 38.6008 148.147 38.0076 148.043C37.4144 147.94 36.5494 147.77 36.0925 147.661C35.6355 147.552 34.5083 147.166 33.5894 146.812C32.4115 146.358 31.6506 146.017 31.0158 145.648C30.5217 145.362 29.7205 144.852 29.2457 144.515C28.7741 144.171 28.0635 143.6 27.6716 143.247C27.2829 142.886 26.6951 142.295 26.3611 141.917C26.0239 141.547 25.4882 140.871 25.1632 140.419C24.8382 139.968 24.3938 139.279 24.171 138.886C23.9514 138.485 23.6136 137.817 23.4204 137.397C23.2188 136.974 22.9389 136.281 22.8055 135.855C22.6637 135.426 22.4719 134.729 22.3699 134.296C22.2679 133.863 22.1443 133.039 22.0887 132.461C22.0331 131.883 21.9892 131.05 21.9901 130.599C21.991 130.149 22.0532 129.29 22.1236 128.684C22.194 128.077 22.3616 127.144 22.4878 126.617C22.6058 126.086 22.8569 125.185 23.0443 124.624C23.2329 124.034 23.6133 123.097 23.9389 122.426C24.2465 121.776 24.7335 120.86 25.0185 120.394C25.3035 119.928 25.8156 119.147 26.152 118.672C26.4884 118.197 26.9953 117.528 27.2802 117.187C27.5651 116.846 28.034 116.326 28.3112 116.03C28.5916 115.725 29.2797 115.059 29.8385 114.555C30.4005 114.042 31.3002 113.275 31.8467 112.852C32.3933 112.429 33.3964 111.693 34.087 111.22C34.7692 110.744 36.3702 109.7 37.6401 108.894C38.9183 108.091 40.2422 107.219 40.5997 106.963C40.9489 106.704 41.6035 106.15 42.0389 105.742C42.4742 105.334 43.0248 104.701 43.2763 104.347C43.5194 103.99 43.8263 103.417 43.9647 103.058C44.116 102.665 44.2313 102.191 44.2488 101.872C44.2683 101.572 44.2203 101.074 44.1331 100.752C44.0458 100.431 43.8385 99.9481 43.6773 99.6941C43.511 99.4285 43.1815 99.0137 42.9354 98.7559C42.6894 98.498 42.1517 98.051 41.7373 97.757C41.2926 97.4419 40.5055 96.9948 39.8096 96.6596C38.9196 96.2305 38.3181 95.9988 37.3452 95.7105C36.6325 95.4936 34.3684 94.8712 32.3196 94.3124C30.2676 93.7621 27.6681 93.0392 26.555 92.7161C25.4419 92.393 23.7762 91.8858 22.863 91.5917C21.953 91.2892 20.5418 90.7937 19.7398 90.4849C18.9378 90.176 17.6758 89.642 16.9316 89.3074C16.1907 88.9645 15.1401 88.4543 14.5894 88.1655C14.042 87.8683 13.1912 87.3871 12.7003 87.0925C12.2094 86.7979 11.3324 86.2106 10.7503 85.8041C10.1682 85.3976 9.26482 84.7043 8.75215 84.2669C8.23625 83.8379 7.41653 83.052 6.92446 82.5362C6.43239 82.0205 5.76243 81.2443 5.431 80.8096C5.09958 80.3748 4.51514 79.526 4.14009 78.9306C3.76827 78.3268 3.15507 77.179 2.78399 76.3739C2.41292 75.5689 1.94434 74.4193 1.74541 73.8149C1.54649 73.2105 1.30141 72.3772 1.19814 71.9728C1.08653 71.5651 0.926907 70.784 0.818576 70.2432C0.7186 69.7057 0.586095 68.7047 0.515768 68.0155C0.453794 67.3295 0.392025 66.2693 0.385926 65.6624C0.388182 65.0588 0.422138 64.0739 0.466166 63.4863C0.510192 62.8987 0.632211 61.9093 0.737318 61.2876C0.842425 60.666 1.03381 59.7705 1.16069 59.2916C1.28757 58.8127 1.43377 58.2836 1.47821 58.1184C1.52265 57.9532 1.72286 57.3586 1.93527 56.807Z" fill="#02AF85"/>
</svg>
