<svg width="279" height="243" viewBox="0 0 279 243" fill="none" xmlns="http://www.w3.org/2000/svg">
<path fill-rule="evenodd" clip-rule="evenodd" d="M4.19631 66.6191C4.56553 65.8965 5.20786 64.7901 5.60767 64.1672C6.01833 63.5501 6.76924 62.5012 7.26875 61.8477C7.76825 61.1943 8.71344 60.0675 9.37401 59.3464C10.0237 58.6195 11.0883 57.5561 11.7181 56.9717C12.3588 56.3931 13.4194 55.4945 14.0805 54.9824C14.7358 54.4811 15.7484 53.7518 16.3403 53.37C16.9214 52.9824 17.8195 52.4429 18.3213 52.1524C18.8282 51.8785 19.8412 51.3582 20.5641 51.018C21.287 50.6778 23.0011 50.0422 24.3802 49.6186C26.2802 49.0259 27.2585 48.8072 28.493 48.6826C29.3857 48.5994 30.7779 48.5445 31.6072 48.5807C32.4365 48.6169 33.9666 48.7743 35.0232 48.9589C36.069 49.1377 37.7203 49.5124 38.681 49.7992C39.6475 50.0751 40.9844 50.4918 41.6602 50.7388C42.3418 50.975 44.6572 51.8549 46.8141 52.6925C48.9654 53.5409 51.39 54.4509 52.2083 54.7178C53.0207 54.9956 54.2657 55.3496 54.9761 55.5315C55.6864 55.7133 56.8407 55.9497 57.5473 56.06C58.2539 56.1703 59.2633 56.2603 59.7961 56.2785C60.329 56.2966 61.2868 56.2479 61.9315 56.1862C62.5762 56.1246 63.5481 55.9443 64.0907 55.7867C64.8825 55.5526 65.3446 55.3106 66.363 54.5705C67.0624 54.0648 67.8871 53.375 68.1921 53.0359C68.4972 52.6967 69.0722 51.8746 69.4676 51.2076C70.0005 50.3075 70.3019 49.6603 70.6042 48.7492C70.8405 48.0675 71.1584 46.7334 71.324 45.7915C71.4973 44.7564 71.6475 43.0829 71.6831 41.5991C71.7212 40.2418 71.6743 37.3923 71.5603 35.2726C71.4463 33.1528 71.3397 30.4944 71.3118 29.3665C71.2948 28.2444 71.3101 26.6941 71.3618 25.9145C71.4244 25.1407 71.591 23.6984 71.7521 22.7125C71.9132 21.7266 72.2178 20.2602 72.4351 19.457C72.6414 18.6481 73.0059 17.436 73.2531 16.7601C73.4894 16.0784 74.0027 14.8479 74.3963 14.0269C74.8078 13.1459 75.4515 11.9845 75.9478 11.2319C76.4104 10.5171 77.2175 9.41455 77.7496 8.77836C78.2708 8.13641 79.0785 7.24282 79.5343 6.80277C80.0011 6.36847 80.8214 5.63466 81.3706 5.20231C81.9197 4.76998 82.8147 4.13141 83.3619 3.78151C83.9091 3.43161 85.0174 2.83659 85.8349 2.44914C86.6524 2.06167 87.9952 1.54921 88.8094 1.29912C89.6293 1.03819 90.9834 0.740485 91.8166 0.611843C92.6499 0.483186 93.7745 0.355972 94.3246 0.341556C94.8747 0.327142 95.9302 0.330244 96.6771 0.364506C97.424 0.398765 98.6468 0.532306 99.4134 0.660504C100.169 0.782958 101.443 1.08268 102.245 1.32721C103.064 1.56663 104.264 1.98009 104.934 2.23796C105.691 2.54189 106.935 3.15984 108.28 3.92866C109.63 4.68661 110.93 5.51482 111.816 6.17924C112.588 6.74198 113.554 7.51827 113.968 7.89104C114.382 8.26381 115.043 8.90639 115.44 9.31175C115.837 9.71711 116.389 10.3296 116.672 10.6608C116.95 11.0028 117.563 11.8146 118.041 12.4859C118.509 13.1514 119.162 14.1511 119.489 14.7143C119.821 15.2941 120.348 16.2689 120.662 16.9087C120.982 17.5377 121.551 18.8269 121.929 19.7652C122.314 20.6926 123.02 22.6395 123.497 24.075C123.974 25.5105 125.003 28.8947 125.79 31.6078C126.566 34.3152 127.551 37.4948 127.968 38.676C128.385 39.8571 129.06 41.5228 129.473 42.3959C129.875 43.2633 130.496 44.4273 130.823 44.9905C131.167 45.5485 131.811 46.4601 132.237 47.0201C132.669 47.5693 133.424 48.401 133.908 48.8524C134.446 49.3601 135.224 49.9395 135.895 50.3514C136.573 50.7524 137.334 51.1279 137.83 51.2937C138.288 51.453 139.092 51.6426 139.612 51.7375C140.137 51.8214 141.082 51.8769 141.703 51.8587C142.529 51.8233 143.358 51.6506 144.676 51.2365C145.806 50.8895 146.994 50.4063 147.741 49.9952C148.42 49.632 149.755 48.7674 150.711 48.0918C151.668 47.4162 153.073 46.3389 153.836 45.7137C154.599 45.0885 156.446 43.4938 157.934 42.182C159.434 40.8759 161.472 39.1043 162.476 38.2594C163.481 37.4145 165.291 35.9948 166.499 35.1053C167.708 34.2158 169.246 33.1526 169.921 32.7452C170.585 32.3321 171.711 31.6771 172.43 31.2927C173.148 30.9084 174.416 30.3007 175.25 29.9356C176.077 29.5814 177.431 29.0747 178.262 28.8195C179.087 28.5752 180.42 28.2385 181.226 28.0817C182.033 27.9249 183.285 27.7403 184.018 27.6697C184.745 27.61 185.956 27.5563 186.714 27.5689C187.478 27.5705 188.696 27.6875 189.435 27.815C190.174 27.9426 191.181 28.17 191.666 28.33C192.19 28.4964 193.256 28.9781 194.238 29.5129C195.513 30.203 196.147 30.6085 196.88 31.2198C197.408 31.6668 198.166 32.3612 198.558 32.7774C198.955 33.1827 199.703 34.0803 200.208 34.7797C200.72 35.4682 201.415 36.5185 201.746 37.1257C202.084 37.7221 202.597 38.8011 202.909 39.5233C203.222 40.2456 203.608 41.3545 203.796 41.9969C203.973 42.6334 204.206 43.6618 204.323 44.2804C204.435 44.8824 204.599 46.305 204.688 47.4233C204.787 48.5474 204.85 50.2645 204.837 51.2595C204.825 52.2545 204.765 53.8367 204.686 54.7971C204.619 55.7633 204.402 57.9301 204.213 59.6247C204.024 61.3194 203.79 63.5188 203.711 64.5067C203.621 65.4888 203.536 67.1969 203.521 68.3018C203.494 69.4009 203.544 70.9857 203.623 71.8344C203.701 72.6831 203.865 73.8967 203.987 74.5319C204.109 75.1672 204.382 76.1745 204.593 76.7734C204.804 77.3722 205.236 78.3668 205.562 78.9849C205.888 79.603 206.507 80.613 206.949 81.2229C207.39 81.8327 208.133 82.7412 208.605 83.2143C209.072 83.6983 209.846 84.415 210.332 84.8115C211.011 85.3665 211.694 85.7842 213.377 86.6765C215.13 87.5925 215.827 87.906 216.978 88.2798C217.763 88.5294 219.107 88.8803 219.966 89.0712C220.824 89.2621 222.269 89.5274 223.201 89.6595C224.132 89.7916 225.816 89.9746 226.946 90.073C228.082 90.1605 230.8 90.2801 233.004 90.3215C235.202 90.3738 239.07 90.4493 241.609 90.4877C244.143 90.5369 247.153 90.658 248.283 90.7563C249.413 90.8547 251.123 91.0658 252.071 91.2203C253.018 91.3748 254.708 91.7284 255.823 92.0134C256.938 92.2984 258.483 92.742 259.263 93.0025C260.043 93.263 261.448 93.8133 262.373 94.2202C263.418 94.6629 264.689 95.309 265.659 95.893C266.543 96.4034 267.809 97.2418 268.5 97.7476C269.192 98.2535 270.195 99.0636 270.738 99.5604C271.288 100.046 272.093 100.835 272.533 101.291C272.967 101.758 273.8 102.784 274.38 103.579C274.961 104.373 275.692 105.512 276.024 106.12C276.35 106.738 276.82 107.739 277.07 108.344C277.319 108.949 277.653 109.92 277.81 110.49C277.967 111.06 278.165 111.944 278.247 112.447C278.339 112.955 278.442 113.914 278.497 114.597C278.542 115.274 278.551 116.49 278.514 117.319C278.467 118.143 278.337 119.438 278.192 120.21C278.058 120.987 277.765 122.195 277.544 122.927C277.256 123.915 276.883 124.803 276.052 126.449C275.387 127.808 274.681 129.061 274.23 129.727C273.82 130.317 273.065 131.321 272.533 131.958C272.012 132.6 271.136 133.569 270.579 134.122C270.032 134.681 269.143 135.517 268.599 135.994C268.065 136.476 266.871 137.415 265.975 138.081C265.063 138.752 263.788 139.635 263.113 140.042C262.449 140.455 261.29 141.121 260.543 141.532C259.786 141.937 258.55 142.562 257.778 142.918C257.005 143.273 255.899 143.758 255.333 143.987C254.756 144.21 253.319 144.742 252.144 145.148C250.968 145.555 247.554 146.722 244.566 147.739C241.567 148.751 238.236 149.893 237.144 150.274C236.051 150.655 234.482 151.228 233.644 151.549C232.806 151.87 231.39 152.468 230.517 152.882C229.633 153.29 228.38 153.947 227.744 154.334C227.108 154.72 226.163 155.374 225.636 155.79C225.12 156.212 224.294 156.957 223.815 157.468C223.014 158.296 222.838 158.55 222.06 160.016C221.335 161.385 221.165 161.81 220.985 162.647C220.873 163.199 220.761 164.197 220.734 164.879C220.706 165.56 220.767 166.705 220.859 167.449C220.946 168.177 221.336 169.803 221.707 171.044C222.084 172.274 222.744 174.098 223.177 175.093C223.615 176.077 224.908 178.78 226.051 181.083C227.199 183.404 228.54 186.201 229.029 187.324C229.508 188.44 230.261 190.273 230.68 191.372C231.11 192.476 231.853 194.721 232.336 196.354C232.819 197.988 233.391 200.267 233.617 201.416C233.831 202.559 234.105 204.43 234.215 205.56C234.326 206.69 234.431 208.248 234.451 209.024C234.471 209.8 234.432 211.185 234.371 212.113C234.3 213.035 234.145 214.455 234.01 215.26C233.875 216.065 233.639 217.193 233.499 217.772C233.347 218.346 233.083 219.263 232.9 219.82C232.716 220.376 232.305 221.466 231.983 222.256C231.639 223.089 231.027 224.295 230.523 225.169C230.047 225.988 229.345 227.049 228.959 227.54C228.574 228.031 227.838 228.893 227.319 229.453C226.8 230.012 225.798 230.956 225.108 231.55C224.406 232.139 223.287 232.964 222.611 233.399C221.952 233.829 220.893 234.436 220.264 234.756C219.641 235.066 218.535 235.551 217.814 235.836C217.092 236.122 215.78 236.525 214.9 236.74C214.021 236.956 212.635 237.209 211.825 237.294C211.009 237.39 209.748 237.459 209.022 237.464C208.296 237.469 207.017 237.389 206.189 237.298C205.367 237.195 203.927 236.947 203.014 236.727C202.102 236.507 200.709 236.117 199.929 235.856C199.149 235.596 198.043 235.19 197.476 234.973C196.91 234.756 195.457 234.111 194.261 233.561C192.825 232.911 190.149 231.505 186.469 229.499C182.633 227.395 180.168 226.116 178.684 225.426C177.482 224.886 175.892 224.21 175.168 223.924C174.438 223.648 173.271 223.252 172.572 223.048C171.873 222.845 170.649 222.557 169.844 222.422C169.045 222.277 167.789 222.154 167.074 222.137C166.36 222.12 165.298 222.155 164.736 222.218C164.174 222.282 163.13 222.466 162.45 222.621C161.754 222.78 160.557 223.175 159.779 223.486C159.013 223.803 157.695 224.427 156.876 224.869C156.058 225.311 154.573 226.249 153.577 226.946C152.582 227.643 151.121 228.746 150.319 229.392C149.517 230.039 148.249 231.119 147.49 231.789C146.732 232.458 145.43 233.549 144.59 234.216C143.738 234.878 142.35 235.895 141.479 236.463C140.619 237.036 139.379 237.826 138.732 238.206C138.074 238.581 136.822 239.239 135.938 239.646C135.065 240.06 133.583 240.652 132.668 240.96C131.743 241.262 130.32 241.663 129.502 241.841C128.69 242.009 127.25 242.233 126.324 242.327C125.398 242.42 124.016 242.481 123.252 242.479C122.494 242.467 121.368 242.412 120.748 242.348C120.129 242.284 119.077 242.143 118.414 242.029C117.752 241.914 116.631 241.667 115.926 241.475C115.216 241.293 114.031 240.929 113.29 240.675C112.341 240.339 111.281 239.846 109.718 239.017C108.1 238.16 107.167 237.61 106.341 236.991C105.715 236.519 104.857 235.828 104.437 235.466C104.017 235.104 103.125 234.242 102.466 233.544C101.8 232.858 100.838 231.707 100.339 230.997C99.839 230.287 99.1657 229.248 98.8492 228.691C98.5328 228.133 97.9931 227.026 97.6436 226.243C97.2998 225.448 96.7534 223.934 96.4214 222.881C96.1059 221.824 95.6619 220.169 95.4537 219.224C95.2346 218.273 94.7892 215.991 94.4481 214.168C94.1071 212.346 93.6507 210.058 93.4317 209.107C93.2235 208.162 92.8094 206.635 92.529 205.721C92.2428 204.818 91.7518 203.514 91.4221 202.824C91.0923 202.134 90.6138 201.227 90.3439 200.791C90.0682 200.367 89.5467 199.645 89.1727 199.196C88.8044 198.737 88.1609 198.062 87.7465 197.689C87.3379 197.305 86.5174 196.675 85.9222 196.276C85.327 195.877 84.3997 195.344 83.8339 195.099C83.2737 194.844 82.2702 194.507 81.5982 194.331C80.9262 194.156 79.897 193.972 79.3214 193.903C78.7458 193.835 77.7466 193.778 77.0923 193.779C76.4438 193.769 75.2439 193.828 74.4228 193.908C73.596 193.998 72.1781 194.206 71.256 194.371C70.339 194.553 68.8194 194.874 67.896 195.094C66.9668 195.325 65.1749 195.766 63.8975 196.077C62.6367 196.382 60.8007 196.828 59.8325 197.08C58.8701 197.321 57.5934 197.604 56.9914 197.716C56.3952 197.818 55.4016 197.986 54.7894 198.065C54.1715 198.155 53.0086 198.276 52.2157 198.329C51.417 198.392 49.8273 198.426 48.6951 198.41C47.5521 198.388 45.7952 198.291 44.7806 198.185C43.7719 198.067 42.2438 197.827 41.3795 197.647C40.5151 197.467 39.1654 197.127 38.3739 196.889C37.5825 196.65 36.4314 196.276 35.8266 196.053C35.2217 195.829 33.7489 195.118 32.5546 194.485C31.0237 193.673 30.0428 193.083 29.2382 192.476C28.6118 192.005 27.6036 191.178 27.0117 190.641C26.4256 190.094 25.551 189.199 25.0748 188.654C24.6043 188.099 23.9003 187.197 23.5072 186.626C23.1083 186.067 22.4893 185.057 22.1206 184.388C21.7518 183.72 21.2593 182.707 21.0202 182.135C20.7868 181.552 20.4361 180.587 20.2417 179.983C20.0365 179.374 19.7689 178.383 19.6569 177.781C19.534 177.173 19.3872 176.191 19.3193 175.584C19.2514 174.978 19.2185 173.833 19.2376 173.036C19.2568 172.24 19.3337 171.098 19.4089 170.484C19.4841 169.87 19.7099 168.709 19.9054 167.895C20.1009 167.08 20.4827 165.835 20.7414 165.138C20.9892 164.434 21.4795 163.247 21.827 162.513C22.1809 161.741 22.8534 160.525 23.4074 159.664C23.9332 158.829 24.7474 157.661 25.2124 157.073C25.6774 156.484 26.5036 155.503 27.0401 154.911C27.5766 154.319 28.3772 153.491 28.8216 153.073C29.2659 152.655 29.9903 152.023 30.4168 151.665C30.849 151.296 31.8961 150.501 32.7406 149.905C33.5908 149.299 34.9429 148.402 35.7572 147.915C36.5716 147.429 38.0596 146.59 39.0785 146.059C40.0865 145.522 42.4399 144.362 44.303 143.472C46.177 142.587 48.1246 141.616 48.6538 141.326C49.1722 141.031 50.1554 140.383 50.8158 139.899C51.4761 139.414 52.3303 138.642 52.7313 138.201C53.1214 137.754 53.6337 137.024 53.8813 136.557C54.152 136.046 54.387 135.42 54.4633 134.987C54.539 134.582 54.5555 133.895 54.4894 133.443C54.4233 132.99 54.2201 132.298 54.0421 131.925C53.859 131.536 53.4781 130.917 53.1851 130.525C52.8922 130.133 52.2327 129.435 51.7162 128.967C51.162 128.464 50.1626 127.725 49.2692 127.154C48.1268 126.423 47.3451 126.009 46.0664 125.456C45.1307 125.043 42.1472 123.823 39.4467 122.725C36.7405 121.638 33.3163 120.226 31.8524 119.603C30.3885 118.98 28.2015 118.015 27.0053 117.464C25.8148 116.902 23.9728 115.995 22.9305 115.442C21.8883 114.89 20.2559 113.955 19.2967 113.377C18.3432 112.787 16.9951 111.92 16.2921 111.436C15.5948 110.941 14.5143 110.145 13.8937 109.663C13.273 109.181 12.1742 108.236 11.4476 107.587C10.721 106.937 9.60372 105.844 8.97683 105.163C8.34418 104.494 7.35606 103.288 6.77015 102.505C6.18422 101.721 5.39862 100.553 5.01832 99.906C4.63803 99.2591 3.98092 98.0063 3.56758 97.1331C3.15999 96.2491 2.51278 94.5841 2.13927 93.426C1.76576 92.2679 1.31596 90.6241 1.14412 89.7677C0.972274 88.9113 0.775117 87.7354 0.700803 87.1672C0.615635 86.5933 0.526391 85.5025 0.467558 84.7477C0.419582 83.9988 0.403409 82.6127 0.420758 81.6618C0.448965 80.7167 0.538905 79.2617 0.630272 78.4335C0.7325 77.6112 0.940545 76.2744 1.09706 75.4808C1.25357 74.6872 1.58237 73.3589 1.82772 72.5289C2.07307 71.6989 2.48098 70.5099 2.73257 69.878C2.98415 69.2461 3.27029 68.5491 3.35799 68.3312C3.4457 68.1134 3.81623 67.3359 4.19631 66.6191ZM11.7284 74.161C11.4941 74.7603 11.1367 75.9065 10.9361 76.7046C10.7413 77.4918 10.5155 78.6521 10.4396 79.2937C10.3586 79.9186 10.2901 80.9397 10.2749 81.5717C10.2546 82.1871 10.2813 83.1335 10.3014 83.6729C10.338 84.2071 10.4472 85.1555 10.5476 85.7793C10.6481 86.403 10.9372 87.6416 11.1851 88.5383C11.4387 89.4241 11.86 90.6494 12.1036 91.2655C12.353 91.8708 12.8078 92.8494 13.1127 93.4285C13.4119 94.0185 13.9773 94.9722 14.348 95.5584C14.7188 96.1446 15.3947 97.0735 15.8268 97.6226C16.2589 98.1718 17.083 99.1097 17.6461 99.7004C18.2092 100.291 19.1068 101.143 19.6406 101.579C20.1687 102.026 21.0479 102.729 21.6048 103.121C22.1558 103.525 23.6284 104.473 24.875 105.217C26.2462 106.042 28.4712 107.249 30.4862 108.276C32.3333 109.2 34.5233 110.263 35.3613 110.624C36.1993 110.985 37.941 111.714 39.2312 112.245C40.5214 112.776 43.0106 113.748 44.7536 114.422C46.5025 115.085 48.9482 116.034 50.1732 116.53C51.4041 117.016 53.5795 118.002 54.9973 118.712C56.6706 119.544 58.0054 120.28 58.7628 120.793C59.4065 121.231 60.379 121.942 60.9128 122.378C61.4466 122.814 62.2957 123.626 62.816 124.166C63.3306 124.717 63.9989 125.503 64.3072 125.945C64.6212 126.376 65.0449 127.046 65.2554 127.435C65.466 127.825 65.8403 128.72 66.0762 129.429C66.312 130.139 66.561 131.217 66.6455 131.818C66.7134 132.425 66.7612 133.41 66.7467 134.014C66.743 134.625 66.6548 135.552 66.5707 136.078C66.4757 136.598 66.2795 137.44 66.1411 137.937C65.9919 138.428 65.657 139.322 65.3902 139.904C65.1226 140.514 64.6172 141.415 64.2238 141.999C63.8311 142.556 63.235 143.339 62.8794 143.721C62.5239 144.103 61.7752 144.833 61.2132 145.342C60.6512 145.851 59.7203 146.61 59.1386 147.025C58.5677 147.446 57.5174 148.141 56.8034 148.57C56.1002 149.004 54.7912 149.715 53.9117 150.167C53.0213 150.613 50.8469 151.645 49.0624 152.466C47.2779 153.286 45.0702 154.328 44.1518 154.801C43.2224 155.269 41.8628 156.023 41.1265 156.467C40.3901 156.911 39.1723 157.713 38.4231 158.234C37.6739 158.755 36.541 159.685 35.8939 160.302C35.2577 160.924 34.3721 161.86 33.9359 162.394C33.4998 162.928 32.7777 163.923 32.3324 164.605C31.8872 165.287 31.3242 166.296 31.0688 166.857C30.8243 167.423 30.4613 168.343 30.2602 168.933C30.0592 169.522 29.8085 170.571 29.6872 171.272C29.5768 171.979 29.4662 172.922 29.4607 173.379C29.4552 173.835 29.5057 174.71 29.5844 175.323C29.6632 175.935 29.8969 176.963 30.1015 177.6C30.301 178.221 30.6753 179.115 30.928 179.583C31.1864 180.04 31.6362 180.766 31.9445 181.207C32.2585 181.638 32.8949 182.379 33.3616 182.863C33.8283 183.347 34.6085 184.053 35.0938 184.449C35.7246 184.965 36.4558 185.422 37.7587 186.113C38.9638 186.752 39.9213 187.176 40.6795 187.425C41.3016 187.616 42.3064 187.898 42.9299 188.034C43.5476 188.181 44.6043 188.365 45.284 188.447C45.9638 188.53 47.0722 188.616 47.7533 188.644C48.4343 188.671 49.6221 188.661 50.4093 188.619C51.1965 188.577 52.6572 188.419 53.6559 188.267C54.6547 188.115 56.3167 187.814 57.3558 187.585C58.3891 187.368 61.0322 186.738 63.233 186.207C65.4288 185.66 68.0495 185.046 69.0329 184.844C70.0221 184.631 71.3864 184.367 72.0542 184.262C72.7219 184.157 73.9628 183.994 74.8171 183.904C75.6657 183.825 76.9212 183.74 77.6253 183.723C78.3237 183.718 79.4667 183.74 80.1695 183.778C80.8665 183.828 82.0177 183.965 82.7185 184.086C83.4193 184.208 84.6222 184.484 85.3811 184.705C86.582 185.064 87.077 185.284 89.0964 186.355C90.7735 187.258 91.7435 187.842 92.5756 188.45C93.202 188.922 94.1674 189.698 94.7165 190.184C95.2656 190.67 96.0815 191.492 96.5367 191.998C96.9919 192.503 97.7387 193.456 98.1956 194.116C98.6583 194.765 99.299 195.786 99.625 196.404C99.9568 197.011 100.428 198.012 100.677 198.618C100.92 199.234 101.367 200.542 101.662 201.533C101.952 202.508 102.31 203.853 102.454 204.5C102.609 205.152 103.039 207.384 103.413 209.46C103.786 211.537 104.202 213.691 104.32 214.255C104.449 214.824 104.714 215.925 104.921 216.716C105.116 217.501 105.539 218.881 105.87 219.779C106.2 220.678 106.708 221.949 107.017 222.6C107.326 223.251 107.911 224.271 108.32 224.863C108.729 225.456 109.494 226.376 110.014 226.916C110.528 227.467 111.34 228.218 111.826 228.614C112.494 229.164 113.188 229.587 114.816 230.451C116.564 231.378 117.152 231.633 118.146 231.91C118.806 232.107 119.961 232.344 120.706 232.46C121.451 232.577 122.427 232.677 122.877 232.693C123.333 232.699 124.17 232.669 124.726 232.616C125.277 232.575 126.276 232.422 126.917 232.289C127.558 232.156 128.687 231.836 129.43 231.59C130.161 231.338 131.327 230.871 132.017 230.541C132.706 230.211 133.742 229.675 134.327 229.331C134.913 228.988 136.063 228.262 136.879 227.693C137.696 227.124 139 226.159 139.784 225.546C140.569 224.932 142.133 223.661 143.255 222.725C144.377 221.789 145.941 220.518 146.726 219.904C147.51 219.29 148.938 218.225 149.894 217.549C150.851 216.873 152.219 215.971 152.933 215.543C153.647 215.114 154.605 214.593 155.056 214.373C155.507 214.152 156.479 213.736 157.206 213.439C157.944 213.149 159.229 212.745 160.059 212.545C160.894 212.334 162.269 212.103 163.123 212.013C163.977 211.923 165.38 211.874 166.249 211.889C167.117 211.904 168.412 212.007 169.13 212.095C169.842 212.195 171.123 212.429 171.982 212.62C172.84 212.81 174.325 213.236 175.307 213.562C176.278 213.882 177.902 214.492 178.909 214.901C180.401 215.498 182.21 216.415 188.681 219.819C193.66 222.444 197.163 224.232 198.099 224.617C198.915 224.967 199.993 225.399 200.506 225.588C201.012 225.787 202.082 226.131 202.873 226.37C203.664 226.608 204.862 226.895 205.524 227.01C206.186 227.125 207.25 227.244 207.887 227.275C208.524 227.307 209.603 227.267 210.291 227.2C210.969 227.129 212.162 226.898 212.915 226.685C213.668 226.472 214.766 226.081 215.328 225.808C215.901 225.541 216.826 225.002 217.396 224.609C217.967 224.216 218.796 223.543 219.258 223.092C219.731 222.646 220.46 221.822 220.891 221.244C221.521 220.424 221.871 219.843 222.519 218.49C223.132 217.229 223.442 216.433 223.68 215.488C223.872 214.783 224.102 213.694 224.195 213.047C224.298 212.406 224.395 211.095 224.43 210.111C224.465 209.128 224.415 207.543 224.317 206.573C224.23 205.608 224.019 204.091 223.854 203.197C223.678 202.296 223.169 200.37 222.72 198.908C222.277 197.435 221.557 195.383 221.121 194.317C220.679 193.262 219.876 191.417 219.322 190.233C218.773 189.037 217.228 185.866 215.896 183.184C214.564 180.502 213.202 177.693 212.873 176.948C212.551 176.193 211.972 174.634 211.599 173.476C211.242 172.313 210.802 170.702 210.646 169.895C210.489 169.089 210.305 167.836 210.235 167.103C210.175 166.376 210.129 165.099 210.138 164.269C210.158 163.445 210.29 162.04 210.438 161.159C210.575 160.271 210.916 158.893 211.183 158.075C211.598 156.82 211.835 156.32 212.737 154.725C213.483 153.395 214.031 152.572 214.603 151.888C215.05 151.359 215.935 150.424 216.582 149.807C217.229 149.19 218.564 148.116 219.559 147.42C220.554 146.723 221.839 145.874 222.425 145.53C223.01 145.187 224.301 144.536 225.302 144.065C226.303 143.593 227.764 142.963 228.552 142.657C229.34 142.351 230.766 141.813 231.72 141.484C232.662 141.149 235.81 140.091 238.698 139.132C241.585 138.172 244.8 137.094 245.842 136.728C246.885 136.363 248.582 135.732 249.62 135.322C250.658 134.913 252.174 134.283 253.007 133.918C253.83 133.547 255.248 132.866 256.145 132.382C257.053 131.903 258.385 131.148 259.105 130.682C259.836 130.221 260.944 129.444 261.577 128.931C262.211 128.418 263.087 127.631 263.521 127.179C263.967 126.734 264.617 125.979 264.974 125.515C265.343 125.056 265.955 124.059 266.364 123.288C266.871 122.332 267.209 121.537 267.455 120.68C267.663 119.998 267.894 118.881 267.965 118.196C268.047 117.516 268.088 116.494 268.068 115.955C268.038 115.41 267.967 114.468 267.893 113.872C267.8 113.155 267.597 112.463 267.272 111.79C267.022 111.239 266.532 110.353 266.204 109.818C265.87 109.293 265.306 108.521 264.959 108.1C264.617 107.668 263.839 106.88 263.247 106.344C262.558 105.728 261.683 105.069 260.854 104.56C260.123 104.103 258.94 103.475 258.162 103.132C257.405 102.801 256.103 102.319 255.252 102.063C254.417 101.801 252.941 101.436 251.973 101.242C251.004 101.049 249.329 100.772 248.254 100.648C247.174 100.507 245.359 100.337 244.217 100.26C243.081 100.173 239.324 100.045 235.884 99.9743C232.444 99.9035 228.62 99.7961 227.384 99.7392C226.149 99.6823 224.277 99.5663 223.212 99.475C222.148 99.3837 220.191 99.1392 218.85 98.9149C217.514 98.6796 215.753 98.3023 214.923 98.0572C214.093 97.812 212.572 97.2699 211.532 96.8438C210.15 96.2775 209.079 95.7517 207.506 94.862C206.042 94.0299 204.991 93.3615 204.182 92.7374C203.534 92.2271 202.532 91.3895 201.972 90.8703C201.413 90.3511 200.555 89.4784 200.073 88.9445C199.591 88.4107 198.769 87.3629 198.243 86.6245C197.716 85.8862 197.053 84.8806 196.784 84.3904C196.516 83.9001 196.06 82.9765 195.778 82.3539C195.496 81.7313 195.077 80.6326 194.853 79.9014C194.622 79.1811 194.332 77.9975 194.212 77.2798C194.081 76.5564 193.918 75.3153 193.844 74.5107C193.77 73.7061 193.699 72.2913 193.689 71.3672C193.678 70.4432 193.731 68.6903 193.821 67.4717C193.9 66.2474 194.13 63.7674 194.311 61.9572C194.508 60.1418 194.714 57.9692 194.784 57.1295C194.843 56.2841 194.927 55.0764 194.969 54.4451C195.001 53.808 195.013 52.6315 195.01 51.8231C194.997 51.009 194.909 49.6267 194.826 48.734C194.743 47.8412 194.506 46.5049 194.304 45.7577C194.091 45.0048 193.752 44.018 193.532 43.5674C193.318 43.1059 192.911 42.4034 192.624 42.0006C192.337 41.5979 191.818 40.9752 191.475 40.6261C191.099 40.2597 190.419 39.7322 189.839 39.383C189.167 38.9711 188.531 38.6755 187.881 38.4841C187.358 38.3177 186.428 38.1306 185.814 38.0555C185.2 37.9804 184.111 37.9876 183.384 38.0472C182.563 38.1267 181.369 38.3843 180.217 38.7473C178.749 39.2072 177.938 39.5564 176.177 40.5153C174.969 41.1684 173.144 42.3017 172.12 43.0252C171.108 43.7544 169.405 45.0776 168.36 45.9711C167.316 46.8645 165.091 48.8572 163.422 50.3791C161.764 51.9068 159.662 53.7979 158.736 54.5732C157.821 55.3543 156.487 56.4278 155.77 56.9661C155.054 57.5044 153.802 58.3435 152.999 58.8358C152.195 59.328 150.919 60.029 150.157 60.3903C149.395 60.7516 148.202 61.2456 147.509 61.4766C146.816 61.7075 145.72 62.0169 145.079 62.1501C144.438 62.2833 143.379 62.4451 142.728 62.5176C142.084 62.5793 140.945 62.6017 140.198 62.5674C139.451 62.5332 138.376 62.4361 137.818 62.3348C137.259 62.2336 136.281 62.0069 135.653 61.827C134.905 61.6112 133.876 61.1909 132.68 60.6125C131.517 60.0515 130.47 59.4547 129.789 58.9821C129.2 58.5722 128.164 57.7448 127.497 57.1406C126.83 56.5363 125.842 55.5396 125.334 54.9226C124.821 54.3166 124.086 53.3423 123.699 52.7612C123.311 52.1801 122.498 50.7751 121.883 49.6277C121.267 48.4804 120.414 46.6785 119.972 45.6232C119.547 44.5628 118.796 42.384 118.296 40.783C117.796 39.1819 116.809 35.8482 116.094 33.3678C115.389 30.8931 114.543 28.1346 114.218 27.2251C113.888 26.3264 113.344 24.9388 113 24.1443C112.657 23.3498 112.038 22.1034 111.627 21.3568C111.216 20.6102 110.512 19.4717 110.055 18.812C109.592 18.1631 108.878 17.2278 108.451 16.7228C108.017 16.2286 107.271 15.4575 106.782 15.017C106.298 14.5656 105.321 13.811 104.612 13.3378C103.622 12.6874 103.014 12.365 102.012 11.9452C101.288 11.6586 100.17 11.2746 99.5247 11.1273C98.8853 10.9691 97.8836 10.7858 97.3137 10.7063C96.7381 10.6376 95.705 10.6185 95.006 10.6514C94.3179 10.69 93.2425 10.8294 92.6124 10.9684C91.9989 11.1022 90.963 11.4295 90.313 11.711C89.663 11.9925 88.7329 12.4873 88.2465 12.8276C87.7434 13.1731 87.0599 13.7012 86.7223 14.0231C86.3848 14.345 85.8598 14.9154 85.5541 15.282C85.2484 15.6487 84.6734 16.4708 84.2895 17.116C83.8826 17.8047 83.3688 18.8262 83.0698 19.5999C82.7721 20.3187 82.3667 21.6342 82.1475 22.5198C81.9283 23.4054 81.6742 24.829 81.5764 25.6955C81.4786 26.562 81.3827 28.2643 81.3645 29.4791C81.3572 30.6996 81.4494 33.7261 81.5714 36.198C81.7043 38.6756 81.781 41.8887 81.7576 43.3233C81.7341 44.7579 81.6311 46.526 81.5315 47.2385C81.4211 47.9452 81.2471 49.0078 81.1285 49.5989C81.0098 50.1899 80.7662 51.1739 80.6086 51.786C80.4343 52.4032 80.0379 53.5705 79.7217 54.3768C79.3997 55.194 78.9286 56.266 78.6579 56.7765C78.3873 57.2869 77.8838 58.1052 77.5416 58.6195C77.1885 59.128 76.6545 59.8466 76.3488 60.2133C76.0431 60.5799 75.4561 61.2148 75.0507 61.6121C74.6344 62.0036 73.8934 62.6403 73.3839 63.0241C72.8744 63.4079 72.0364 63.9653 71.518 64.2609C70.9996 64.5565 70.0204 65.0391 69.3263 65.325C68.6322 65.611 67.4301 65.9893 66.6447 66.1851C65.8542 66.3642 64.557 66.5808 63.7468 66.666C62.9366 66.7512 61.6542 66.8087 60.8959 66.7962C60.1375 66.7837 58.9242 66.7108 58.2004 66.6331C57.4765 66.5554 56.3151 66.3848 55.6201 66.2528C54.925 66.1208 53.7496 65.8454 53.0233 65.6412C52.2804 65.4421 51.1345 65.0849 50.4587 64.8379C49.7772 64.6017 47.6802 63.782 45.7966 63.0059C43.9073 62.2406 41.7184 61.3583 40.9174 61.0588C40.1222 60.7485 38.6933 60.2691 37.7326 59.9823C36.7719 59.6955 35.4439 59.367 34.7814 59.2523C34.1189 59.1375 32.7639 59.0173 31.7914 58.9887C30.8082 58.9543 29.4376 59.0207 28.72 59.1411C28.0082 59.2507 26.7358 59.5778 25.9044 59.8605C25.0621 60.1374 23.8567 60.6531 23.2054 60.9895C22.5649 61.3317 21.6898 61.8278 21.2654 62.1036C20.8409 62.3795 19.9843 63.0244 19.3673 63.5321C18.7504 64.0398 17.8341 64.8759 17.3437 65.3811C16.8641 65.8921 16.2828 66.5161 16.0565 66.7856C15.8358 67.0443 15.3139 67.7138 14.9104 68.265C14.5068 68.8163 13.7871 69.9374 13.322 70.7622C12.8568 71.5869 12.4019 72.4449 12.3142 72.6628C12.2265 72.8806 11.9627 73.5617 11.7284 74.161Z" fill="#02AF85"/>
</svg>
