<svg width="166" height="158" viewBox="0 0 166 158" fill="none" xmlns="http://www.w3.org/2000/svg">
<path fill-rule="evenodd" clip-rule="evenodd" d="M191.375 76.4987C191.364 77.0653 191.298 77.9563 191.237 78.4696C191.168 78.9825 191.016 79.8706 190.902 80.4335C190.788 80.9965 190.538 81.9927 190.344 82.6473C190.158 83.3022 189.814 84.2952 189.597 84.8545C189.371 85.4136 188.979 86.3018 188.721 86.8253C188.462 87.3402 188.049 88.1074 187.794 88.528C187.547 88.9489 187.148 89.5619 186.921 89.8976C186.687 90.2244 186.209 90.8605 185.859 91.2949C185.509 91.7294 184.627 92.6519 183.89 93.3391C182.878 94.2915 182.33 94.7276 181.593 95.1828C181.058 95.5077 180.2 95.9673 179.668 96.1978C179.136 96.4283 178.127 96.7967 177.407 97.0034C176.696 97.2105 175.544 97.4794 174.853 97.5926C174.162 97.7145 173.195 97.861 172.695 97.9122C172.195 97.972 170.472 98.1265 168.862 98.2591C167.252 98.3831 165.451 98.5521 164.856 98.6343C164.261 98.708 163.371 98.8658 162.869 98.9685C162.367 99.0712 161.57 99.2752 161.093 99.4217C160.615 99.5682 159.954 99.8199 159.614 99.9712C159.274 100.123 158.687 100.446 158.301 100.681C157.915 100.917 157.359 101.327 157.067 101.591C156.641 101.98 156.425 102.273 156.011 103.049C155.726 103.58 155.419 104.265 155.331 104.572C155.243 104.878 155.133 105.57 155.088 106.109C155.028 106.837 155.037 107.336 155.125 108C155.185 108.501 155.393 109.436 155.576 110.078C155.783 110.781 156.2 111.878 156.631 112.82C157.021 113.684 157.921 115.46 158.64 116.756C159.359 118.052 160.237 119.69 160.599 120.389C160.953 121.089 161.417 122.067 161.622 122.573C161.819 123.078 162.155 124.034 162.355 124.703C162.555 125.371 162.811 126.385 162.92 126.956C163.037 127.527 163.179 128.399 163.23 128.899C163.29 129.4 163.343 130.329 163.346 130.965C163.357 131.644 163.307 132.57 163.225 133.194C163.153 133.784 162.983 134.723 162.843 135.285C162.712 135.848 162.477 136.655 162.326 137.071C162.165 137.486 161.874 138.198 161.661 138.637C161.448 139.076 161.081 139.75 160.844 140.137C160.607 140.524 160.093 141.236 159.698 141.729C159.303 142.222 158.616 142.954 158.181 143.36C157.746 143.774 156.986 144.375 156.502 144.71C156.018 145.045 155.351 145.468 155.01 145.645C154.669 145.822 154.005 146.143 153.525 146.349C153.046 146.556 152.237 146.845 151.716 146.999C151.204 147.153 150.313 147.354 149.734 147.445C149.147 147.545 148.267 147.651 147.768 147.694C147.2 147.734 146.23 147.726 145.15 147.654C144.07 147.59 143.001 147.467 142.242 147.32C141.585 147.203 140.742 147.01 140.368 146.902C139.994 146.795 139.382 146.593 139.009 146.46C138.636 146.326 138.103 146.11 137.823 145.989C137.545 145.859 136.912 145.536 136.406 145.261C135.909 144.985 135.194 144.557 134.817 144.303C134.431 144.04 133.803 143.589 133.41 143.283C133.017 142.986 132.266 142.35 131.742 141.876C131.217 141.411 130.179 140.404 129.441 139.648C128.703 138.892 127.023 137.081 125.701 135.617C124.387 134.154 122.797 132.458 122.175 131.843C121.552 131.229 120.62 130.389 120.094 129.967C119.576 129.545 118.831 129.003 118.453 128.75C118.067 128.504 117.384 128.128 116.945 127.907C116.506 127.694 115.778 127.402 115.336 127.266C114.844 127.112 114.178 126.985 113.631 126.932C113.083 126.887 112.49 126.883 112.128 126.931C111.792 126.97 111.229 127.097 110.873 127.196C110.518 127.304 109.908 127.557 109.523 127.759C109.015 128.033 108.547 128.394 107.846 129.057C107.242 129.62 106.643 130.286 106.3 130.772C105.984 131.208 105.41 132.159 105.016 132.875C104.621 133.591 104.068 134.697 103.779 135.323C103.491 135.948 102.818 137.514 102.284 138.792C101.741 140.07 101.002 141.805 100.629 142.643C100.257 143.48 99.5534 144.924 99.0658 145.852C98.5782 146.78 97.9373 147.917 97.6378 148.379C97.3468 148.841 96.8395 149.597 96.5056 150.057C96.1718 150.518 95.561 151.287 95.149 151.771C94.7374 152.246 94.042 152.978 93.5981 153.392C93.1546 153.797 92.4202 154.415 91.9616 154.76C91.503 155.105 90.7728 155.603 90.3341 155.871C89.8957 156.131 89.1516 156.534 88.6715 156.758C88.1911 156.99 87.3906 157.289 86.8875 157.434C86.3843 157.58 85.683 157.744 85.3293 157.792C84.9495 157.848 84.1329 157.871 83.3527 157.835C82.341 157.791 81.8193 157.729 81.1723 157.569C80.7042 157.45 80.0158 157.245 79.6429 157.104C79.2697 156.97 78.5258 156.635 77.9948 156.35C77.4634 156.074 76.7063 155.626 76.3125 155.346C75.9184 155.075 75.2668 154.554 74.85 154.196C74.4332 153.837 73.8523 153.259 73.5381 152.913C73.2325 152.567 72.7717 151.993 72.5093 151.64C72.2551 151.296 71.7179 150.453 71.3207 149.777C70.915 149.102 70.351 148.043 70.0553 147.414C69.7596 146.785 69.3141 145.773 69.0698 145.146C68.817 144.519 68.2916 143.091 67.8929 141.969C67.4942 140.847 66.9698 139.395 66.7175 138.75C66.4739 138.106 66.0057 137.007 65.6781 136.309C65.359 135.61 64.8437 134.63 64.5352 134.121C64.2267 133.612 63.7536 132.9 63.4829 132.538C63.2122 132.176 62.7333 131.627 62.4179 131.315C62.1025 131.004 61.5273 130.511 61.1338 130.223C60.7403 129.934 60.0431 129.489 59.5795 129.24C59.1159 128.992 58.3723 128.648 57.9311 128.496C57.4902 128.334 56.785 128.12 56.3591 128.02C55.763 127.878 55.2067 127.825 53.8773 127.778C52.4961 127.738 51.9632 127.754 51.1262 127.871C50.5565 127.954 49.6053 128.144 49.0078 128.286C48.4103 128.429 47.4217 128.703 46.7964 128.905C46.1711 129.106 45.058 129.505 44.3181 129.789C43.578 130.081 41.8341 130.836 40.4376 131.482C39.0413 132.121 36.5886 133.255 34.9823 134.006C33.3763 134.749 31.449 135.592 30.7092 135.875C29.9693 136.158 28.8308 136.548 28.1886 136.74C27.5464 136.932 26.3769 137.227 25.5898 137.388C24.8027 137.549 23.6968 137.743 23.1274 137.817C22.5581 137.892 21.5075 137.975 20.8024 138.002C20.011 138.043 19.0155 138.025 18.2279 137.955C17.517 137.904 16.4656 137.764 15.8769 137.658C15.2881 137.551 14.4107 137.349 13.9177 137.203C13.4245 137.065 12.6776 136.816 12.2621 136.664C11.8469 136.503 11.0105 136.113 10.4035 135.791C9.79645 135.469 8.98931 134.977 8.59552 134.697C8.20204 134.409 7.60072 133.924 7.25928 133.62C6.91785 133.316 6.41179 132.808 6.13927 132.498C5.86674 132.188 5.47187 131.693 5.26737 131.403C5.05429 131.112 4.69642 130.541 4.45325 130.129C4.21863 129.717 3.84164 128.956 3.61124 128.424C3.38941 127.892 3.07577 127.04 2.93113 126.511C2.77792 125.981 2.59293 125.133 2.50833 124.606C2.38714 123.897 2.35052 123.226 2.36983 121.938C2.37245 120.882 2.43331 119.879 2.51286 119.323C2.59031 118.828 2.75788 117.966 2.89778 117.404C3.0291 116.842 3.28299 115.966 3.46426 115.448C3.63696 114.93 3.93964 114.134 4.13627 113.668C4.32431 113.202 4.78706 112.248 5.14618 111.556C5.51417 110.856 6.04525 109.912 6.3448 109.45C6.63575 108.988 7.16083 108.216 7.50416 107.73C7.85607 107.244 8.44115 106.474 8.81789 106.015C9.19462 105.556 9.74092 104.914 10.0268 104.597C10.3212 104.281 11.061 103.508 11.675 102.894C12.289 102.28 14.0772 100.504 15.6428 98.9526C17.217 97.4014 18.9608 95.6672 19.5304 95.0944C20.1001 94.5217 20.9109 93.6825 21.3391 93.225C21.7672 92.7676 22.4739 91.9591 22.8959 91.4327C23.3265 90.9066 23.9125 90.1111 24.194 89.6743C24.4755 89.2374 24.8693 88.5383 25.0729 88.1159C25.2681 87.6932 25.5595 86.9733 25.7046 86.5059C25.9547 85.7416 25.9879 85.528 26.0284 84.3698C26.0663 83.2888 26.0431 82.9702 25.9002 82.3897C25.8019 82.0083 25.5675 81.3473 25.3766 80.9111C25.1858 80.4749 24.7981 79.7742 24.513 79.3347C24.2361 78.9041 23.4948 78.002 22.8826 77.3363C22.2702 76.6792 21.2985 75.7347 20.7233 75.2421C20.1477 74.7582 18.5102 73.4553 17.0888 72.3576C15.6591 71.251 13.9631 69.9032 13.3128 69.3479C12.671 68.7929 11.6384 67.872 11.0398 67.3099C10.4326 66.7475 9.2804 65.5647 8.47819 64.6862C7.67598 63.8077 6.62081 62.5511 6.12842 61.8982C5.64462 61.2456 4.90138 60.1545 4.48709 59.4785C4.07279 58.8026 3.53059 57.856 3.28123 57.3748C3.03187 56.8936 2.63335 56.0121 2.38818 55.4108C2.1516 54.8099 1.81524 53.8704 1.65404 53.3236C1.49286 52.7768 1.29689 51.9968 1.20809 51.59C1.12785 51.1835 1.01346 50.5267 0.958945 50.121C0.90445 49.7154 0.82974 48.9053 0.790421 48.3113C0.752302 47.6829 0.76819 46.7386 0.818537 46.036C0.867383 45.3762 0.984072 44.4956 1.07628 44.0693C1.16848 43.6431 1.36703 42.8769 1.52228 42.367C1.67752 41.857 2.0181 40.9584 2.27039 40.3745C2.53125 39.791 2.98214 38.9306 3.27371 38.4512C3.5564 37.98 4.03618 37.2753 4.33332 36.882C4.63016 36.4972 5.17646 35.8549 5.54252 35.4554C5.90857 35.0559 6.60984 34.4019 7.09628 33.998C7.5827 33.5941 8.37592 33.012 8.85874 32.7111C9.34186 32.4016 10.1125 31.9733 10.5669 31.7487C11.0213 31.5241 11.849 31.1837 12.3968 30.9881C12.9444 30.8011 13.9246 30.5176 14.565 30.3768C15.2054 30.236 16.1992 30.056 16.7686 29.9815C17.3379 29.9069 18.1566 29.8239 18.5787 29.7871C19.0007 29.7504 20.1098 29.7119 21.0293 29.6925C22.1295 29.6623 24.2397 29.7276 27.1631 29.8642C30.2149 30.014 32.1539 30.0647 33.2967 30.0445C34.2165 30.0166 35.4208 29.9557 35.9632 29.9145C36.5059 29.8648 37.3598 29.7572 37.8609 29.6717C38.3619 29.5862 39.2188 29.3928 39.7655 29.2315C40.3118 29.0789 41.1383 28.7728 41.5921 28.5653C42.0459 28.3579 42.702 28.0115 43.0358 27.7998C43.3695 27.5882 43.9686 27.1539 44.3485 26.8494C44.7373 26.5365 45.3684 25.923 45.7614 25.4901C46.1458 25.0569 46.7833 24.2631 47.1624 23.7353C47.5416 23.2074 48.1877 22.1648 48.6001 21.4234C49.0125 20.6819 49.5934 19.5426 49.8995 18.8919C50.2057 18.2412 50.6723 17.1752 50.9442 16.5233C51.216 15.8714 51.7004 14.7889 52.0246 14.113C52.3574 13.4375 52.9184 12.3748 53.2923 11.7523C53.6576 11.1294 54.1948 10.2548 54.4849 9.81833C54.7835 9.38211 55.3695 8.58659 55.8001 8.0605C56.2221 7.53411 56.9723 6.70998 57.4526 6.23717C57.9414 5.76466 58.7125 5.07868 59.1717 4.7168C59.6306 4.3635 60.4667 3.78289 61.0196 3.44146C61.5726 3.10004 62.4216 2.64015 62.902 2.40786C63.3822 2.18415 64.1057 1.87446 64.5145 1.72556C64.9233 1.57666 65.627 1.3436 66.0781 1.21336C66.5292 1.08312 67.3086 0.895648 67.81 0.801527C68.3116 0.698827 69.1664 0.565537 69.7098 0.498654C70.4081 0.420016 71.2244 0.405637 72.4594 0.44886C73.7373 0.493584 74.4909 0.554314 75.1988 0.690758C75.7361 0.795462 76.4858 0.967722 76.8601 1.06672C77.2345 1.16572 78.0581 1.43506 78.6852 1.67175C79.3127 1.89987 80.268 2.32844 80.7988 2.62188C81.3295 2.91533 82.0695 3.36214 82.4385 3.61557C82.8074 3.86899 83.4844 4.39949 83.9432 4.78491C84.4017 5.1789 85.2072 5.96299 85.7372 6.5227C86.2584 7.09068 87.0425 7.99429 87.4619 8.52436C87.8899 9.05472 88.8664 10.3516 89.6371 11.3922C90.4079 12.4327 91.393 13.7299 91.8209 14.2603C92.2403 14.7904 92.9669 15.6232 93.4221 16.1116C93.8776 16.5914 94.5841 17.2604 95.0018 17.5928C95.4195 17.9252 95.9972 18.3492 96.2996 18.5401C96.6024 18.7225 97.1503 19.0166 97.5222 19.1842C97.8939 19.3604 98.5042 19.5879 98.8783 19.6955C99.252 19.8117 99.9597 19.9567 100.455 20.0256C100.951 20.0945 101.696 20.1463 102.126 20.127C102.556 20.1163 103.289 20.0217 103.765 19.9267C104.24 19.8317 104.943 19.6329 105.325 19.5003C105.708 19.3676 106.353 19.0981 106.763 18.8978C107.174 18.706 107.909 18.3022 108.401 18.0016C108.892 17.6924 109.719 17.1286 110.248 16.7434C110.768 16.3493 111.625 15.6835 112.137 15.2634C112.65 14.8347 113.641 14.0103 114.349 13.4252C115.047 12.8484 116.064 12.0078 116.595 11.554C117.126 11.1087 117.841 10.541 118.185 10.2868C118.529 10.0411 119.101 9.63166 119.462 9.39516C119.822 9.15009 120.516 8.71909 120.998 8.44391C121.48 8.16014 122.468 7.65357 123.184 7.31785C123.908 6.98244 125.041 6.5067 125.711 6.26385C126.38 6.02959 127.413 5.71355 128.011 5.56267C128.609 5.4118 129.56 5.21318 130.13 5.12146C130.7 5.02974 131.537 4.91301 131.985 4.86856C132.434 4.82411 133.576 4.82114 134.519 4.85416C135.728 4.89648 136.525 4.96729 137.215 5.10314C137.753 5.20784 138.638 5.41923 139.174 5.5754C139.709 5.74016 140.532 6.03524 140.997 6.23191C141.462 6.43716 142.18 6.78869 142.601 7.02676C143.022 7.25625 143.719 7.70155 144.155 8.00886C144.591 8.31616 145.209 8.80165 145.534 9.08789C145.859 9.38272 146.374 9.88177 146.68 10.2017C146.995 10.522 147.466 11.0624 147.72 11.4063C147.983 11.7505 148.375 12.3226 148.603 12.6828C148.831 13.0429 149.201 13.7516 149.432 14.2579C149.664 14.7642 149.964 15.5049 150.104 15.9135C150.244 16.3222 150.457 17.1199 150.583 17.6912C150.709 18.2625 150.849 19.1608 150.9 19.6779C150.959 20.1954 151.014 21.0907 151.019 21.6578C151.033 22.251 150.982 23.2198 150.897 23.9298C150.822 24.6143 150.667 25.5968 150.555 26.1082C150.442 26.6197 150.223 27.4882 150.067 28.0238C149.911 28.5595 149.661 29.3239 149.509 29.7223C149.358 30.1207 149.096 30.7386 148.937 31.0938C148.779 31.4576 148.364 32.2763 148.015 32.9084C147.667 33.549 147.091 34.5253 146.728 35.0795C146.366 35.6337 145.687 36.615 145.21 37.2597C144.74 37.9047 143.616 39.3514 142.718 40.4796C141.811 41.6075 140.885 42.812 140.641 43.1556C140.406 43.4996 139.986 44.2064 139.719 44.7125C139.452 45.2185 139.152 45.9639 139.034 46.3635C138.926 46.7635 138.827 47.3785 138.814 47.7474C138.8 48.1506 138.844 48.616 138.928 48.911C139.004 49.1885 139.204 49.625 139.383 49.889C139.563 50.153 139.902 50.5256 140.128 50.7053C140.362 50.8939 140.79 51.1665 141.094 51.3232C141.397 51.4799 142.024 51.7166 142.492 51.8532C142.993 51.9996 143.847 52.1583 144.582 52.2441C145.523 52.3544 146.14 52.376 147.112 52.3327C147.826 52.3061 150.072 52.1614 152.103 52.0263C154.135 51.8827 156.717 51.724 157.826 51.6683C158.936 51.6127 160.604 51.5508 161.524 51.5314C162.443 51.5206 163.877 51.5279 164.7 51.5567C165.523 51.5855 166.834 51.6743 167.613 51.7445C168.392 51.8233 169.503 51.9567 170.093 52.0461C170.682 52.144 171.603 52.3137 172.14 52.4269C172.677 52.5402 173.656 52.7978 174.311 52.9839C174.965 53.1701 176.001 53.5155 176.602 53.7513C177.204 53.9785 178.193 54.434 178.8 54.7473C179.407 55.0607 180.257 55.5543 180.694 55.8444C181.13 56.1345 181.926 56.7207 182.452 57.1429C182.978 57.5736 183.893 58.4216 184.481 59.0349C185.069 59.6482 185.853 60.5432 186.223 61.0286C186.592 61.514 187.075 62.1923 187.295 62.5264C187.524 62.8608 187.913 63.5187 188.181 63.9747C188.44 64.4304 188.873 65.296 189.152 65.8985C189.423 66.5006 189.811 67.4419 190.007 67.9899C190.194 68.5376 190.471 69.4407 190.615 69.9869C190.759 70.5331 190.958 71.4677 191.058 72.0639C191.157 72.6601 191.264 73.5314 191.299 74.005C191.334 74.4787 191.367 75.0039 191.378 75.1675C191.39 75.3311 191.395 75.9325 191.375 76.4987Z" fill="#02AF85"/>
</svg>
