<?xml version="1.0" encoding="UTF-8"?><svg id="Layer_1" xmlns="http://www.w3.org/2000/svg" viewBox="0 0 119 275"><defs><style>.cls-1{fill:#02af85;fill-rule:evenodd;stroke-width:0px;}</style></defs><path class="cls-1" d="m83.65,250.96c-.66.51-1.74,1.25-2.38,1.65-.65.39-1.8,1.03-2.55,1.42-.75.38-2.12,1.01-3.04,1.39-.92.39-2.37.9-3.21,1.17-.85.25-2.22.62-3.06.8-.83.18-2.08.41-2.8.5-.71.1-1.77.21-2.37.26-.59.03-1.75.07-2.57.06-.82,0-2.68-.17-4.14-.38-2.02-.29-3.02-.51-4.21-.94-.86-.32-2.17-.87-2.92-1.27-.75-.4-2.1-1.21-2.99-1.85-.89-.62-2.25-1.7-3.01-2.38-.77-.68-1.83-1.65-2.34-2.18-.53-.52-2.28-2.35-3.91-4.07-1.62-1.73-3.46-3.63-4.1-4.24-.63-.61-1.63-1.49-2.2-1.97-.58-.48-1.54-1.21-2.15-1.62-.6-.41-1.5-.94-1.98-1.19-.48-.25-1.39-.62-2.01-.85s-1.6-.49-2.17-.58c-.83-.13-1.37-.11-2.63.13-.87.16-1.93.44-2.36.62-.43.18-1.32.69-1.98,1.13-.89.6-1.45,1.07-2.13,1.77-.52.53-1.4,1.62-1.96,2.42-.61.88-1.49,2.36-2.17,3.72-.63,1.24-1.84,3.89-2.66,5.9-.82,2.01-1.89,4.51-2.36,5.57-.48,1.05-1.17,2.47-1.56,3.17-.4.69-1.18,1.95-1.77,2.79-.58.84-1.51,2.06-2.06,2.71-.55.66-1.41,1.62-1.94,2.13-.52.53-1.53,1.44-2.26,2.03-.77.63-1.87,1.43-2.66,1.9-.74.46-1.97,1.12-2.74,1.48-.76.36-1.9.84-2.52,1.04-.62.2-1.7.51-2.4.67s-1.81.36-2.46.44c-.66.08-1.95.15-2.87.15s-2.39-.12-3.25-.24c-.87-.12-2.26-.44-3.08-.68-.83-.25-1.92-.62-2.44-.85-.51-.23-1.49-.69-2.17-1.05-.68-.36-1.75-1.02-2.4-1.47-.65-.45-1.69-1.28-2.33-1.86-.65-.58-1.58-1.49-2.09-2.02-.57-.61-1.45-1.73-2.35-3.03-.92-1.29-1.76-2.63-2.28-3.63-.47-.86-1.02-2-1.24-2.53-.22-.53-.55-1.41-.74-1.96-.19-.55-.43-1.36-.55-1.79-.11-.44-.32-1.46-.47-2.29-.14-.82-.31-2.03-.36-2.69-.05-.68-.11-1.81-.12-2.54-.02-.72.02-2.16.08-3.2.05-1.03.25-3.14.44-4.67.19-1.54.72-5.12,1.18-7.97.47-2.84.95-6.22,1.09-7.49s.24-3.11.24-4.1c0-.98-.06-2.33-.11-2.99-.07-.67-.27-1.79-.42-2.5-.16-.7-.49-1.8-.74-2.43-.27-.71-.74-1.58-1.18-2.26-.45-.67-.99-1.35-1.38-1.72-.35-.35-1.01-.88-1.45-1.19-.45-.31-1.3-.77-1.88-1.03-.78-.33-1.62-.53-3.02-.73-1.2-.18-2.51-.25-3.38-.2-.79.04-2.4.25-3.58.46-1.18.21-2.95.59-3.93.83-.98.24-3.39.91-5.34,1.47-1.96.55-4.62,1.29-5.92,1.63-1.3.34-3.6.86-5.1,1.15-1.51.29-3.4.6-4.2.68-.8.09-2.12.2-2.96.24-.83.04-2.27.05-3.2.02-.92-.03-2.39-.16-3.27-.29-.87-.14-2.25-.41-3.06-.62s-2.05-.59-2.76-.84c-.7-.26-1.84-.74-2.54-1.09-.71-.34-1.78-.98-2.41-1.42-.63-.44-1.46-1.09-1.84-1.46-.41-.38-1.19-1.3-1.86-2.22-.88-1.2-1.28-1.85-1.69-2.74-.29-.64-.69-1.62-.87-2.18-.19-.55-.49-1.71-.65-2.57-.17-.86-.35-2.14-.39-2.84-.05-.7-.05-1.92-.02-2.73.03-.8.16-2,.26-2.68.12-.67.35-1.72.51-2.34.16-.61.63-1.99,1.04-3.07.4-1.08,1.1-2.7,1.54-3.61.45-.91,1.2-2.35,1.69-3.21.49-.86,1.64-2.77,2.56-4.26.92-1.48,2.1-3.42,2.61-4.29.51-.87,1.34-2.41,1.84-3.43.51-1,1.16-2.49,1.45-3.31.3-.82.68-2.01.85-2.65.17-.64.36-1.69.42-2.34.07-.65.1-1.76.07-2.47-.03-.71-.16-1.92-.3-2.68-.14-.76-.43-1.92-.66-2.57-.22-.65-.62-1.65-.9-2.23-.38-.81-.83-1.5-2-3.06-1.22-1.62-1.73-2.21-2.63-3.06-.62-.58-1.71-1.49-2.42-2.04-.71-.55-1.93-1.43-2.73-1.96-.8-.53-2.28-1.44-3.28-2.02-1.01-.58-3.47-1.88-5.49-2.89-2.01-1.01-5.55-2.78-7.88-3.93-2.32-1.16-5.05-2.59-6.05-3.17-1-.59-2.49-1.53-3.3-2.09s-2.22-1.63-3.12-2.38c-.91-.75-2.14-1.84-2.75-2.42-.61-.58-1.67-1.71-2.34-2.49-.77-.87-1.66-2.02-2.31-2.99-.59-.86-1.4-2.19-1.81-2.96-.42-.77-.99-1.96-1.27-2.66-.29-.69-.69-1.77-.9-2.39-.2-.62-.52-1.94-.71-2.93-.19-.99-.36-2.36-.4-3.07-.03-.71-.03-1.85,0-2.52.03-.67.15-1.71.26-2.31.11-.6.31-1.5.46-2,.14-.51.46-1.44.71-2.1.26-.65.78-1.77,1.18-2.52.4-.74,1.09-1.88,1.57-2.53.46-.66,1.26-1.65,1.79-2.23.7-.79,1.43-1.44,2.92-2.6,1.21-.96,2.41-1.81,3.12-2.23.64-.37,1.78-.96,2.55-1.32.76-.37,2-.88,2.76-1.14.75-.28,1.94-.66,2.65-.86.71-.21,2.22-.56,3.34-.78,1.14-.22,2.7-.48,3.51-.56.79-.09,2.16-.2,3.03-.25.88-.04,2.29-.08,3.17-.07.87.01,2.11.05,2.73.08.63.05,2.19.19,3.46.32s4.93.56,8.14.93c3.22.38,6.8.79,7.97.91,1.18.13,2.88.29,3.8.36.92.07,2.49.14,3.48.14,1,.01,2.44-.05,3.2-.13.76-.08,1.92-.27,2.59-.42.66-.16,1.75-.49,2.42-.75,1.1-.41,1.38-.57,2.74-1.59,1.27-.95,1.61-1.27,2.15-1.96.35-.46.89-1.34,1.21-1.95.32-.62.77-1.7,1.01-2.43.24-.71.59-2.39.79-3.7.19-1.3.38-3.28.42-4.39.03-1.1.02-4.17-.03-6.8-.04-2.65-.06-5.82-.02-7.08.05-1.24.15-3.27.25-4.47.09-1.21.38-3.61.65-5.33.27-1.72.74-4.08,1.04-5.24.3-1.15.87-3,1.26-4.09.39-1.09.98-2.58,1.3-3.31.32-.73.96-1.99,1.43-2.82.47-.82,1.24-2.07,1.71-2.75.48-.69,1.19-1.62,1.57-2.1.39-.46,1.04-1.2,1.45-1.63.41-.43,1.27-1.26,1.92-1.85.68-.62,1.78-1.47,2.63-2.05.8-.55,1.91-1.22,2.49-1.51.57-.29,1.63-.76,2.36-1.05.73-.29,2.07-.72,2.96-.97.91-.24,2.3-.51,3.12-.61.8-.11,2.04-.21,2.77-.23.71-.01,1.95.02,2.74.08.79.05,2.18.26,3.09.44.91.19,2.3.56,3.09.84.8.27,1.99.76,2.67,1.07.67.31,1.82.95,2.55,1.4.72.45,1.94,1.32,2.69,1.92.75.6,1.86,1.58,2.47,2.16.61.58,1.45,1.44,1.88,1.89.43.45,1.49,1.68,2.35,2.72,1.04,1.23,2.9,3.7,5.42,7.17,2.62,3.63,4.34,5.89,5.41,7.18.87,1.03,2.05,2.35,2.59,2.93.55.58,1.46,1.45,2.02,1.95.56.49,1.56,1.3,2.25,1.78.68.49,1.78,1.15,2.44,1.48.65.33,1.65.76,2.2.95.55.19,1.59.48,2.29.63.71.16,1.99.32,2.85.37.85.04,2.34.04,3.29,0,.95-.05,2.74-.27,3.96-.47,1.23-.21,3.06-.59,4.09-.83,1.02-.25,2.67-.69,3.67-.98.99-.29,2.68-.72,3.75-.97,1.08-.24,2.81-.57,3.86-.71,1.05-.15,2.54-.34,3.3-.41.77-.06,2.22-.12,3.22-.11.99,0,2.62.1,3.6.22.99.13,2.48.38,3.31.57.82.2,2.25.63,3.15.95.9.32,2.2.87,2.91,1.21.7.34,1.71.89,2.26,1.22.54.33,1.46.92,2.02,1.32.56.4,1.49,1.12,2.06,1.6.58.48,1.51,1.34,2.09,1.9.73.73,1.49,1.65,2.58,3.1,1.12,1.5,1.74,2.42,2.23,3.35.37.71.86,1.73,1.09,2.24.23.52.68,1.71.98,2.64.31.93.7,2.41.85,3.29.15.88.32,2.13.37,2.79.05.65.06,1.91.04,2.79-.03.89-.19,2.53-.34,3.64-.17,1.12-.49,2.84-.71,3.81-.21.98-.8,3.28-1.29,5.12-.48,1.83-1.07,4.15-1.28,5.13-.22.97-.51,2.56-.65,3.53-.13.96-.25,2.38-.25,3.16,0,.78.05,1.83.11,2.35.07.51.23,1.41.38,1.99.14.59.44,1.49.66,2.02.21.53.69,1.48,1.07,2.11.38.63,1,1.53,1.41,2,.41.48,1.19,1.23,1.73,1.69.54.46,1.42,1.08,1.92,1.39s1.4.81,2.01,1.09c.6.29,1.73.76,2.52,1.05.8.28,2.21.71,3.13.96.93.24,2.47.6,3.42.81.96.19,2.81.57,4.13.85,1.3.27,3.19.66,4.2.86,1,.2,2.3.5,2.91.66.6.17,1.59.45,2.19.64.61.19,1.74.59,2.5.89.77.29,2.25.96,3.29,1.47,1.05.52,2.63,1.38,3.52,1.92.88.55,2.19,1.44,2.91,1.99.72.54,1.82,1.45,2.45,2.02.63.57,1.53,1.42,1.99,1.89.46.47,1.51,1.78,2.34,2.88,1.06,1.42,1.71,2.4,2.19,3.31.37.71.94,1.92,1.25,2.67.3.76.72,1.97.92,2.69.19.72.45,1.86.56,2.56.12.69.25,1.9.3,2.68.05.78.06,1.93.03,2.57-.04.64-.14,1.69-.22,2.33-.08.65-.26,1.69-.42,2.29-.15.62-.45,1.59-.65,2.18-.2.59-.67,1.66-1.04,2.39-.37.73-.94,1.75-1.28,2.28-.34.54-1.06,1.51-1.6,2.18-.54.67-1.44,1.65-1.98,2.18-.54.54-1.51,1.42-2.15,1.95-.67.56-1.82,1.39-2.71,1.94-.85.54-2.12,1.26-2.81,1.6-.69.34-1.88.88-2.64,1.2-.76.31-1.86.73-2.45.92-.59.19-1.54.46-2.09.6-.56.15-1.88.43-2.92.61-1.05.19-2.7.42-3.66.52-.97.09-2.71.22-3.89.26-1.17.05-3.85.09-5.97.1-2.12,0-4.35.04-4.96.08-.61.05-1.8.21-2.63.37-.82.16-1.95.5-2.52.73-.56.24-1.35.69-1.78,1.02-.47.35-.97.83-1.23,1.2-.25.34-.56.97-.7,1.42-.14.45-.25,1.18-.25,1.6,0,.44.08,1.18.18,1.67.1.49.4,1.43.67,2.08.29.71.89,1.83,1.47,2.75.74,1.18,1.28,1.9,2.22,2.98.68.79,2.91,3.23,4.92,5.43,2.03,2.19,4.57,5,5.65,6.22s2.68,3.07,3.54,4.1c.85,1.04,2.16,2.69,2.88,3.66.72.97,1.82,2.55,2.45,3.5.62.96,1.49,2.36,1.93,3.11.43.76,1.08,1.97,1.44,2.69.36.72.96,2.07,1.35,2.99.39.92.94,2.42,1.22,3.32.29.9.68,2.44.87,3.43.2.98.41,2.41.48,3.17s.13,2.21.13,3.2c-.01,1-.14,2.82-.31,4.05-.16,1.24-.47,2.95-.68,3.82-.22.87-.55,2.04-.73,2.6-.17.57-.57,1.62-.85,2.34-.28.71-.88,2-1.31,2.87-.44.86-1.16,2.17-1.61,2.89-.46.71-1.23,1.86-1.73,2.52-.49.66-1.38,1.75-1.97,2.41-.59.66-1.49,1.58-2,2.05-.51.47-1.08.99-1.26,1.16-.18.16-.86.72-1.53,1.22Zm-3.66-10.28c.48-.45,1.31-1.35,1.85-2,.53-.64,1.24-1.62,1.59-2.18.35-.54.86-1.46,1.15-2.03.29-.56.68-1.45.9-1.95.2-.51.52-1.43.7-2.06.18-.62.46-1.89.62-2.83.15-.93.3-2.25.35-2.92.03-.67.04-1.77.02-2.44-.02-.68-.12-1.81-.21-2.51-.09-.7-.3-1.86-.46-2.56-.16-.7-.51-1.93-.77-2.72-.26-.79-.72-1.97-1.02-2.61-.29-.64-.8-1.68-1.14-2.29-.33-.62-1.28-2.14-2.1-3.37-.91-1.36-2.43-3.46-3.85-5.29-1.3-1.66-2.86-3.61-3.48-4.31s-1.91-2.14-2.87-3.2c-.96-1.06-2.84-3.05-4.15-4.43-1.33-1.38-3.17-3.33-4.09-4.33-.92-.99-2.5-2.85-3.5-4.13-1.18-1.5-2.09-2.77-2.57-3.57-.4-.69-.99-1.77-1.29-2.41-.3-.64-.73-1.76-.98-2.49-.23-.74-.51-1.76-.6-2.3-.1-.54-.2-1.34-.22-1.79-.02-.45.02-1.44.12-2.2.09-.76.34-1.86.52-2.46.2-.59.59-1.52.87-2.07.27-.56.76-1.38,1.07-1.83.32-.44.87-1.13,1.21-1.53.35-.39,1.06-1.07,1.56-1.49.51-.45,1.38-1.06,2-1.43.61-.34,1.5-.81,2-1,.5-.2,1.51-.54,2.25-.77.74-.22,1.94-.52,2.66-.65.71-.14,1.99-.32,2.84-.4.84-.09,2.36-.18,3.37-.21,1.02-.02,3.48-.02,5.49,0,2.01.02,4.51.03,5.56,0,1.06-.02,2.65-.12,3.53-.21s2.35-.29,3.27-.45c.92-.15,2.38-.52,3.25-.8.86-.3,2.09-.77,2.73-1.08.64-.3,1.74-.9,2.45-1.34s1.67-1.12,2.16-1.53c.47-.42,1.21-1.11,1.66-1.57.44-.46,1.14-1.32,1.56-1.91.41-.6.93-1.43,1.13-1.85.21-.42.54-1.25.74-1.85.2-.6.43-1.65.52-2.33.09-.66.13-1.65.1-2.2-.04-.54-.14-1.4-.23-1.95-.1-.54-.36-1.5-.58-2.15-.22-.65-.63-1.65-.91-2.23-.36-.75-.83-1.5-1.74-2.71-.83-1.12-1.53-1.93-2.12-2.49-.49-.45-1.3-1.15-1.81-1.55-.51-.41-1.4-1.04-2-1.42s-1.58-.94-2.2-1.26-1.72-.83-2.47-1.14c-.75-.31-2.17-.8-3.16-1.1-.99-.3-2.66-.75-3.72-.99-1.05-.25-3.77-.83-6.04-1.3-2.27-.46-4.96-1.04-5.96-1.28-1.01-.24-2.39-.59-3.05-.79-.66-.2-1.88-.59-2.71-.88-.82-.3-2.02-.77-2.68-1.06-.65-.3-1.7-.82-2.33-1.17-.62-.35-1.63-.98-2.22-1.4-.59-.42-1.59-1.2-2.19-1.74-.95-.86-1.31-1.28-2.71-3.15-1.15-1.57-1.8-2.54-2.3-3.46-.37-.71-.92-1.85-1.22-2.54-.29-.69-.69-1.81-.89-2.48-.2-.67-.47-1.88-.61-2.69-.14-.8-.29-2.03-.32-2.74-.04-.71-.04-1.84,0-2.51.05-.68.21-2.08.37-3.13.16-1.03.42-2.43.57-3.09.14-.67.72-2.92,1.29-5.01.57-2.08,1.13-4.26,1.26-4.83.13-.58.37-1.72.52-2.54.16-.81.38-2.27.47-3.25.09-.98.18-2.37.18-3.11,0-.74-.09-1.94-.21-2.66-.12-.73-.42-1.91-.67-2.64-.23-.74-.66-1.79-.93-2.36-.38-.8-.83-1.5-1.96-3.01-1.21-1.62-1.64-2.12-2.44-2.81-.52-.47-1.49-1.2-2.13-1.63-.64-.43-1.5-.96-1.91-1.17-.42-.21-1.21-.54-1.74-.74-.53-.2-1.52-.5-2.17-.66-.65-.16-1.84-.36-2.63-.46-.79-.09-2.07-.17-2.85-.16-.78,0-1.97.04-2.67.11-.69.06-2.07.23-3.08.4-1,.17-2.63.49-3.63.71-.99.22-3,.71-4.45,1.09-1.45.37-3.45.86-4.45,1.09-.99.22-2.78.58-3.96.79-1.18.21-2.84.44-3.69.52-.85.08-1.96.15-2.48.15-.51,0-1.59-.03-2.4-.08-.81-.06-2.18-.25-3.03-.42-.86-.17-2.24-.56-3.07-.85-.83-.29-2.15-.86-2.94-1.26-.8-.39-1.95-1.06-2.57-1.45-.62-.4-1.7-1.18-2.41-1.74-.71-.55-1.9-1.6-2.66-2.33-.76-.72-1.99-2-2.74-2.82-1.12-1.21-2.39-2.85-6.88-8.83-3.45-4.61-5.91-7.8-6.6-8.57-.6-.68-1.41-1.55-1.8-1.95-.38-.41-1.22-1.19-1.85-1.76-.63-.57-1.61-1.36-2.17-1.75-.56-.4-1.49-.97-2.07-1.28-.58-.31-1.59-.74-2.26-.99-.66-.23-1.86-.54-2.65-.67-.79-.13-1.98-.25-2.62-.25-.65,0-1.74.09-2.44.2-.7.11-1.76.37-2.39.59-.63.2-1.67.65-2.32.99-.94.48-1.52.87-2.71,1.83-1.12.9-1.76,1.5-2.39,2.27-.49.57-1.18,1.47-1.55,2.03-.38.55-1.04,1.72-1.51,2.61-.46.89-1.11,2.38-1.45,3.32-.34.93-.81,2.42-1.05,3.32-.23.91-.61,2.91-.83,4.46-.24,1.56-.47,3.77-.53,4.95-.05,1.17-.12,3.23-.13,4.57-.02,1.35.02,4.96.08,8.02.06,3.06.08,6.26.06,7.09-.03.84-.18,2.54-.34,3.77-.18,1.23-.48,2.91-.69,3.73-.21.81-.59,2.05-.84,2.76-.26.7-.78,1.9-1.15,2.66-.38.75-1.12,1.99-1.64,2.74-.52.76-1.44,1.88-2.04,2.52-.93.98-1.37,1.34-2.91,2.42-1.27.9-2.14,1.42-2.97,1.8-.64.29-1.87.77-2.74,1.06-.87.29-2.57.69-3.8.9-1.23.21-2.79.43-3.48.49-.69.06-2.17.1-3.3.09-1.13,0-2.76-.06-3.62-.12-.86-.06-2.42-.19-3.44-.3-1.02-.1-4.39-.51-7.48-.89-3.09-.38-6.54-.79-7.66-.91-1.12-.12-2.97-.28-4.11-.36-1.14-.08-2.82-.16-3.75-.19-.92-.02-2.53-.01-3.58.04-1.05.04-2.61.16-3.48.27-.88.11-2.24.34-3.05.53-.81.2-1.97.54-2.57.77-.61.22-1.54.63-2.07.9-.54.26-1.54.92-2.26,1.45-.89.66-1.55,1.25-2.15,1.93-.49.54-1.2,1.47-1.56,2.07-.38.59-.86,1.52-1.08,2.03-.21.52-.56,1.42-.75,2-.23.7-.34,1.43-.34,2.2-.01.62.05,1.65.12,2.29.08.63.26,1.59.4,2.13.13.55.5,1.62.81,2.37.37.87.89,1.86,1.43,2.7.48.74,1.29,1.84,1.86,2.5.55.64,1.55,1.65,2.22,2.27.66.61,1.86,1.59,2.67,2.2.81.6,2.24,1.59,3.18,2.18.94.6,2.54,1.56,3.56,2.13,1.01.58,4.43,2.35,7.58,3.92,3.15,1.57,6.64,3.35,7.76,3.94,1.12.59,2.8,1.52,3.74,2.07.94.55,2.65,1.64,3.79,2.43,1.13.8,2.59,1.93,3.25,2.51.66.59,1.83,1.76,2.6,2.61,1.03,1.13,1.79,2.09,2.85,3.6.99,1.41,1.67,2.49,2.14,3.42.37.75.93,1.97,1.22,2.69.29.73.7,1.91.91,2.61.21.71.51,2.03.67,2.95.16.91.34,2.13.37,2.71s.05,1.62.04,2.32c-.01.7-.11,1.9-.22,2.67-.1.77-.35,1.99-.56,2.71-.2.73-.59,1.95-.87,2.72-.28.78-.84,2.12-1.23,2.97-.4.86-1.21,2.46-1.83,3.54-.61,1.1-1.91,3.29-2.87,4.88-.98,1.59-2.12,3.51-2.55,4.26-.43.76-1.03,1.84-1.35,2.4-.31.58-.84,1.66-1.19,2.41-.34.76-.87,2.07-1.18,2.94s-.68,2.2-.82,2.98c-.13.79-.25,1.85-.25,2.36,0,.52.06,1.35.15,1.85.09.5.29,1.3.46,1.77.19.5.58,1.29.97,1.87.44.68.9,1.23,1.42,1.69.41.38,1.19.96,1.72,1.3.53.34,1.54.81,2.24,1.07.79.29,2.01.57,3.24.74,1.56.22,2.46.25,4.51.14,1.4-.07,3.59-.32,4.85-.54,1.26-.23,3.41-.71,4.77-1.08,1.36-.37,4.29-1.23,6.5-1.91,2.2-.69,4.98-1.51,6.17-1.82,1.19-.32,2.89-.73,3.79-.91.9-.18,2.42-.41,3.38-.51.96-.1,2.45-.19,3.31-.19s2.18.07,2.93.16c.74.09,1.89.29,2.54.44.65.16,1.7.47,2.33.69.62.23,1.69.71,2.36,1.06.68.36,1.63.92,2.1,1.26.47.34,1.28.98,1.78,1.42.6.53,1.36,1.37,2.22,2.43.83,1.03,1.54,2.04,1.96,2.78.37.64.96,1.86,1.31,2.71.35.85.83,2.21,1.03,3,.21.79.46,2.01.56,2.72.1.71.24,2.36.3,3.69.07,1.33.06,3.37.01,4.54-.07,1.17-.33,3.51-.57,5.21-.24,1.7-.79,5.21-1.22,7.82-.43,2.6-.86,5.52-.96,6.5-.09.98-.19,2.5-.22,3.38-.03.89,0,2.31.05,3.18.05.87.2,2.23.34,3.04.14.8.39,1.98.57,2.64.18.65.54,1.69.79,2.31.25.63.82,1.76,1.27,2.5.63,1.04,1.05,1.6,1.79,2.43.54.58,1.41,1.43,1.94,1.85.52.43,1.37,1.04,1.86,1.36.5.32,1.45.79,2.11,1.06.65.27,1.71.61,2.35.76.63.14,1.73.3,2.45.32.72.02,1.8-.02,2.4-.13.62-.1,1.48-.29,1.93-.44.45-.15,1.19-.45,1.63-.65.44-.21,1.34-.71,1.97-1.14.68-.46,1.6-1.18,2.22-1.76.59-.53,1.54-1.57,2.13-2.3s1.45-1.93,1.92-2.69c.47-.76,1.31-2.29,1.86-3.4.54-1.13,1.78-3.96,2.76-6.3.96-2.35,2.3-5.35,2.95-6.67.65-1.32,1.52-2.91,1.93-3.52.41-.6,1.04-1.51,1.41-2.01.37-.49,1.03-1.3,1.44-1.79.43-.49,1.31-1.4,1.96-2.01.66-.62,1.56-1.4,2.04-1.75.47-.35,1.3-.89,1.84-1.21.55-.32,1.36-.75,1.8-.95.44-.2,1.26-.53,1.81-.72.56-.18,1.52-.44,2.16-.57.64-.13,1.66-.28,2.27-.33.61-.05,1.73-.06,2.49-.02.77.04,2.04.22,2.86.38.81.18,2.1.55,2.89.83.79.28,2,.79,2.69,1.13.7.34,1.79.94,2.42,1.33.64.39,1.63,1.06,2.22,1.48.58.43,1.55,1.2,2.13,1.7.6.51,1.5,1.34,2.02,1.87.53.52,2.11,2.2,3.51,3.74,1.41,1.54,3.05,3.31,3.66,3.94.6.64,1.71,1.71,2.47,2.39.76.69,1.85,1.57,2.41,1.97.56.4,1.76,1.1,2.65,1.55.89.46,2.19,1,2.91,1.21.71.21,2.03.47,2.92.57.9.11,2.24.17,2.99.14.74-.04,1.77-.11,2.28-.18.51-.07,1.59-.29,2.38-.49.79-.2,2.01-.57,2.68-.82.67-.26,1.48-.59,1.81-.74.32-.14,1.09-.53,1.71-.87.62-.33,1.77-1.05,2.56-1.61.79-.56,1.59-1.15,1.77-1.32.18-.16.72-.68,1.2-1.13Z"/></svg>