<svg width="280" height="305" viewBox="0 0 280 305" fill="none" xmlns="http://www.w3.org/2000/svg">
<path fill-rule="evenodd" clip-rule="evenodd" d="M370.331 187.291C370.1 188.343 369.648 189.98 369.344 190.914C369.025 191.844 368.414 193.444 367.992 194.451C367.571 195.458 366.737 197.222 366.132 198.371C365.542 199.522 364.533 201.246 363.922 202.208C363.294 203.167 362.235 204.677 361.558 205.557C360.886 206.421 359.831 207.698 359.2 208.388C358.584 209.081 357.613 210.076 357.067 210.618C356.508 211.14 355.383 212.149 354.569 212.829C353.755 213.509 351.769 214.902 350.141 215.91C347.901 217.31 346.719 217.92 345.176 218.496C344.058 218.903 342.289 219.442 341.212 219.675C340.135 219.907 338.118 220.22 336.7 220.339C335.297 220.461 333.051 220.536 331.721 220.491C330.387 220.462 328.531 220.377 327.58 220.288C326.625 220.214 323.357 219.864 320.306 219.514C317.258 219.149 313.839 218.797 312.699 218.73C311.563 218.647 309.845 218.611 308.872 218.617C307.899 218.622 306.337 218.707 305.393 218.804C304.449 218.9 303.123 219.124 302.433 219.28C301.742 219.436 300.529 219.821 299.722 220.117C298.915 220.413 297.728 220.972 297.085 221.357C296.147 221.924 295.635 222.39 294.577 223.683C293.849 224.568 293.023 225.731 292.745 226.269C292.468 226.807 292.006 228.056 291.723 229.045C291.342 230.38 291.173 231.312 291.091 232.584C291.018 233.538 291.058 235.358 291.163 236.623C291.289 238.01 291.659 240.209 292.113 242.126C292.521 243.882 293.54 247.524 294.4 250.207C295.26 252.89 296.291 256.267 296.707 257.705C297.106 259.14 297.609 261.136 297.805 262.154C297.985 263.168 298.256 265.076 298.381 266.396C298.506 267.716 298.609 269.701 298.6 270.805C298.607 271.913 298.547 273.592 298.458 274.543C298.384 275.497 298.139 277.25 297.91 278.436C297.678 279.706 297.243 281.414 296.859 282.547C296.506 283.62 295.84 285.307 295.372 286.303C294.918 287.303 294.182 288.722 293.745 289.44C293.292 290.155 292.486 291.373 291.927 292.113C291.367 292.853 290.433 293.974 289.848 294.607C289.264 295.24 288.041 296.377 287.122 297.15C286.203 297.922 284.651 299.032 283.69 299.627C282.726 300.238 281.087 301.076 280.061 301.522C279.035 301.967 277.634 302.509 276.932 302.713C276.231 302.917 274.875 303.268 273.904 303.475C272.934 303.683 271.319 303.923 270.292 304.016C269.281 304.113 267.544 304.157 266.432 304.113C265.3 304.082 263.621 303.955 262.674 303.849C261.6 303.714 259.795 303.339 257.809 302.805C255.82 302.286 253.873 301.661 252.513 301.106C251.331 300.643 249.83 299.972 249.173 299.633C248.516 299.293 247.451 298.691 246.805 298.304C246.159 297.917 245.244 297.317 244.769 296.987C244.297 296.641 243.238 295.805 242.397 295.105C241.573 294.408 240.399 293.344 239.789 292.731C239.167 292.099 238.163 291.024 237.544 290.309C236.921 289.609 235.758 288.145 234.956 287.068C234.15 286.007 232.588 283.745 231.493 282.063C230.397 280.381 227.937 276.382 226.013 273.164C224.106 269.95 221.772 266.199 220.839 264.823C219.906 263.447 218.479 261.536 217.655 260.554C216.846 259.576 215.657 258.29 215.048 257.678C214.418 257.077 213.285 256.123 212.55 255.548C211.81 254.988 210.561 254.175 209.787 253.758C208.926 253.287 207.733 252.805 206.732 252.502C205.727 252.216 204.624 251.99 203.931 251.944C203.289 251.893 202.194 251.921 201.494 251.974C200.791 252.043 199.56 252.29 198.768 252.522C197.72 252.845 196.714 253.346 195.161 254.321C193.828 255.147 192.465 256.167 191.645 256.947C190.895 257.642 189.472 259.201 188.472 260.39C187.471 261.579 186.029 263.435 185.261 264.495C184.492 265.554 182.657 268.223 181.188 270.408C179.703 272.589 177.682 275.55 176.677 276.973C175.672 278.395 173.827 280.827 172.574 282.376C171.321 283.925 169.706 285.807 168.976 286.557C168.262 287.311 167.037 288.531 166.244 289.266C165.451 290.002 164.028 291.209 163.081 291.958C162.137 292.691 160.57 293.797 159.589 294.404C158.612 294.996 157.014 295.877 156.032 296.349C155.049 296.822 153.504 297.481 152.586 297.818C151.673 298.139 150.137 298.616 149.159 298.855C148.177 299.11 146.575 299.37 145.583 299.455C144.591 299.54 143.223 299.586 142.546 299.544C141.817 299.507 140.287 299.247 138.846 298.892C136.976 298.435 136.026 298.127 134.88 297.589C134.051 297.193 132.844 296.557 132.201 296.155C131.555 295.768 130.292 294.867 129.408 294.14C128.52 293.428 127.274 292.313 126.644 291.645C126.01 290.993 124.988 289.781 124.344 288.959C123.7 288.137 122.832 286.843 122.374 286.081C121.932 285.324 121.286 284.082 120.928 283.328C120.581 282.592 119.892 280.821 119.402 279.415C118.896 278.006 118.237 275.823 117.919 274.541C117.6 273.259 117.145 271.208 116.922 269.949C116.683 268.686 116.232 265.831 115.905 263.591C115.577 261.352 115.138 258.45 114.906 257.155C114.691 255.864 114.225 253.643 113.873 252.219C113.537 250.799 112.94 248.781 112.553 247.718C112.167 246.655 111.548 245.152 111.178 244.378C110.807 243.603 110.118 242.402 109.646 241.704C109.173 241.006 108.283 239.875 107.657 239.191C107.03 238.507 105.896 237.419 105.123 236.785C104.351 236.15 103.092 235.234 102.326 234.786C101.564 234.321 100.329 233.662 99.5725 233.316C98.5135 232.832 97.4965 232.526 95.0357 231.947C92.476 231.361 91.4767 231.193 89.8732 231.101C88.7805 231.045 86.937 231.046 85.7705 231.09C84.604 231.134 82.6596 231.28 81.4194 231.424C80.1791 231.568 77.9564 231.899 76.4724 232.154C74.9846 232.424 71.4544 233.185 68.6114 233.873C65.7723 234.546 60.7804 235.751 57.5078 236.557C54.2391 237.346 50.3343 238.204 48.8503 238.458C47.3662 238.712 45.0996 239.016 43.8313 239.137C42.5631 239.258 40.274 239.372 38.7471 239.382C37.2202 239.391 35.0871 239.342 33.9982 239.27C32.9092 239.198 30.9201 238.964 29.5958 238.753C28.1053 238.537 26.2562 238.135 24.8143 237.712C23.5078 237.354 21.5999 236.704 20.5418 236.287C19.4838 235.871 17.9233 235.168 17.0586 234.713C16.1901 234.274 14.8901 233.532 14.172 233.095C13.4576 232.642 12.0429 231.605 11.0306 230.78C10.0184 229.956 8.69613 228.739 8.06581 228.071C7.43926 227.388 6.498 226.261 5.97416 225.568C5.45032 224.875 4.69492 223.742 4.30184 223.062C3.90873 222.383 3.35596 221.315 3.0824 220.697C2.79298 220.076 2.33738 218.879 2.03677 218.021C1.75203 217.166 1.33101 215.609 1.09863 214.532C0.88207 213.458 0.613329 211.752 0.539659 210.713C0.450155 209.669 0.419536 208.02 0.457026 207.006C0.49363 205.64 0.673998 204.375 1.18702 201.982C1.58323 200.014 2.06815 198.167 2.42222 197.161C2.75013 196.266 3.38171 194.722 3.85065 193.726C4.30373 192.726 5.1014 191.188 5.63106 190.29C6.1448 189.388 7.00419 188.015 7.54318 187.22C8.06624 186.421 9.28239 184.814 10.208 183.657C11.1533 182.489 12.4927 180.927 13.2222 180.176C13.9358 179.423 15.2005 178.178 16.0206 177.399C16.8565 176.624 18.2323 175.406 19.1046 174.689C19.977 173.973 21.2332 172.978 21.8833 172.494C22.5492 172.014 24.2145 170.847 25.5866 169.929C26.9586 169.012 30.9495 166.364 34.4427 164.052C37.9516 161.744 41.8445 159.157 43.1184 158.301C44.3924 157.444 46.2146 156.18 47.1822 155.486C48.1498 154.792 49.7666 153.546 50.7482 152.722C51.7457 151.9 53.1328 150.635 53.8193 149.925C54.5058 149.215 55.4987 148.057 56.0348 147.345C56.5551 146.63 57.365 145.396 57.8087 144.578C58.5578 143.246 58.6989 142.86 59.2035 140.716C59.6744 138.715 59.7492 138.113 59.6979 136.978C59.656 136.231 59.4638 134.911 59.2696 134.028C59.0755 133.144 58.6125 131.694 58.2437 130.769C57.8871 129.864 56.8394 127.908 55.9449 126.44C55.0467 124.989 53.5854 122.868 52.6955 121.737C51.8019 120.622 49.2321 117.587 46.9892 115.014C44.7341 112.422 42.0719 109.281 41.0653 108.005C40.0746 106.733 38.491 104.634 37.5834 103.364C36.6599 102.091 34.9502 99.4592 33.7803 97.5246C32.6103 95.5899 31.1089 92.8566 30.4329 91.4572C29.7729 90.0615 28.7916 87.7523 28.2697 86.3389C27.7478 84.9255 27.0878 82.96 26.8012 81.9707C26.5146 80.9815 26.0983 79.1907 25.864 77.979C25.6456 76.7712 25.3666 74.8954 25.2687 73.8164C25.1708 72.7374 25.0944 71.211 25.0795 70.4198C25.0806 69.6323 25.1106 68.3655 25.1593 67.5892C25.2079 66.813 25.3687 65.2753 25.5155 64.1534C25.6772 62.9679 26.0566 61.2135 26.4107 59.9225C26.7462 58.7109 27.2899 57.1125 27.6196 56.3521C27.9494 55.5917 28.6033 54.2371 29.0816 53.344C29.5599 52.451 30.5276 50.9021 31.2141 49.9072C31.9165 48.916 33.0757 47.4793 33.7968 46.6936C34.4982 45.9201 35.6536 44.7841 36.3532 44.161C37.049 43.5538 38.3053 42.5589 39.1356 41.9498C39.9659 41.3407 41.5154 40.3813 42.5717 39.8086C43.628 39.236 45.3222 38.4447 46.3337 38.0626C47.3489 37.6647 48.9441 37.1518 49.8743 36.9014C50.8045 36.651 52.4734 36.3231 53.5671 36.1615C54.6569 36.0157 56.5892 35.8504 57.8351 35.8251C59.0809 35.7999 61.0001 35.8325 62.089 35.9045C63.178 35.9764 64.7348 36.1249 65.5351 36.2127C66.3355 36.3005 68.4171 36.6395 70.1383 36.9441C72.2003 37.2953 76.1096 38.1986 81.5083 39.5362C87.1415 40.9458 90.737 41.7585 92.8746 42.1442C94.5995 42.4329 96.867 42.7654 97.8934 42.8896C98.9235 42.998 100.555 43.1138 101.521 43.1399C102.486 43.1661 104.155 43.1231 105.234 43.025C106.309 42.9427 107.963 42.6784 108.886 42.4598C109.808 42.2411 111.16 41.8385 111.86 41.5676C112.561 41.2966 113.838 40.709 114.659 40.2821C115.5 39.843 116.904 38.9331 117.797 38.2717C118.674 37.6066 120.156 36.3632 121.058 35.5196C121.96 34.6761 123.551 32.9721 124.594 31.7427C125.638 30.5133 127.142 28.6048 127.954 27.5053C128.766 26.4058 130.031 24.5916 130.779 23.4771C131.527 22.3626 132.831 20.5241 133.686 19.3845C134.556 18.2485 135.996 16.4754 136.923 15.4534C137.835 14.4277 139.16 12.9965 139.862 12.2903C140.581 11.5878 141.968 10.322 142.965 9.50081C143.947 8.67592 145.65 7.41757 146.721 6.71413C147.807 6.01442 149.498 5.02135 150.488 4.51689C151.475 4.0283 153.248 3.25572 154.405 2.82412C155.563 2.39252 157.316 1.84976 158.297 1.59471C159.275 1.35555 160.739 1.0463 161.556 0.920174C162.373 0.794048 163.771 0.620271 164.66 0.544592C165.549 0.468912 167.071 0.40817 168.041 0.418432C169.014 0.412813 170.657 0.480978 171.694 0.557567C173.025 0.669647 174.552 0.945208 176.838 1.48325C179.204 2.03998 180.586 2.43231 181.855 2.94889C182.818 3.34309 184.151 3.94187 184.812 4.26508C185.474 4.58829 186.909 5.39539 187.99 6.06891C189.075 6.72655 190.698 7.87929 191.578 8.62288C192.459 9.36646 193.673 10.4735 194.267 11.0825C194.86 11.6916 195.926 12.9312 196.638 13.8196C197.347 14.7239 198.558 16.4838 199.339 17.7234C200.1 18.9752 201.227 20.95 201.812 22.0934C202.413 23.2406 203.753 26.0197 204.805 28.2449C205.856 30.4701 207.212 33.2529 207.813 34.4001C208.398 35.5435 209.444 37.3651 210.112 38.4441C210.783 39.5072 211.852 41.0158 212.508 41.7902C213.163 42.5647 214.083 43.5689 214.576 44.0369C215.073 44.489 215.985 45.2401 216.616 45.6903C217.244 46.1565 218.297 46.8066 218.955 47.1457C219.608 47.5007 220.874 48.0332 221.772 48.3452C222.671 48.6572 224.041 49.0299 224.849 49.1532C225.654 49.2924 227.056 49.3876 227.978 49.3867C228.9 49.3857 230.283 49.2755 231.045 49.1699C231.807 49.0643 233.109 48.8009 233.948 48.5795C234.784 48.3739 236.305 47.8937 237.332 47.5154C238.363 47.1212 240.113 46.3766 241.242 45.8544C242.358 45.3125 244.201 44.3886 245.312 43.7954C246.427 43.1863 248.579 42.0167 250.114 41.1881C251.63 40.3716 253.837 39.1814 254.995 38.5321C256.15 37.8988 257.694 37.1056 258.429 36.759C259.16 36.4283 260.379 35.8772 261.138 35.5698C261.901 35.2466 263.353 34.7 264.354 34.3656C265.358 34.0153 267.387 33.437 268.846 33.0764C270.321 32.7195 272.609 32.2524 273.947 32.0478C275.282 31.8591 277.324 31.6526 278.494 31.5928C279.665 31.533 281.512 31.5152 282.608 31.5553C283.705 31.5955 285.308 31.688 286.16 31.7711C287.012 31.8542 289.142 32.2718 290.888 32.6828C293.127 33.2096 294.584 33.6365 295.822 34.1456C296.785 34.5398 298.357 35.2619 299.298 35.7514C300.234 36.2568 301.658 37.1115 302.453 37.6505C303.244 38.2054 304.451 39.1265 305.148 39.7262C305.848 40.31 306.983 41.3983 307.681 42.1326C308.38 42.8668 309.353 44.0009 309.853 44.6548C310.348 45.3246 311.123 46.4456 311.576 47.1555C312.045 47.8692 312.722 49.0509 313.068 49.7861C313.431 50.5251 313.95 51.7367 314.241 52.4924C314.532 53.2481 314.96 54.7064 315.203 55.7358C315.447 56.7653 315.733 58.2571 315.843 59.0708C315.953 59.8845 316.054 61.4501 316.077 62.5618C316.1 63.6734 316.029 65.3998 315.931 66.3825C315.85 67.369 315.62 69.058 315.421 70.1174C315.227 71.2281 314.773 73.0152 314.351 74.3071C313.957 75.5552 313.305 77.3292 312.906 78.2409C312.507 79.1527 311.777 80.6903 311.287 81.631C310.798 82.5718 310.049 83.9039 309.619 84.5905C309.189 85.2771 308.472 86.3318 308.045 86.9353C307.614 87.5547 306.537 88.927 305.654 89.9761C304.766 91.041 303.333 92.6478 302.451 93.5465C301.569 94.4452 299.941 96.023 298.812 97.0478C297.699 98.0764 295.067 100.357 292.975 102.127C290.867 103.894 288.694 105.796 288.112 106.346C287.546 106.9 286.502 108.062 285.817 108.906C285.132 109.751 284.295 111.029 283.929 111.73C283.579 112.436 283.167 113.545 283.006 114.228C282.831 114.975 282.74 115.859 282.787 116.44C282.827 116.985 283.037 117.873 283.274 118.431C283.511 118.99 284.005 119.81 284.359 120.229C284.725 120.667 285.422 121.334 285.93 121.738C286.438 122.143 287.52 122.816 288.341 123.244C289.221 123.703 290.753 124.314 292.092 124.747C293.805 125.301 294.948 125.57 296.775 125.849C298.115 126.064 302.356 126.626 306.193 127.127C310.033 127.612 314.904 128.272 316.993 128.58C319.082 128.887 322.215 129.389 323.936 129.694C325.653 130.014 328.323 130.559 329.847 130.918C331.371 131.276 333.782 131.927 335.208 132.347C336.63 132.782 338.653 133.442 339.718 133.827C340.78 134.228 342.435 134.886 343.394 135.296C344.353 135.706 346.082 136.548 347.233 137.138C348.385 137.727 350.187 138.755 351.221 139.417C352.258 140.064 353.932 141.279 354.948 142.088C355.964 142.897 357.366 144.132 358.072 144.834C358.778 145.537 360.043 146.924 360.868 147.906C361.689 148.904 363.08 150.823 363.949 152.184C364.818 153.545 365.949 155.504 366.458 156.546C366.967 157.588 367.616 159.031 367.902 159.735C368.205 160.443 368.687 161.814 369.016 162.763C369.33 163.708 369.817 165.482 370.115 166.709C370.397 167.932 370.771 169.83 370.933 170.924C371.078 172.014 371.261 173.8 371.327 174.871C371.393 175.943 371.418 177.759 371.383 178.907C371.347 180.055 371.224 181.719 371.113 182.615C371.003 183.511 370.87 184.502 370.831 184.811C370.792 185.12 370.578 186.243 370.331 187.291Z" fill="#02AF85"/>
</svg>
