<svg width="119" height="275" viewBox="0 0 119 275" fill="none" xmlns="http://www.w3.org/2000/svg">
<path fill-rule="evenodd" clip-rule="evenodd" d="M83.6497 250.958C82.9914 251.464 81.9122 252.205 81.2694 252.606C80.619 252.996 79.4647 253.637 78.7163 254.022C77.9678 254.407 76.5997 255.035 75.6726 255.412C74.7531 255.799 73.3023 256.315 72.4637 256.579C71.6176 256.833 70.2428 257.199 69.4069 257.383C68.5812 257.559 67.3251 257.789 66.6103 257.883C65.903 257.986 64.836 258.091 64.2446 258.14C63.6558 258.171 62.4909 258.207 61.6733 258.205C60.8557 258.202 58.992 258.038 57.5311 257.825C55.5144 257.54 54.5138 257.313 53.3177 256.887C52.4559 256.572 51.1445 256.013 50.3936 255.615C49.6426 255.218 48.2969 254.402 47.4008 253.768C46.5123 253.144 45.1498 252.073 44.3872 251.386C43.6146 250.707 42.5612 249.736 42.0446 249.211C41.518 248.694 39.763 246.865 38.1359 245.144C36.5189 243.416 34.6761 241.512 34.0366 240.906C33.4071 240.293 32.4112 239.419 31.8342 238.94C31.2571 238.46 30.2934 237.735 29.6885 237.323C29.0835 236.912 28.1897 236.386 27.7049 236.135C27.2202 235.885 26.3133 235.51 25.6901 235.284C25.0669 235.058 24.0891 234.799 23.5184 234.706C22.6836 234.576 22.1502 234.597 20.8839 234.834C20.0155 234.995 18.9504 235.271 18.5196 235.451C18.0888 235.631 17.1966 236.139 16.5385 236.582C15.651 237.181 15.0884 237.647 14.4094 238.357C13.8919 238.884 13.0128 239.978 12.4467 240.776C11.8325 241.657 10.9596 243.139 10.2759 244.495C9.64545 245.733 8.43921 248.389 7.61499 250.399C6.79077 252.409 5.72341 254.913 5.25454 255.969C4.77813 257.014 4.08412 258.44 3.6944 259.139C3.29716 259.827 2.51063 261.087 1.92924 261.928C1.34785 262.769 0.42307 263.991 -0.130009 264.639C-0.675573 265.296 -1.54416 266.257 -2.06913 266.774C-2.58659 267.3 -3.60092 268.213 -4.32488 268.799C-5.09174 269.434 -6.19627 270.225 -6.98528 270.703C-7.72641 271.161 -8.95628 271.827 -9.72727 272.182C-10.4907 272.547 -11.6294 273.019 -12.2439 273.226C-12.866 273.423 -13.9463 273.741 -14.6437 273.9C-15.3411 274.059 -16.4487 274.257 -17.1081 274.341C-17.7675 274.424 -19.0532 274.488 -19.979 274.488C-20.9048 274.488 -22.3712 274.373 -23.2337 274.247C-24.1062 274.129 -25.4888 273.81 -26.3157 273.564C-27.1426 273.317 -28.2382 272.942 -28.7532 272.714C-29.2682 272.486 -30.2428 272.02 -30.9184 271.661C-31.5939 271.301 -32.666 270.642 -33.3186 270.187C-33.9637 269.742 -35.01 268.907 -35.6446 268.329C-36.2968 267.748 -37.2247 266.84 -37.7311 266.307C-38.2976 265.694 -39.177 264.577 -40.0834 263.277C-41 261.983 -41.8384 260.648 -42.3659 259.645C-42.8335 258.786 -43.3858 257.645 -43.6054 257.118C-43.8251 256.592 -44.1543 255.708 -44.3437 255.159C-44.533 254.61 -44.7744 253.802 -44.8912 253.371C-44.998 252.933 -45.2085 251.914 -45.3567 251.083C-45.4974 250.263 -45.662 249.052 -45.7177 248.388C-45.7708 247.706 -45.83 246.574 -45.8401 245.844C-45.8604 245.122 -45.8205 243.681 -45.7592 242.647C-45.708 241.621 -45.5074 239.511 -45.3187 237.975C-45.13 236.438 -44.5975 232.858 -44.1353 230.004C-43.6655 227.16 -43.1815 223.788 -43.049 222.513C-42.9165 221.238 -42.8099 219.402 -42.8091 218.414C-42.8009 217.435 -42.8644 216.087 -42.9201 215.423C-42.9933 214.756 -43.1884 213.631 -43.337 212.926C-43.4958 212.229 -43.8293 211.128 -44.0788 210.499C-44.3532 209.793 -44.8182 208.917 -45.2588 208.241C-45.7094 207.573 -46.2481 206.892 -46.6343 206.521C-46.9879 206.173 -47.6478 205.646 -48.087 205.33C-48.5363 205.022 -49.3851 204.556 -49.9679 204.3C-50.7467 203.971 -51.5889 203.767 -52.9895 203.572C-54.1864 203.397 -55.4969 203.323 -56.3675 203.376C-57.1551 203.414 -58.7684 203.628 -59.949 203.833C-61.1295 204.038 -62.9019 204.418 -63.8813 204.661C-64.8607 204.905 -67.268 205.569 -69.2195 206.13C-71.1786 206.68 -73.8402 207.424 -75.1395 207.765C-76.4388 208.105 -78.7348 208.624 -80.2427 208.917C-81.7506 209.209 -83.6385 209.518 -84.4413 209.598C-85.2365 209.689 -86.5652 209.801 -87.3981 209.841C-88.2309 209.881 -89.67 209.887 -90.6007 209.859C-91.5214 209.824 -92.9952 209.699 -93.8753 209.57C-94.7453 209.434 -96.1256 209.161 -96.94 208.952C-97.7544 208.743 -98.9934 208.365 -99.702 208.109C-100.401 207.845 -101.544 207.364 -102.239 207.019C-102.945 206.683 -104.02 206.041 -104.647 205.599C-105.275 205.156 -106.105 204.505 -106.484 204.144C-106.895 203.761 -107.67 202.848 -108.344 201.922C-109.22 200.725 -109.628 200.072 -110.038 199.185C-110.33 198.541 -110.727 197.566 -110.906 197.009C-111.095 196.46 -111.394 195.302 -111.554 194.434C-111.725 193.573 -111.907 192.297 -111.947 191.59C-111.998 190.891 -111.999 189.668 -111.971 188.863C-111.943 188.059 -111.814 186.864 -111.706 186.188C-111.59 185.521 -111.355 184.468 -111.192 183.845C-111.032 183.239 -110.559 181.852 -110.151 180.779C-109.75 179.696 -109.055 178.08 -108.607 177.166C-108.159 176.252 -107.409 174.815 -106.916 173.961C-106.43 173.097 -105.279 171.189 -104.361 169.705C-103.443 168.221 -102.262 166.29 -101.756 165.411C-101.242 164.542 -100.414 163 -99.9154 161.986C-99.4089 160.981 -98.76 159.494 -98.4604 158.674C-98.1609 157.855 -97.7796 156.662 -97.614 156.021C-97.4484 155.38 -97.2587 154.329 -97.1912 153.682C-97.1237 153.036 -97.0873 151.927 -97.1177 151.212C-97.148 150.498 -97.2774 149.292 -97.4183 148.535C-97.5592 147.777 -97.8472 146.612 -98.0766 145.967C-98.2958 145.315 -98.6976 144.313 -98.9724 143.733C-99.3572 142.922 -99.8052 142.236 -100.97 140.673C-102.19 139.057 -102.696 138.462 -103.596 137.612C-104.213 137.036 -105.302 136.122 -106.012 135.569C-106.723 135.016 -107.942 134.137 -108.746 133.607C-109.549 133.076 -111.025 132.168 -112.027 131.582C-113.039 131.003 -115.5 129.7 -117.52 128.695C-119.529 127.683 -123.073 125.916 -125.404 124.767C-127.724 123.611 -130.454 122.179 -131.456 121.592C-132.458 121.006 -133.947 120.06 -134.755 119.502C-135.563 118.944 -136.971 117.876 -137.877 117.123C-138.783 116.371 -140.017 115.283 -140.624 114.7C-141.231 114.117 -142.289 112.992 -142.965 112.21C-143.737 111.343 -144.629 110.188 -145.27 109.222C-145.863 108.363 -146.667 107.032 -147.084 106.261C-147.502 105.49 -148.074 104.301 -148.358 103.604C-148.653 102.913 -149.052 101.83 -149.259 101.216C-149.455 100.594 -149.776 99.2801 -149.964 98.2909C-150.152 97.3017 -150.328 95.9277 -150.369 95.2208C-150.399 94.5062 -150.395 93.3743 -150.36 92.7052C-150.326 92.0362 -150.209 90.9926 -150.104 90.3967C-149.999 89.8009 -149.794 88.8959 -149.649 88.3957C-149.512 87.8854 -149.187 86.9531 -148.938 86.2973C-148.682 85.6516 -148.157 84.5237 -147.76 83.7727C-147.355 83.0319 -146.667 81.8918 -146.194 81.2417C-145.729 80.5815 -144.929 79.5928 -144.403 79.0133C-143.704 78.2255 -142.97 77.5686 -141.479 76.4109C-140.268 75.446 -139.066 74.5968 -138.357 74.1788C-137.72 73.8135 -136.58 73.2157 -135.809 72.8608C-135.046 72.4958 -133.812 71.9838 -133.053 71.7169C-132.303 71.4399 -131.114 71.056 -130.402 70.8544C-129.696 70.6427 -128.181 70.2976 -127.061 70.0745C-125.923 69.854 -124.357 69.5971 -123.554 69.5165C-122.759 69.4258 -121.395 69.3192 -120.524 69.2664C-119.646 69.2238 -118.23 69.1878 -117.359 69.1979C-116.489 69.208 -115.254 69.2444 -114.63 69.2815C-113.999 69.3287 -112.437 69.4667 -111.172 69.6063C-109.907 69.7459 -106.238 70.1644 -103.029 70.5337C-99.8125 70.9131 -96.2314 71.3187 -95.0544 71.4455C-93.8775 71.5723 -92.1748 71.7308 -91.2593 71.8015C-90.3438 71.8721 -88.7717 71.9397 -87.783 71.9401C-86.7868 71.9507 -85.34 71.8921 -84.5825 71.8139C-83.825 71.7356 -82.6646 71.5454 -81.9949 71.3914C-81.3327 71.2274 -80.2424 70.9011 -79.5748 70.639C-78.4715 70.2247 -78.1968 70.067 -76.835 69.0523C-75.5639 68.1052 -75.2207 67.7868 -74.6876 67.0915C-74.3414 66.6297 -73.8002 65.7559 -73.4761 65.1381C-73.1521 64.5202 -72.7057 63.4348 -72.4644 62.7061C-72.2255 61.9949 -71.8729 60.3206 -71.6723 59.0105C-71.4819 57.7081 -71.2917 55.7314 -71.2554 54.6222C-71.2291 53.5204 -71.2392 50.454 -71.2859 47.8226C-71.33 45.1736 -71.3423 41.9989 -71.3029 40.7463C-71.2561 39.5038 -71.1488 37.4791 -71.0543 36.2794C-70.9673 35.0697 -70.6701 32.6683 -70.4003 30.9459C-70.1305 29.2236 -69.6598 26.8654 -69.3642 25.7041C-69.061 24.5529 -68.4939 22.7031 -68.1004 21.61C-67.7068 20.517 -67.1208 19.0295 -66.7989 18.3035C-66.4771 17.5774 -65.8339 16.314 -65.3708 15.4828C-64.9002 14.6616 -64.1338 13.4162 -63.6561 12.7308C-63.1783 12.0455 -62.4658 11.1069 -62.0818 10.6326C-61.6904 10.1684 -61.0439 9.43575 -60.6299 9.00182C-60.2159 8.56786 -59.3578 7.74028 -58.7144 7.15104C-58.0306 6.53173 -56.936 5.68477 -56.0862 5.09867C-55.2869 4.55014 -54.1727 3.87679 -53.6007 3.59173C-53.0287 3.30666 -51.9705 2.83187 -51.245 2.54222C-50.5195 2.2526 -49.1797 1.81888 -48.2808 1.57253C-47.3743 1.33627 -45.9772 1.06374 -45.1617 0.957997C-44.3639 0.849695 -43.1183 0.752784 -42.3962 0.732319C-41.6842 0.719347 -40.449 0.755734 -39.6568 0.808409C-38.8645 0.861085 -37.4739 1.06397 -36.5663 1.25033C-35.6588 1.43667 -34.2662 1.81061 -33.4797 2.08714C-32.6831 2.35618 -31.4872 2.84526 -30.814 3.1592C-30.1408 3.47313 -28.9932 4.10795 -28.2676 4.55536C-27.5521 5.01029 -26.3298 5.87176 -25.582 6.4752C-24.8343 7.07864 -23.718 8.05048 -23.1111 8.63337C-22.5042 9.21628 -21.6592 10.0766 -21.2305 10.5257C-20.8018 10.9747 -19.7417 12.208 -18.8771 13.2419C-17.8346 14.4726 -15.976 16.9459 -13.454 20.4148C-10.8294 24.0426 -9.11104 26.3067 -8.04104 27.5953C-7.1664 28.6217 -5.99337 29.9434 -5.44936 30.5261C-4.89527 31.1013 -3.98995 31.9794 -3.43307 32.4741C-2.87621 32.9688 -1.87003 33.7718 -1.18479 34.2493C-0.509643 34.7343 0.597628 35.3992 1.25065 35.7281C1.90367 36.0571 2.90101 36.4902 3.44883 36.678C3.99665 36.8658 5.04227 37.1532 5.73862 37.3087C6.45258 37.4668 7.73258 37.6266 8.58777 37.6795C9.43544 37.7223 10.9273 37.7242 11.8784 37.6742C12.8295 37.6242 14.6139 37.4082 15.8398 37.2005C17.0656 36.9929 18.9009 36.6135 19.9256 36.3675C20.9503 36.1215 22.5971 35.6787 23.5918 35.3924C24.5864 35.1061 26.2684 34.6683 27.3384 34.42C28.4159 34.1817 30.1454 33.8498 31.1999 33.707C32.247 33.5542 33.7395 33.3675 34.5045 33.2993C35.277 33.2413 36.7238 33.1827 37.72 33.1932C38.7087 33.1937 40.3385 33.2966 41.3193 33.4128C42.3076 33.539 43.7986 33.7925 44.6332 33.9861C45.4577 34.1873 46.8878 34.6117 47.7849 34.9313C48.682 35.251 49.9858 35.8008 50.6917 36.1374C51.3874 36.4816 52.4045 37.0255 52.9493 37.3567C53.4942 37.6878 54.4054 38.2792 54.9677 38.6758C55.5299 39.0724 56.4584 39.7921 57.0253 40.2793C57.6024 40.759 58.538 41.6146 59.1122 42.1747C59.8419 42.9014 60.6062 43.8218 61.6883 45.274C62.8079 46.7766 63.4288 47.6941 63.9213 48.6289C64.2938 49.3394 64.7836 50.3546 65.0133 50.8735C65.2431 51.3924 65.6895 52.5811 65.9933 53.5152C66.3073 54.4419 66.6924 55.9272 66.8429 56.8031C66.9935 57.6789 67.1605 58.9347 67.2086 59.5889C67.2568 60.2431 67.2703 61.5034 67.2498 62.3812C67.2192 63.2666 67.0604 64.9063 66.9057 66.0252C66.7335 67.1416 66.4184 68.8664 66.1964 69.8317C65.9818 70.8071 65.3931 73.1121 64.9091 74.947C64.4251 76.7819 63.8439 79.0969 63.6294 80.0723C63.4073 81.0376 63.1203 82.6316 62.9788 83.5997C62.8473 84.5603 62.7294 85.9812 62.7319 86.7635C62.7344 87.5459 62.7787 88.595 62.8374 89.1159C62.9061 89.6293 63.0718 90.5253 63.2208 91.1043C63.3598 91.6908 63.6587 92.5973 63.8783 93.1237C64.0879 93.6576 64.5704 94.5999 64.9456 95.2299C65.3209 95.8599 65.9444 96.7598 66.3605 97.234C66.7664 97.7157 67.5464 98.4676 68.0908 98.9246C68.6352 99.3815 69.5062 100.003 70.0083 100.319C70.5104 100.635 71.4094 101.126 72.0148 101.412C72.61 101.705 73.7456 102.176 74.5397 102.463C75.3438 102.742 76.7462 103.172 77.6712 103.423C78.5987 103.658 80.1447 104.027 81.095 104.228C82.0554 104.423 83.9057 104.8 85.2231 105.073C86.5229 105.344 88.4159 105.737 89.4216 105.929C90.4172 106.128 91.7219 106.426 92.3277 106.586C92.9234 106.754 93.9162 107.034 94.5168 107.229C95.1275 107.417 96.2558 107.816 97.0121 108.115C97.7784 108.406 99.263 109.072 100.303 109.584C101.35 110.105 102.932 110.965 103.824 111.508C104.705 112.059 106.013 112.951 106.733 113.497C107.453 114.042 108.552 114.949 109.179 115.517C109.806 116.084 110.707 116.935 111.168 117.407C111.629 117.878 112.679 119.182 113.506 120.291C114.565 121.713 115.214 122.689 115.691 123.603C116.064 124.314 116.633 125.521 116.945 126.276C117.247 127.039 117.663 128.25 117.865 128.963C118.056 129.683 118.311 130.826 118.425 131.525C118.548 132.218 118.678 133.423 118.726 134.203C118.773 134.983 118.785 136.135 118.755 136.769C118.715 137.41 118.616 138.456 118.531 139.1C118.453 139.754 118.266 140.787 118.106 141.393C117.953 142.009 117.658 142.981 117.454 143.572C117.251 144.163 116.78 145.235 116.413 145.964C116.045 146.692 115.474 147.714 115.135 148.249C114.796 148.784 114.078 149.758 113.54 150.425C113.002 151.093 112.103 152.076 111.558 152.608C111.02 153.15 110.046 154.032 109.403 154.559C108.737 155.117 107.582 155.947 106.692 156.5C105.84 157.041 104.575 157.764 103.887 158.104C103.199 158.444 102.005 158.989 101.249 159.301C100.493 159.613 99.3901 160.028 98.7957 160.22C98.2014 160.411 97.2545 160.678 96.7031 160.822C96.1416 160.974 94.825 161.249 93.7828 161.43C92.7306 161.618 91.0871 161.854 90.1207 161.947C89.1543 162.04 87.4105 162.163 86.2355 162.207C85.068 162.261 82.3836 162.301 80.2703 162.307C78.1495 162.304 75.9229 162.347 75.3064 162.383C74.6975 162.429 73.5044 162.597 72.6813 162.755C71.8581 162.914 70.7299 163.252 70.1656 163.485C69.6088 163.727 68.8149 164.177 68.3811 164.501C67.907 164.854 67.4149 165.33 67.1545 165.697C66.9069 166.038 66.5903 166.666 66.453 167.114C66.3157 167.561 66.2001 168.29 66.2012 168.713C66.1998 169.153 66.2804 169.893 66.3794 170.384C66.4784 170.874 66.7823 171.809 67.0543 172.468C67.3463 173.176 67.9464 174.297 68.522 175.217C69.2578 176.394 69.7988 177.12 70.7387 178.192C71.4229 178.984 73.6464 181.421 75.6619 183.62C77.6874 185.813 80.2342 188.62 81.3145 189.838C82.3948 191.056 83.9938 192.908 84.8583 193.942C85.7128 194.983 87.0181 196.63 87.7394 197.598C88.4608 198.566 89.56 200.146 90.1934 201.102C90.8166 202.064 91.6825 203.458 92.1203 204.214C92.548 204.978 93.1981 206.187 93.5605 206.905C93.923 207.623 94.5248 208.978 94.9117 209.897C95.2987 210.817 95.8522 212.318 96.1336 213.222C96.425 214.118 96.8098 215.666 97.0079 216.648C97.2059 217.63 97.4201 219.054 97.488 219.819C97.5559 220.584 97.6141 222.03 97.6134 223.019C97.6025 224.015 97.4708 225.839 97.3082 227.073C97.1457 228.308 96.8406 230.025 96.624 230.892C96.4073 231.76 96.0739 232.933 95.8934 233.491C95.7205 234.059 95.3246 235.107 95.048 235.831C94.7639 236.544 94.1709 237.833 93.7379 238.705C93.2973 239.566 92.576 240.872 92.1284 241.598C91.6732 242.313 90.8945 243.458 90.4018 244.123C89.909 244.788 89.0224 245.872 88.4316 246.532C87.8407 247.192 86.9421 248.112 86.4324 248.586C85.9226 249.06 85.3523 249.579 85.1757 249.742C84.9991 249.905 84.3155 250.462 83.6497 250.958ZM79.9928 240.681C80.4723 240.23 81.3054 239.326 81.8409 238.677C82.3663 238.034 83.084 237.06 83.4355 236.5C83.7845 235.958 84.2957 235.044 84.5869 234.466C84.8755 233.906 85.2658 233.019 85.4839 232.512C85.6843 232.002 85.9993 231.077 86.1799 230.456C86.3606 229.835 86.6365 228.563 86.8006 227.625C86.9546 226.695 87.1023 225.377 87.1473 224.701C87.1822 224.032 87.1908 222.928 87.1628 222.258C87.1449 221.582 87.0405 220.452 86.9547 219.747C86.869 219.043 86.6514 217.887 86.4927 217.19C86.334 216.493 85.9833 215.264 85.7217 214.471C85.4602 213.678 85.0037 212.497 84.7014 211.859C84.4091 211.214 83.9043 210.179 83.5617 209.572C83.2291 208.957 82.2831 207.435 81.457 206.2C80.5508 204.836 79.023 202.744 77.6101 200.911C76.3074 199.246 74.749 197.302 74.1324 196.601C73.5158 195.9 72.2249 194.462 71.2649 193.405C70.3048 192.349 68.4295 190.358 67.1133 188.971C65.787 187.591 63.9418 185.641 63.0268 184.644C62.1018 183.655 60.523 181.789 59.5234 180.511C58.3409 179.008 57.4293 177.743 56.9539 176.936C56.5512 176.248 55.9635 175.165 55.6612 174.527C55.3589 173.89 54.9298 172.767 54.6857 172.039C54.4516 171.304 54.1783 170.284 54.087 169.741C53.9856 169.205 53.8876 168.399 53.8639 167.946C53.8402 167.494 53.8863 166.503 53.9793 165.743C54.0724 164.984 54.315 163.878 54.5006 163.284C54.7038 162.694 55.0918 161.762 55.3703 161.209C55.6414 160.647 56.1296 159.828 56.438 159.379C56.7539 158.939 57.3046 158.247 57.6506 157.848C58.0041 157.459 58.7057 156.779 59.2077 156.358C59.7224 155.912 60.5848 155.301 61.2049 154.933C61.8123 154.59 62.7069 154.127 63.2032 153.93C63.6994 153.733 64.7119 153.386 65.4548 153.162C66.1977 152.938 67.3911 152.644 68.111 152.516C68.8235 152.377 70.0996 152.195 70.9476 152.112C71.7882 152.019 73.3105 151.935 74.322 151.903C75.3409 151.881 77.8039 151.881 79.8139 151.904C81.8239 151.928 84.322 151.933 85.3788 151.898C86.443 151.874 88.0308 151.773 88.9066 151.685C89.7824 151.597 91.2598 151.39 92.1811 151.237C93.1023 151.084 94.5576 150.721 95.4265 150.434C96.2879 150.137 97.5171 149.66 98.1546 149.358C98.7921 149.056 99.896 148.453 100.607 148.017C101.318 147.581 102.281 146.895 102.763 146.489C103.237 146.073 103.977 145.381 104.421 144.924C104.865 144.468 105.557 143.607 105.977 143.012C106.389 142.407 106.905 141.583 107.11 141.164C107.315 140.744 107.652 139.913 107.848 139.312C108.044 138.712 108.279 137.658 108.369 136.979C108.457 136.318 108.503 135.327 108.474 134.784C108.436 134.248 108.338 133.379 108.247 132.836C108.145 132.3 107.882 131.335 107.663 130.683C107.443 130.031 107.032 129.036 106.757 128.457C106.399 127.704 105.924 126.96 105.022 125.75C104.188 124.631 103.489 123.818 102.897 123.256C102.405 122.807 101.6 122.105 101.083 121.706C100.576 121.299 99.6803 120.665 99.0878 120.291C98.4953 119.917 97.5085 119.351 96.8907 119.027C96.2729 118.703 95.1701 118.192 94.424 117.885C93.6778 117.578 92.258 117.084 91.2678 116.786C90.2775 116.489 88.6085 116.039 87.5477 115.794C86.4969 115.542 83.7768 114.965 81.5091 114.491C79.2389 114.034 76.5464 113.452 75.5484 113.207C74.5404 112.971 73.1629 112.617 72.4994 112.421C71.8359 112.225 70.617 111.832 69.7878 111.54C68.9686 111.241 67.7701 110.769 67.112 110.476C66.4639 110.174 65.4165 109.653 64.7837 109.309C64.1609 108.957 63.1567 108.326 62.5618 107.906C61.967 107.487 60.9758 106.704 60.3713 106.166C59.4181 105.308 59.0572 104.887 57.6596 103.011C56.505 101.441 55.8641 100.475 55.3615 99.5482C54.989 98.8377 54.4367 97.6965 54.1421 97.0063C53.8476 96.3162 53.4537 95.1981 53.2547 94.5309C53.0556 93.8637 52.7828 92.6554 52.6496 91.845C52.5064 91.0421 52.362 89.8166 52.3316 89.1021C52.2912 88.3951 52.2949 87.2631 52.3298 86.5941C52.3748 85.9175 52.5354 84.5118 52.6973 83.4659C52.8566 82.4375 53.1153 81.0371 53.2659 80.376C53.409 79.7047 53.99 77.4525 54.5553 75.3688C55.1207 73.2851 55.6813 71.1109 55.819 70.5377C55.9493 69.9545 56.1869 68.8207 56.3431 67.9986C56.5068 67.1866 56.7204 65.7257 56.8091 64.7499C56.8979 63.7741 56.9855 62.3758 56.9854 61.6387C56.9853 60.9016 56.8911 59.7014 56.7727 58.9741C56.6544 58.2468 56.3513 57.061 56.1072 56.3333C55.8731 55.5981 55.4514 54.5478 55.1766 53.9684C54.7993 53.1674 54.3437 52.4717 53.2166 50.959C52.0068 49.3354 51.5757 48.841 50.778 48.1494C50.2538 47.6774 49.2901 46.9526 48.6525 46.518C48.0149 46.0834 47.1562 45.5627 46.7469 45.3501C46.3274 45.1451 45.5411 44.8057 45.0034 44.6104C44.4757 44.4076 43.4855 44.1103 42.8344 43.9524C42.1834 43.7945 40.9991 43.5947 40.2044 43.4968C39.4173 43.4089 38.1345 43.3296 37.3521 43.3323C36.5697 43.335 35.3771 43.3767 34.685 43.4375C33.993 43.4983 32.6113 43.6653 31.6069 43.8333C30.6026 44.0014 28.9738 44.321 27.9794 44.5445C26.9849 44.7679 24.9808 45.2575 23.533 45.6305C22.0852 46.0035 20.081 46.4931 19.0866 46.7165C18.0921 46.9399 16.3047 47.2993 15.1242 47.5046C13.9436 47.7099 12.2824 47.9439 11.4343 48.0269C10.5863 48.1099 9.47156 48.1719 8.95833 48.178C8.44509 48.184 7.36344 48.143 6.56106 48.0978C5.75117 48.0426 4.38574 47.8524 3.53097 47.6737C2.6661 47.5026 1.29376 47.1136 0.464524 46.8219C-0.364726 46.5301 -1.68362 45.9602 -2.47983 45.5654C-3.27603 45.1706 -4.42859 44.508 -5.05372 44.1112C-5.66875 43.7069 -6.75049 42.9289 -7.46064 42.3758C-8.17078 41.8228 -9.3573 40.7779 -10.1222 40.0461C-10.8796 39.3244 -12.1132 38.0478 -12.8652 37.228C-13.9833 36.0222 -15.2534 34.3808 -19.7445 28.3955C-23.1961 23.7843 -25.6511 20.5948 -26.3479 19.8279C-26.9495 19.147 -27.7567 18.2742 -28.1478 17.8756C-28.5289 17.4694 -29.3666 16.6821 -29.9936 16.1142C-30.6207 15.5463 -31.6018 14.756 -32.164 14.3594C-32.7263 13.9628 -33.6577 13.3865 -34.2328 13.0778C-34.8079 12.7692 -35.8228 12.3335 -36.4887 12.0925C-37.1471 11.8617 -38.3511 11.5512 -39.1406 11.418C-39.9301 11.2849 -41.1172 11.1656 -41.7562 11.1712C-42.4028 11.1668 -43.4949 11.2591 -44.1947 11.3727C-44.8944 11.4864 -45.9569 11.7448 -46.5815 11.9593C-47.2137 12.1637 -48.2491 12.6058 -48.9018 12.951C-49.8443 13.4337 -50.4217 13.8169 -51.6148 14.7843C-52.7347 15.6815 -53.3707 16.2808 -54.0047 17.0512C-54.4921 17.6182 -55.1819 18.5243 -55.551 19.0817C-55.9277 19.6289 -56.5931 20.7992 -57.0565 21.6933C-57.5198 22.5875 -58.1687 24.0748 -58.5039 25.0146C-58.8465 25.9443 -59.3169 27.4396 -59.5563 28.3395C-59.7882 29.2494 -60.1621 31.2532 -60.3886 32.8021C-60.6252 34.3585 -60.8588 36.5715 -60.9231 37.7486C-60.9772 38.9181 -61.0444 40.9757 -61.0513 42.3139C-61.0683 43.6597 -61.0298 47.2696 -60.9745 50.3337C-60.9191 53.3978 -60.8919 56.5926 -60.9147 57.4252C-60.9477 58.2653 -61.0966 59.9603 -61.2592 61.195C-61.4393 62.4271 -61.7392 64.1091 -61.9482 64.9235C-62.1571 65.7379 -62.5361 66.9769 -62.7925 67.6855C-63.0564 68.3841 -63.5736 69.585 -63.9459 70.3486C-64.3257 71.1021 -65.0644 72.3426 -65.5877 73.0931C-66.1034 73.8538 -67.0228 74.978 -67.6287 75.6177C-68.5627 76.596 -69.0016 76.9544 -70.5348 78.034C-71.8082 78.9358 -72.6753 79.4564 -73.5043 79.8388C-74.1493 80.1312 -75.3785 80.608 -76.2474 80.8947C-77.1163 81.1814 -78.8208 81.5889 -80.0467 81.7965C-81.2725 82.0042 -82.833 82.2259 -83.5251 82.2867C-84.2171 82.3475 -85.6965 82.3834 -86.8286 82.38C-87.9607 82.3766 -89.5882 82.3189 -90.4509 82.256C-91.3136 82.193 -92.8679 82.0651 -93.894 81.9514C-94.9125 81.8477 -98.2873 81.4452 -101.378 81.0662C-104.469 80.6872 -107.914 80.2744 -109.038 80.1553C-110.162 80.0362 -112.008 79.8748 -113.148 79.7984C-114.287 79.7221 -115.965 79.6391 -116.895 79.6111C-117.819 79.5933 -119.429 79.601 -120.471 79.6558C-121.52 79.7005 -123.082 79.814 -123.953 79.9296C-124.832 80.0352 -126.196 80.2676 -127.007 80.4639C-127.817 80.6602 -128.973 81.0039 -129.573 81.231C-130.18 81.4481 -131.112 81.8603 -131.646 82.1329C-132.188 82.3955 -133.191 83.049 -133.908 83.5827C-134.795 84.2441 -135.456 84.8308 -136.06 85.5158C-136.552 86.0551 -137.255 86.9863 -137.621 87.5889C-137.996 88.1815 -138.482 89.1082 -138.7 89.6157C-138.91 90.1333 -139.258 91.0354 -139.451 91.6184C-139.68 92.322 -139.795 93.0512 -139.79 93.816C-139.8 94.4348 -139.735 95.4688 -139.667 96.108C-139.589 96.7396 -139.406 97.7011 -139.269 98.2424C-139.142 98.7911 -138.769 99.8614 -138.457 100.617C-138.09 101.488 -137.57 102.481 -137.026 103.315C-136.551 104.059 -135.732 105.158 -135.163 105.816C-134.609 106.454 -133.616 107.471 -132.941 108.082C-132.284 108.69 -131.08 109.675 -130.269 110.278C-129.459 110.882 -128.031 111.872 -127.092 112.459C-126.155 113.063 -124.551 114.016 -123.529 114.588C-122.517 115.167 -119.099 116.933 -115.949 118.507C-112.799 120.081 -109.311 121.857 -108.193 122.452C-107.076 123.046 -105.396 123.974 -104.452 124.526C-103.507 125.077 -101.805 126.161 -100.663 126.957C-99.5313 127.76 -98.0683 128.882 -97.4086 129.472C-96.7489 130.063 -95.5804 131.231 -94.8058 132.081C-93.7755 133.211 -93.0164 134.167 -91.9521 135.679C-90.963 137.091 -90.2848 138.17 -89.8098 139.102C-89.435 139.857 -88.8754 141.072 -88.586 141.797C-88.2965 142.522 -87.8853 143.706 -87.6738 144.411C-87.4623 145.116 -87.1622 146.445 -86.9992 147.359C-86.8362 148.272 -86.664 149.493 -86.6307 150.064C-86.5974 150.635 -86.5807 151.689 -86.5931 152.388C-86.6054 153.088 -86.6999 154.287 -86.8132 155.062C-86.9163 155.829 -87.1669 157.05 -87.3705 157.767C-87.5666 158.493 -87.9605 159.712 -88.2449 160.488C-88.5292 161.265 -89.0845 162.604 -89.4798 163.463C-89.8751 164.322 -90.6929 165.92 -91.3103 167.007C-91.9202 168.105 -93.2205 170.297 -94.1818 171.891C-95.1606 173.483 -96.304 175.402 -96.7367 176.148C-97.1618 176.903 -97.7691 177.983 -98.0854 178.548C-98.3943 179.124 -98.9211 180.206 -99.2733 180.955C-99.6179 181.713 -100.143 183.03 -100.458 183.892C-100.773 184.754 -101.139 186.093 -101.28 186.873C-101.414 187.662 -101.533 188.724 -101.527 189.237C-101.531 189.757 -101.463 190.585 -101.374 191.084C-101.286 191.582 -101.079 192.385 -100.915 192.858C-100.728 193.362 -100.33 194.148 -99.9474 194.725C-99.5068 195.401 -99.0483 195.953 -98.5315 196.415C-98.1202 196.799 -97.3423 197.379 -96.8075 197.718C-96.2728 198.057 -95.263 198.528 -94.5644 198.791C-93.7704 199.078 -92.5537 199.363 -91.3291 199.533C-89.77 199.752 -88.867 199.784 -86.8188 199.67C-85.4147 199.596 -83.2302 199.349 -81.9666 199.128C-80.7105 198.898 -78.5554 198.422 -77.1982 198.053C-75.841 197.685 -72.9098 196.819 -70.6987 196.143C-68.4952 195.458 -65.7226 194.631 -64.5266 194.32C-63.3381 194 -61.6336 193.592 -60.7349 193.409C-59.8361 193.225 -58.3108 192.998 -57.352 192.895C-56.3931 192.793 -54.906 192.704 -54.0431 192.704C-53.1802 192.704 -51.8597 192.771 -51.1178 192.861C-50.376 192.952 -49.2269 193.146 -48.5758 193.304C-47.9248 193.462 -46.8742 193.777 -46.2409 193.995C-45.6178 194.221 -44.5552 194.7 -43.8796 195.059C-43.2041 195.418 -42.2524 195.979 -41.7806 196.318C-41.3087 196.656 -40.5033 197.295 -40.0016 197.737C-39.4045 198.264 -38.6375 199.104 -37.7856 200.163C-36.9563 201.192 -36.2501 202.203 -35.8274 202.939C-35.4622 203.576 -34.8674 204.796 -34.5155 205.647C-34.1636 206.498 -33.6875 207.853 -33.4888 208.646C-33.2801 209.432 -33.0275 210.655 -32.9242 211.362C-32.8208 212.069 -32.6854 213.725 -32.6193 215.056C-32.5532 216.387 -32.5549 218.427 -32.6091 219.596C-32.6808 220.763 -32.9426 223.107 -33.1822 224.807C-33.4217 226.507 -33.9716 230.022 -34.3978 232.629C-34.8315 235.226 -35.2587 238.148 -35.3576 239.131C-35.4463 240.107 -35.5519 241.629 -35.5825 242.514C-35.6131 243.4 -35.5876 244.823 -35.5351 245.694C-35.4826 246.565 -35.3311 247.926 -35.1979 248.736C-35.0546 249.539 -34.8044 250.717 -34.6304 251.372C-34.4464 252.019 -34.0951 253.059 -33.8355 253.681C-33.586 254.311 -33.0136 255.437 -32.5657 256.185C-31.9351 257.221 -31.5143 257.786 -30.7724 258.613C-30.2284 259.196 -29.3632 260.041 -28.8312 260.46C-28.3094 260.887 -27.4636 261.496 -26.9715 261.819C-26.4694 262.135 -25.5225 262.606 -24.8618 262.882C-24.2085 263.148 -23.1531 263.491 -22.5095 263.639C-21.8835 263.784 -20.7821 263.936 -20.0577 263.96C-19.3332 263.985 -18.2563 263.936 -17.6572 263.834C-17.0405 263.735 -16.177 263.547 -15.7237 263.397C-15.2704 263.248 -14.5348 262.95 -14.0913 262.746C-13.6479 262.541 -12.7556 262.033 -12.1177 261.604C-11.4395 261.146 -10.5164 260.427 -9.9006 259.843C-9.31015 259.308 -8.3583 258.27 -7.76723 257.547C-7.17616 256.824 -6.31686 255.62 -5.84643 254.861C-5.37601 254.103 -4.54077 252.571 -3.99119 251.456C-3.44912 250.33 -2.20707 247.492 -1.23586 245.152C-0.272151 242.803 1.06605 239.799 1.71692 238.483C2.36779 237.166 3.23843 235.577 3.64298 234.961C4.05503 234.356 4.68191 233.45 5.05084 232.956C5.41977 232.461 6.07653 231.658 6.49073 231.161C6.92256 230.667 7.80102 229.762 8.44704 229.155C9.10316 228.54 10.0089 227.756 10.483 227.403C10.9571 227.049 11.7816 226.513 12.3235 226.188C12.873 225.873 13.6819 225.442 14.1254 225.237C14.5688 225.033 15.3901 224.703 15.9391 224.513C16.4957 224.334 17.4601 224.07 18.0995 223.939C18.739 223.807 19.7584 223.659 20.3673 223.613C20.9763 223.568 22.0933 223.551 22.8605 223.591C23.6277 223.631 24.9051 223.808 25.7172 223.972C26.5267 224.153 27.8211 224.521 28.6076 224.798C29.3941 225.074 30.6051 225.584 31.3008 225.928C31.9965 226.272 33.0864 226.871 33.7216 227.261C34.3568 227.65 35.3559 228.317 35.9407 228.744C36.5254 229.171 37.4915 229.941 38.0735 230.448C38.6731 230.958 39.576 231.791 40.0925 232.316C40.6192 232.833 42.1986 234.511 43.5998 236.054C45.0112 237.591 46.6481 239.366 47.2574 239.995C47.8566 240.63 48.9675 241.7 49.7301 242.387C50.4926 243.073 51.5765 243.959 52.1387 244.356C52.701 244.753 53.9012 245.458 54.7878 245.911C55.6819 246.374 56.9782 246.914 57.6945 247.117C58.4008 247.328 59.7207 247.583 60.6135 247.687C61.5138 247.8 62.8545 247.852 63.6043 247.826C64.3465 247.791 65.3732 247.716 65.8867 247.647C66.4001 247.578 67.4751 247.358 68.2682 247.159C69.0613 246.96 70.2751 246.589 70.9502 246.337C71.6177 246.074 72.4288 245.752 72.7564 245.602C73.0738 245.46 73.85 245.07 74.4649 244.737C75.0799 244.404 76.237 243.683 77.0287 243.125C77.8205 242.566 78.6175 241.972 78.7941 241.809C78.9707 241.646 79.5133 241.132 79.9928 240.681Z" fill="#02AF85"/>
</svg>
