<svg width="83" height="207" viewBox="0 0 83 207" fill="none" xmlns="http://www.w3.org/2000/svg">
<path fill-rule="evenodd" clip-rule="evenodd" d="M20.0097 0.866722C20.5882 1.01466 21.4865 1.29643 21.9984 1.48248C22.5079 1.67726 23.3825 2.0463 23.9325 2.29895C24.4825 2.5516 25.4445 3.04748 26.0692 3.40479C26.6963 3.75336 27.6322 4.34523 28.1537 4.70261C28.6729 5.06871 29.4898 5.68445 29.9645 6.07596C30.4306 6.4651 31.1181 7.07379 31.4882 7.43682C31.8605 7.79111 32.3934 8.34836 32.6832 8.66146C32.9619 8.98093 33.4996 9.62383 33.861 10.0876C34.2223 10.5514 34.9563 11.6787 35.4839 12.6001C36.2172 13.8678 36.5328 14.5347 36.8223 15.4006C37.0267 16.0279 37.2917 17.0184 37.4001 17.6195C37.5085 18.2207 37.6435 19.3445 37.6822 20.1329C37.7233 20.9126 37.722 22.1586 37.6718 22.8947C37.6303 23.6332 37.5479 24.6604 37.4801 25.1855C37.421 25.713 37.1647 27.5176 36.913 29.2017C36.6525 30.8834 36.3923 32.7713 36.3333 33.4019C36.2656 34.0301 36.2132 34.9812 36.1978 35.5206C36.1823 36.0599 36.1997 36.9268 36.2351 37.4519C36.2704 37.9769 36.3694 38.7161 36.4427 39.1015C36.516 39.487 36.7062 40.1666 36.8549 40.6194C37.0037 41.0722 37.2906 41.7406 37.4917 42.1046C37.788 42.635 38.0366 42.9275 38.7329 43.5386C39.2093 43.9586 39.838 44.4389 40.1309 44.6029C40.4238 44.7669 41.1071 45.0464 41.6499 45.2221C42.3824 45.4588 42.8958 45.5703 43.5988 45.6396C44.1265 45.6988 45.1357 45.7108 45.8386 45.677C46.6097 45.6336 47.8353 45.4702 48.9062 45.2554C49.8867 45.0628 51.9245 44.5673 53.4276 44.1419C54.9307 43.7166 56.8217 43.2093 57.6268 43.0065C58.4295 42.8124 59.5448 42.5721 60.1128 42.4829C60.6784 42.4024 61.7407 42.2883 62.4745 42.2442C63.2083 42.2001 64.3103 42.1811 64.9221 42.2069C65.5361 42.2239 66.4652 42.2891 66.9905 42.357C67.5181 42.4161 68.4846 42.5852 69.1377 42.7347C69.8368 42.8873 70.7748 43.1611 71.3954 43.3955C71.9835 43.6116 72.9057 44.0123 73.4486 44.2912C73.9939 44.5613 74.7662 44.9962 75.156 45.2521C75.5434 45.5168 76.2031 45.9867 76.6024 46.3109C77.0017 46.635 77.6051 47.1739 77.945 47.51C78.2848 47.8461 78.8916 48.5453 79.3022 49.0693C79.7128 49.5933 80.2982 50.4741 80.6097 51.018C80.9299 51.5643 81.363 52.488 81.5904 53.0653C81.8178 53.6426 82.0913 54.4292 82.1908 54.8218C82.2903 55.2143 82.4591 55.9725 82.5556 56.5142C82.652 57.0558 82.7543 57.9552 82.7865 58.5263C82.8211 59.0886 82.8124 60.0515 82.7669 60.6671C82.7277 61.2937 82.6254 62.2218 82.5488 62.7445C82.4533 63.3371 82.2114 64.3303 81.8775 65.4203C81.5523 66.5127 81.1684 67.5798 80.835 68.3232C80.5562 68.969 80.1555 69.7879 79.955 70.1457C79.7546 70.5036 79.4004 71.082 79.1738 71.4327C78.9472 71.7835 78.5969 72.2786 78.4051 72.5358C78.2046 72.7905 77.7211 73.3619 77.3169 73.8143C76.915 74.2579 76.303 74.8881 75.9518 75.2143C75.5895 75.5469 74.9751 76.0827 74.5668 76.4121C74.1672 76.744 73.3339 77.3608 72.7217 77.7848C72.1183 78.2111 70.8353 79.0337 69.8821 79.6086C68.929 80.1835 66.6665 81.4707 64.8465 82.4753C63.0289 83.4711 60.906 84.6932 60.1258 85.1839C59.3455 85.6746 58.2592 86.4288 57.6994 86.867C57.142 87.2965 56.4071 87.9307 56.0559 88.257C55.711 88.5943 55.1609 89.2038 54.828 89.6006C54.5039 89.9998 54.0292 90.6767 53.7836 91.0972C53.5063 91.5654 53.2164 92.2176 53.0297 92.7666C52.8516 93.3179 52.7054 93.9248 52.6668 94.3079C52.6266 94.6625 52.6208 95.2701 52.6369 95.6587C52.6619 96.0497 52.7751 96.7365 52.8889 97.1798C53.0481 97.7667 53.3064 98.3336 53.8173 99.2129C54.2495 99.9677 54.7888 100.742 55.2049 101.212C55.5758 101.64 56.4127 102.458 57.0526 103.035C57.6926 103.612 58.6937 104.447 59.2661 104.893C59.8385 105.339 61.2825 106.407 62.4654 107.263C63.6458 108.127 65.2479 109.303 66.0171 109.887C66.7864 110.471 68.0987 111.54 68.9332 112.264C69.7676 112.988 70.7799 113.919 71.1817 114.337C71.5859 114.747 72.2386 115.449 72.6309 115.903C73.0232 116.356 73.665 117.168 74.0621 117.707C74.4505 118.244 75.0336 119.133 75.3514 119.688C75.6604 120.241 76.1182 121.143 76.3614 121.697C76.6046 122.25 76.9402 123.119 77.1096 123.634C77.2703 124.146 77.505 125.007 77.6189 125.553C77.7416 126.102 77.855 126.995 77.8832 127.546C77.9114 128.098 77.9112 128.857 77.8751 129.231C77.8405 129.634 77.6674 130.477 77.4427 131.269C77.154 132.296 76.9656 132.817 76.6456 133.442C76.4104 133.893 76.0348 134.55 75.7995 134.899C75.5729 135.249 75.0498 135.932 74.6297 136.408C74.2183 136.887 73.577 137.556 73.1949 137.892C72.8215 138.231 72.1301 138.774 71.6623 139.116C71.1945 139.457 70.461 139.914 70.0304 140.153C69.6021 140.383 68.9018 140.717 68.4767 140.902C68.0628 141.08 67.0681 141.428 66.2797 141.672C65.4889 141.926 64.2666 142.25 63.5503 142.402C62.834 142.554 61.6886 142.767 60.9865 142.866C60.2821 142.975 58.6915 143.17 57.4444 143.309C56.1973 143.448 54.5806 143.636 53.8587 143.74C53.1392 143.835 51.8993 144.05 51.1037 144.218C50.3104 144.377 49.1809 144.67 48.5844 144.864C47.988 145.058 47.1433 145.372 46.7071 145.562C46.2709 145.753 45.592 146.112 45.1964 146.361C44.8007 146.609 44.1568 147.081 43.766 147.415C43.3751 147.749 42.7504 148.357 42.3842 148.773C42.018 149.189 41.4862 149.869 41.2231 150.285C40.9514 150.698 40.5624 151.37 40.3564 151.783C40.0681 152.36 39.879 152.918 39.5112 154.271C39.1379 155.678 39.0256 156.229 38.9439 157.115C38.892 157.72 38.8579 158.741 38.86 159.389C38.8622 160.036 38.9059 161.116 38.962 161.806C39.0181 162.496 39.1596 163.734 39.2721 164.561C39.3934 165.391 39.748 167.362 40.0754 168.95C40.3941 170.536 40.9669 173.326 41.3508 175.154C41.726 176.981 42.1268 179.161 42.2394 179.988C42.3519 180.815 42.4775 182.077 42.5201 182.782C42.5628 183.487 42.5828 184.758 42.559 185.604C42.5351 186.451 42.467 187.632 42.4064 188.234C42.3458 188.836 42.1785 189.934 42.0363 190.664C41.8878 191.485 41.63 192.502 41.3681 193.293C41.145 194.01 40.7483 195.055 40.4973 195.634C40.2463 196.212 39.8273 197.063 39.5587 197.534C39.2989 198.007 38.8631 198.713 38.6071 199.103C38.3425 199.49 37.7409 200.254 37.2646 200.799C36.7882 201.345 36.089 202.054 35.7069 202.391C35.316 202.725 34.6738 203.225 34.2797 203.502C33.8856 203.779 33.2433 204.176 32.8595 204.381C32.4757 204.586 31.8729 204.872 31.5255 205.012C31.1758 205.16 30.504 205.39 30.0225 205.54C29.5434 205.682 28.6725 205.885 28.0712 205.994C27.4722 206.093 26.5219 206.21 25.9443 206.231C25.3644 206.26 24.4496 206.246 23.8887 206.206C23.1325 206.16 22.4351 206.036 21.1186 205.706C20.0354 205.449 19.0212 205.145 18.4704 204.929C17.9807 204.731 17.137 204.351 16.5941 204.072C16.0489 203.802 15.2115 203.331 14.7241 203.02C14.2343 202.718 13.4897 202.216 13.0594 201.902C12.6268 201.597 11.7591 200.893 11.1358 200.358C10.5062 199.812 9.66619 199.04 9.26439 198.621C8.86022 198.211 8.19478 197.487 7.77866 197.017C7.36492 196.539 6.71607 195.754 6.33563 195.257C5.95519 194.76 5.4278 194.045 5.17202 193.675C4.91862 193.297 4.30377 192.352 3.82155 191.574C3.33933 190.796 1.94825 188.534 0.733547 186.555C-0.478787 184.566 -1.83808 182.36 -2.28852 181.637C-2.73896 180.915 -3.40466 179.881 -3.77086 179.332C-4.13707 178.783 -4.79633 177.863 -5.23474 177.303C-5.67077 176.735 -6.34579 175.942 -6.72614 175.548C-7.1065 175.154 -7.72899 174.582 -8.11324 174.271C-8.49987 173.969 -9.16827 173.497 -9.61278 173.236C-10.3367 172.795 -10.5478 172.71 -11.7262 172.389C-12.8261 172.09 -13.1586 172.037 -13.7885 172.044C-14.2035 172.053 -14.9381 172.134 -15.4315 172.225C-15.9249 172.316 -16.7371 172.545 -17.2566 172.731C-17.765 172.912 -18.869 173.455 -19.6992 173.923C-20.5208 174.393 -21.7237 175.162 -22.3676 175.634C-23.0027 176.108 -24.7335 177.474 -26.2018 178.668C-27.6813 179.868 -29.4724 181.284 -30.1987 181.817C-30.9226 182.342 -32.116 183.179 -32.8367 183.658C-33.5599 184.146 -35.0507 185.043 -36.1451 185.654C-37.2394 186.266 -38.7827 187.046 -39.571 187.394C-40.357 187.733 -41.6554 188.233 -42.4485 188.495C-43.2417 188.757 -44.3434 189.086 -44.8971 189.226C-45.4507 189.366 -46.451 189.562 -47.1269 189.669C-47.8004 189.767 -48.8452 189.886 -49.445 189.919C-50.0447 189.953 -50.892 189.966 -51.3308 189.96C-51.7671 189.944 -52.4685 189.903 -52.8978 189.861C-53.327 189.82 -54.176 189.701 -54.795 189.599C-55.4488 189.486 -56.4138 189.243 -57.1224 189.022C-57.7875 188.813 -58.6628 188.481 -59.0779 188.284C-59.493 188.087 -60.2312 187.699 -60.717 187.417C-61.2028 187.135 -62.0426 186.569 -62.5809 186.169C-63.1167 185.761 -63.8908 185.092 -64.3124 184.677C-64.7277 184.274 -65.3352 183.612 -65.6672 183.212C-65.9904 182.815 -66.5178 182.1 -66.8395 181.628C-67.1612 181.156 -67.6633 180.28 -67.9606 179.683C-68.2578 179.087 -68.664 178.133 -68.8564 177.565C-69.0576 176.995 -69.3115 176.101 -69.4325 175.581C-69.5535 175.061 -69.7034 174.13 -69.7722 173.521C-69.8322 172.914 -69.887 171.84 -69.8772 171.149C-69.8675 170.458 -69.8128 169.396 -69.7522 168.793C-69.6917 168.191 -69.5797 167.332 -69.5158 166.89C-69.4519 166.448 -69.2244 165.301 -69.0228 164.353C-68.7889 163.217 -68.2139 161.068 -67.3698 158.102C-66.4814 155.007 -65.9626 153.03 -65.7081 151.853C-65.5153 150.902 -65.2878 149.652 -65.1994 149.086C-65.1197 148.517 -65.0245 147.615 -64.9916 147.08C-64.9587 146.546 -64.9508 145.62 -64.9846 145.021C-65.0097 144.423 -65.1247 143.502 -65.2282 142.986C-65.3318 142.471 -65.5292 141.714 -65.666 141.321C-65.8028 140.928 -66.104 140.208 -66.325 139.745C-66.5523 139.271 -67.0298 138.476 -67.3793 137.969C-67.7311 137.47 -68.3919 136.625 -68.8422 136.109C-69.2925 135.593 -70.2064 134.679 -70.8678 134.077C-71.5292 133.476 -72.5581 132.605 -73.1519 132.135C-73.7458 131.664 -74.727 130.929 -75.3303 130.493C-75.9336 130.057 -76.9276 129.299 -77.5429 128.804C-78.1558 128.3 -79.1109 127.468 -79.6595 126.935C-80.2106 126.41 -80.9784 125.649 -81.3564 125.246C-81.732 124.835 -82.407 124.042 -82.8431 123.473C-83.2815 122.914 -83.9463 121.946 -84.3157 121.339C-84.6828 120.724 -85.2009 119.768 -85.4615 119.209C-85.7135 118.654 -86.1078 117.656 -86.325 117.007C-86.5421 116.357 -86.8095 115.375 -86.9321 114.827C-87.046 114.28 -87.1895 113.463 -87.2438 113.008C-87.2982 112.553 -87.3678 111.775 -87.3928 111.281C-87.4178 110.787 -87.4225 109.942 -87.3983 109.405C-87.3829 108.865 -87.3138 107.956 -87.2516 107.383C-87.1642 106.648 -86.9824 105.807 -86.6407 104.55C-86.2871 103.25 -86.0434 102.491 -85.7329 101.798C-85.4962 101.272 -85.1389 100.544 -84.9472 100.184C-84.7555 99.824 -84.2809 99.044 -83.8871 98.4576C-83.502 97.8688 -82.8323 96.9919 -82.4035 96.5181C-81.9747 96.0443 -81.3381 95.3927 -80.9893 95.0752C-80.6405 94.7577 -79.9332 94.1909 -79.4274 93.813C-78.9128 93.4375 -77.9145 92.7999 -77.2127 92.391C-76.5045 91.9931 -75.3887 91.4062 -74.7439 91.1036C-74.0968 90.7922 -72.5312 90.1027 -71.2781 89.5625C-70.025 89.0223 -68.4571 88.3241 -67.81 88.0127C-67.1652 87.7101 -66.1358 87.1653 -65.5252 86.8159C-64.9233 86.4641 -64.0669 85.9004 -63.6253 85.5519C-63.1837 85.2034 -62.6097 84.7129 -62.3409 84.4486C-62.0809 84.1819 -61.6474 83.6906 -61.3858 83.3494C-61.1156 83.0105 -60.7352 82.4392 -60.5348 82.0813C-60.3256 81.7259 -60.0065 81.0348 -59.8165 80.5429C-59.6265 80.051 -59.3938 79.2989 -59.3101 78.8531C-59.2176 78.4097 -59.1381 77.6347 -59.1211 77.1239C-59.1041 76.6131 -59.1388 75.8445 -59.1828 75.4202C-59.2268 74.9959 -59.348 74.2694 -59.4547 73.7999C-59.5526 73.3328 -59.7898 72.4811 -59.9799 71.9046C-60.1787 71.3257 -60.5579 70.3417 -60.8258 69.7065C-61.1048 69.0777 -61.5817 68.039 -61.8893 67.4118C-62.2055 66.7822 -62.8127 65.5675 -63.2426 64.7009C-63.6662 63.8453 -64.2837 62.5997 -64.6214 61.9455C-64.9504 61.2938 -65.3605 60.4231 -65.5386 60.0092C-65.7079 59.5977 -65.9901 58.9118 -66.146 58.4852C-66.3105 58.0562 -66.5857 57.241 -66.752 56.6803C-66.927 56.1173 -67.2088 54.9817 -67.3808 54.1664C-67.5505 53.3424 -67.7658 52.0655 -67.8537 51.32C-67.9328 50.5769 -68.0083 49.4411 -68.0192 48.7915C-68.03 48.1419 -68.0047 47.1179 -67.9616 46.5111C-67.9184 45.9043 -67.8366 45.0175 -67.7743 44.5471C-67.7121 44.0767 -67.4401 42.9042 -67.1791 41.9443C-66.8445 40.7139 -66.5802 39.9142 -66.2745 39.2382C-66.0377 38.7122 -65.6076 37.8545 -65.3184 37.3427C-65.0205 36.8333 -64.5197 36.0604 -64.2059 35.6303C-63.8834 35.2026 -63.35 34.551 -63.0044 34.1764C-62.6675 33.7994 -62.0428 33.1915 -61.6226 32.8184C-61.2024 32.4453 -60.5555 31.9277 -60.1836 31.6634C-59.803 31.4014 -59.167 30.9933 -58.765 30.7558C-58.3606 30.5097 -57.6928 30.1571 -57.2788 29.9791C-56.8625 29.7925 -56.1812 29.5279 -55.7568 29.3809C-55.3325 29.2338 -54.5163 29.0247 -53.9412 28.9093C-53.3661 28.7939 -52.5339 28.6641 -52.0809 28.6186C-51.6279 28.573 -50.7584 28.5471 -50.142 28.5554C-49.5255 28.5637 -48.5702 28.636 -48.0275 28.7087C-47.4824 28.7725 -46.5508 28.9321 -45.9676 29.0626C-45.3558 29.1915 -44.3741 29.4772 -43.6662 29.7353C-42.9821 29.9775 -42.0115 30.3727 -41.5138 30.6111C-41.0162 30.8495 -40.178 31.2836 -39.6661 31.5728C-39.1541 31.8619 -38.4302 32.3024 -38.0579 32.5536C-37.6856 32.8048 -37.1148 33.2224 -36.7885 33.4705C-36.4535 33.7209 -35.7135 34.3438 -35.149 34.8535C-34.5758 35.3655 -33.7127 36.1906 -33.2315 36.6963C-32.7503 37.202 -31.907 38.1342 -31.3606 38.7795C-30.8118 39.4161 -29.5983 40.9175 -28.6572 42.1106C-27.7184 43.3124 -26.7058 44.553 -26.412 44.886C-26.1158 45.2102 -25.4917 45.811 -25.0368 46.2065C-24.5819 46.602 -23.8896 47.0901 -23.5078 47.3064C-23.1237 47.5139 -22.5165 47.7634 -22.1412 47.8654C-21.7309 47.977 -21.2429 48.0441 -20.92 48.0288C-20.617 48.0175 -20.1212 47.918 -19.8071 47.7973C-19.493 47.6765 -19.0291 47.4184 -18.7905 47.2303C-18.5407 47.0358 -18.1578 46.6619 -17.924 46.3881C-17.6902 46.1143 -17.2963 45.5279 -17.0436 45.0812C-16.7727 44.6019 -16.4045 43.7649 -16.1393 43.031C-15.7997 42.0925 -15.6288 41.4642 -15.4393 40.4568C-15.2947 39.7182 -14.9023 37.3789 -14.5518 35.2625C-14.21 33.1437 -13.7512 30.457 -13.5411 29.3051C-13.331 28.1533 -12.9929 26.4271 -12.7914 25.4792C-12.5811 24.5336 -12.2285 23.0644 -12.0007 22.2267C-11.7729 21.3889 -11.3662 20.0656 -11.1066 19.2834C-10.8383 18.5035 -10.4338 17.3952 -10.2002 16.8121C-9.9579 16.2313 -9.56196 15.3269 -9.31644 14.8032C-9.07093 14.2795 -8.57108 13.3377 -8.22251 12.7109C-7.87394 12.0841 -7.27019 11.1049 -6.88348 10.5446C-6.5055 9.98204 -5.80014 9.07735 -5.3325 8.52976C-4.86486 7.98216 -4.15381 7.22897 -3.75108 6.85115C-3.34836 6.47334 -2.55553 5.79862 -1.99577 5.36041C-1.42728 4.92458 -0.336979 4.19018 0.433809 3.73439C1.2046 3.27859 2.31167 2.68932 2.89856 2.42719C3.48544 2.16505 4.29759 1.83296 4.69336 1.68755C5.09151 1.53341 5.8601 1.29257 6.39232 1.12803C6.92217 0.972214 7.9145 0.735983 8.59986 0.594341C9.28285 0.461427 10.3419 0.29019 10.9511 0.221571C11.558 0.161679 12.5513 0.0943887 13.1463 0.0781296C13.7413 0.0618685 14.7481 0.0826135 15.3837 0.124228C16.0192 0.165841 16.9388 0.265961 17.4331 0.344155C17.9275 0.422349 18.4742 0.514787 18.6448 0.542435C18.8154 0.570082 19.4335 0.710058 20.0097 0.866722Z" fill="#02AF85"/>
</svg>
