<svg width="38" height="38" viewBox="0 0 38 38" fill="none" xmlns="http://www.w3.org/2000/svg">
<path d="M26.2857 0.5H11.7143V3.5H26.2857V0.5ZM11.7143 0.5C5.5208 0.5 0.5 5.5208 0.5 11.7143H3.5C3.5 7.17766 7.17766 3.5 11.7143 3.5V0.5ZM0.5 11.7143V26.2857H3.5V11.7143H0.5ZM0.5 26.2857C0.5 32.4791 5.52079 37.5 11.7143 37.5V34.5C7.17767 34.5 3.5 30.8223 3.5 26.2857H0.5ZM11.7143 37.5H26.2857V34.5H11.7143V37.5ZM26.2857 37.5C32.4791 37.5 37.5 32.4791 37.5 26.2857H34.5C34.5 30.8222 30.8222 34.5 26.2857 34.5V37.5ZM37.5 26.2857V11.7143H34.5V26.2857H37.5ZM37.5 11.7143C37.5 5.52079 32.4791 0.5 26.2857 0.5V3.5C30.8223 3.5 34.5 7.17767 34.5 11.7143H37.5ZM19 24.7857C15.8045 24.7857 13.2143 22.1955 13.2143 19H10.2143C10.2143 23.8523 14.1477 27.7857 19 27.7857V24.7857ZM13.2143 19C13.2143 15.8045 15.8045 13.2143 19 13.2143V10.2143C14.1477 10.2143 10.2143 14.1477 10.2143 19H13.2143ZM19 13.2143C22.1955 13.2143 24.7857 15.8045 24.7857 19H27.7857C27.7857 14.1477 23.8523 10.2143 19 10.2143V13.2143ZM24.7857 19C24.7857 20.5343 24.1761 22.006 23.0911 23.0911L25.2124 25.2124C26.86 23.5648 27.7857 21.33 27.7857 19H24.7857ZM23.0911 23.0911C22.006 24.1761 20.5343 24.7857 19 24.7857V27.7857C21.33 27.7857 23.5648 26.86 25.2124 25.2124L23.0911 23.0911ZM27.7857 9.28571C27.7857 8.77288 28.2015 8.35714 28.7143 8.35714V5.35714C26.5446 5.35714 24.7857 7.11602 24.7857 9.28571H27.7857ZM28.7143 8.35714C29.2271 8.35714 29.6429 8.77288 29.6429 9.28571H32.6429C32.6429 7.11602 30.884 5.35714 28.7143 5.35714V8.35714ZM29.6429 9.28571C29.6429 9.79855 29.2271 10.2143 28.7143 10.2143V13.2143C30.884 13.2143 32.6429 11.4554 32.6429 9.28571H29.6429ZM28.7143 10.2143C28.2015 10.2143 27.7857 9.79855 27.7857 9.28571H24.7857C24.7857 11.4554 26.5446 13.2143 28.7143 13.2143V10.2143ZM29 9.28572C29 9.44351 28.8721 9.57143 28.7143 9.57143V6.57143C27.2152 6.57143 26 7.78666 26 9.28572H29ZM28.7143 9.57143C28.5565 9.57143 28.4286 9.44351 28.4286 9.28572H31.4286C31.4286 7.78666 30.2133 6.57143 28.7143 6.57143V9.57143ZM28.4286 9.28572C28.4286 9.12792 28.5565 9 28.7143 9V12C30.2133 12 31.4286 10.7848 31.4286 9.28572H28.4286ZM28.7143 9C28.8721 9 29 9.12792 29 9.28572H26C26 10.7848 27.2152 12 28.7143 12V9Z" fill="#02AF85"/>
</svg>
