<svg width="358" height="213" viewBox="0 0 358 213" fill="none" xmlns="http://www.w3.org/2000/svg">
<path fill-rule="evenodd" clip-rule="evenodd" d="M6.39104 81.6777C6.9055 80.7644 7.79264 79.3698 8.34138 78.5867C8.90382 77.8116 9.9281 76.497 10.6071 75.6797C11.2862 74.8623 12.5653 73.4574 13.4558 72.5611C14.3326 71.6569 15.7626 70.3399 16.6061 69.6186C17.4634 68.9052 18.8797 67.8009 19.7598 67.1744C20.632 66.5616 21.9773 65.6733 22.7615 65.2115C23.5319 64.7416 24.7194 64.0922 25.3824 63.7435C26.051 63.4166 27.386 62.798 28.337 62.3967C29.288 61.9954 31.5339 61.2648 33.3363 60.7903C35.82 60.1248 37.0944 59.8938 38.6944 59.7976C39.8511 59.7369 41.6511 59.739 42.7197 59.8293C43.7883 59.9195 45.7552 60.2028 47.1095 60.4964C48.45 60.7821 50.562 61.3523 51.7871 61.7728C53.0202 62.1796 54.7242 62.7876 55.5836 63.1419C56.451 63.4824 59.3937 64.7396 62.1342 65.9338C64.8666 67.1418 67.9488 68.4435 68.991 68.8309C70.0253 69.232 71.6138 69.7543 72.5212 70.0262C73.4286 70.2982 74.9063 70.6639 75.8126 70.8432C76.7189 71.0226 78.0172 71.1917 78.7041 71.2431C79.3909 71.2944 80.6299 71.2817 81.4653 71.236C82.3008 71.1902 83.5649 71.0083 84.2735 70.8333C85.3079 70.5726 85.9171 70.2845 87.2704 69.3825C88.1997 68.7663 89.3005 67.9192 89.712 67.4974C90.1235 67.0755 90.9089 66.0444 91.4542 65.2042C92.1893 64.0702 92.6123 63.2506 93.0503 62.0903C93.391 61.2227 93.8713 59.5172 94.1344 58.3101C94.4124 56.983 94.6939 54.8305 94.8177 52.917C94.938 51.167 95.0267 47.4863 94.9906 44.744C94.9545 42.0018 94.9563 38.5646 94.9794 37.1072C95.0162 35.6578 95.1172 33.6574 95.2248 32.6537C95.3461 31.6581 95.6367 29.8052 95.8964 28.5409C96.1561 27.2767 96.6261 25.3997 96.9486 24.3743C97.2574 23.341 97.7914 21.7955 98.1458 20.9359C98.4866 20.0682 99.2137 18.5067 99.7648 17.4676C100.342 16.3519 101.234 14.8864 101.914 13.941C102.549 13.0425 103.648 11.6616 104.368 10.8683C105.075 10.0669 106.164 8.95574 106.776 8.41159C107.401 7.87543 108.498 6.97117 109.23 6.44186C109.962 5.91255 111.15 5.13517 111.875 4.71216C112.6 4.28917 114.062 3.57917 115.137 3.12185C116.213 2.66453 117.973 2.07338 119.037 1.79324C120.109 1.49938 121.873 1.18605 122.955 1.06363C124.037 0.94123 125.496 0.835933 126.206 0.846153C126.917 0.856397 128.28 0.915689 129.242 0.999056C130.204 1.08242 131.776 1.31886 132.759 1.52453C133.728 1.7222 135.356 2.17587 136.379 2.53356C137.424 2.88553 138.95 3.48209 139.802 3.85008C140.763 4.28207 142.337 5.14495 144.032 6.20787C145.736 7.25705 147.37 8.39424 148.479 9.29832C149.447 10.0652 150.652 11.1179 151.168 11.6208C151.683 12.1237 152.502 12.9878 152.994 13.5319C153.485 14.0759 154.165 14.8954 154.513 15.3378C154.854 15.7938 155.602 16.874 156.185 17.7655C156.754 18.6491 157.544 19.9738 157.937 20.7179C158.335 21.4837 158.964 22.7696 159.336 23.6121C159.717 24.4408 160.383 26.1347 160.822 27.3658C161.27 28.5831 162.08 31.1332 162.62 33.0112C163.161 34.8893 164.312 39.3117 165.185 42.8552C166.045 46.3906 167.15 50.5467 167.626 52.0932C168.102 53.6398 168.886 55.8253 169.374 56.974C169.848 58.1147 170.588 59.6498 170.981 60.3939C171.396 61.1323 172.179 62.3428 172.7 63.088C173.229 63.8195 174.16 64.9328 174.761 65.5408C175.428 66.2243 176.402 67.013 177.248 67.5799C178.101 68.1331 179.064 68.6576 179.696 68.8976C180.278 69.1273 181.306 69.4141 181.972 69.5638C182.646 69.6998 183.862 69.8208 184.666 69.8299C185.733 69.8275 186.812 69.648 188.536 69.1826C190.013 68.7938 191.572 68.2324 192.557 67.7408C193.453 67.3075 195.221 66.2615 196.491 65.4395C197.761 64.6175 199.632 63.3005 200.649 62.5334C201.667 61.7663 204.135 59.8046 206.125 58.1892C208.129 56.5819 210.852 54.4018 212.193 53.3638C213.534 52.3258 215.945 50.5881 217.552 49.5032C219.159 48.4182 221.199 47.1264 222.092 46.636C222.971 46.1375 224.459 45.3509 225.407 44.8925C226.354 44.434 228.023 43.716 229.118 43.2884C230.205 42.8745 231.979 42.2914 233.065 42.0055C234.142 41.7333 235.881 41.3686 236.93 41.2085C237.979 41.0483 239.606 40.8756 240.555 40.8229C241.497 40.784 243.063 40.7781 244.041 40.834C245.028 40.8762 246.593 41.091 247.541 41.2944C248.488 41.4978 249.775 41.844 250.393 42.076C251.061 42.3183 252.411 42.996 253.651 43.7377C255.261 44.6955 256.058 45.2521 256.972 46.0796C257.63 46.6842 258.573 47.6203 259.056 48.1781C259.548 48.7221 260.466 49.92 261.082 50.8493C261.706 51.7648 262.548 53.157 262.945 53.9583C263.349 54.7458 263.955 56.1654 264.32 57.1141C264.686 58.0629 265.125 59.5145 265.334 60.3535C265.53 61.1845 265.778 62.5242 265.896 63.3289C266.009 64.1119 266.146 65.9568 266.202 67.4051C266.271 68.8613 266.263 71.0812 266.194 72.3649C266.125 73.6485 265.965 75.6878 265.814 76.9234C265.676 78.1671 265.283 80.9528 264.95 83.1304C264.617 85.308 264.199 88.1349 264.046 89.406C263.879 90.6691 263.679 92.8695 263.601 94.2949C263.51 95.7123 263.491 97.7607 263.548 98.8604C263.605 99.96 263.752 101.535 263.877 102.362C264.001 103.188 264.3 104.502 264.541 105.287C264.782 106.071 265.288 107.377 265.677 108.192C266.065 109.007 266.811 110.343 267.349 111.154C267.888 111.964 268.798 113.176 269.383 113.811C269.96 114.46 270.922 115.426 271.528 115.963C272.376 116.716 273.235 117.29 275.361 118.53C277.577 119.805 278.459 120.246 279.925 120.789C280.926 121.152 282.643 121.676 283.741 121.967C284.839 122.258 286.691 122.676 287.886 122.896C289.082 123.115 291.245 123.44 292.699 123.626C294.161 123.798 297.664 124.095 300.506 124.264C303.34 124.447 308.33 124.747 311.606 124.93C314.873 125.126 318.752 125.44 320.206 125.626C321.66 125.812 323.856 126.174 325.071 126.423C326.286 126.673 328.449 127.218 329.873 127.644C331.297 128.07 333.269 128.724 334.262 129.101C335.255 129.478 337.04 130.262 338.212 130.836C339.538 131.462 341.145 132.363 342.366 133.167C343.481 133.872 345.071 135.021 345.937 135.71C346.804 136.399 348.056 137.498 348.731 138.168C349.415 138.824 350.413 139.884 350.957 140.496C351.493 141.121 352.515 142.489 353.222 143.545C353.929 144.601 354.814 146.11 355.21 146.912C355.599 147.726 356.154 149.043 356.444 149.838C356.734 150.632 357.114 151.902 357.287 152.646C357.459 153.39 357.669 154.542 357.748 155.195C357.841 155.856 357.924 157.099 357.959 157.984C357.981 158.861 357.929 160.43 357.838 161.499C357.734 162.56 357.498 164.224 357.271 165.213C357.057 166.21 356.616 167.754 356.292 168.687C355.869 169.948 355.341 171.074 354.181 173.155C353.252 174.875 352.274 176.456 351.658 177.291C351.098 178.031 350.07 179.288 349.35 180.082C348.644 180.883 347.463 182.088 346.714 182.773C345.979 183.466 344.788 184.499 344.06 185.085C343.346 185.68 341.756 186.83 340.565 187.643C339.352 188.461 337.66 189.534 336.767 190.024C335.888 190.523 334.357 191.321 333.371 191.812C332.373 192.296 330.745 193.038 329.729 193.456C328.713 193.875 327.26 194.443 326.517 194.708C325.76 194.965 323.878 195.577 322.339 196.04C320.801 196.503 316.332 197.831 312.422 198.988C308.498 200.137 304.138 201.436 302.708 201.871C301.278 202.305 299.222 202.962 298.124 203.333C297.025 203.703 295.166 204.402 294.017 204.89C292.854 205.37 291.203 206.154 290.362 206.619C289.52 207.084 288.266 207.879 287.565 208.389C286.876 208.906 285.771 209.824 285.125 210.459C284.048 211.485 283.807 211.804 282.727 213.656C281.719 215.385 281.477 215.924 281.202 216.995C281.028 217.703 280.831 218.985 280.76 219.863C280.689 220.741 280.707 222.223 280.787 223.188C280.861 224.133 281.279 226.252 281.693 227.873C282.116 229.48 282.872 231.87 283.378 233.176C283.892 234.469 285.42 238.026 286.775 241.06C288.135 244.115 289.719 247.797 290.292 249.271C290.852 250.738 291.728 253.143 292.211 254.583C292.708 256.031 293.55 258.968 294.088 261.102C294.626 263.236 295.245 266.208 295.475 267.703C295.692 269.19 295.948 271.619 296.031 273.083C296.114 274.548 296.169 276.565 296.154 277.568C296.139 278.57 296.016 280.356 295.889 281.55C295.748 282.737 295.473 284.562 295.257 285.594C295.041 286.627 294.677 288.069 294.466 288.81C294.24 289.543 293.852 290.713 293.585 291.422C293.319 292.131 292.731 293.516 292.275 294.519C291.787 295.576 290.934 297.101 290.236 298.202C289.579 299.234 288.618 300.567 288.094 301.181C287.571 301.795 286.576 302.869 285.876 303.564C285.177 304.259 283.835 305.425 282.913 306.156C281.976 306.878 280.488 307.886 279.593 308.412C278.72 308.932 277.321 309.66 276.492 310.041C275.671 310.408 274.219 310.976 273.272 311.306C272.326 311.637 270.61 312.088 269.464 312.321C268.318 312.553 266.515 312.807 265.465 312.874C264.407 312.955 262.776 312.978 261.839 312.947C260.901 312.915 259.254 312.744 258.19 312.583C257.134 312.409 255.289 312.012 254.122 311.681C252.955 311.349 251.178 310.772 250.185 310.395C249.192 310.018 247.785 309.436 247.065 309.127C246.345 308.817 244.504 307.908 242.989 307.135C241.169 306.22 237.788 304.266 233.144 301.483C228.302 298.566 225.186 296.786 223.307 295.818C221.783 295.058 219.767 294.102 218.847 293.694C217.919 293.3 216.434 292.727 215.542 292.428C214.651 292.129 213.085 291.693 212.053 291.477C211.029 291.248 209.414 291.022 208.493 290.963C207.572 290.904 206.199 290.894 205.47 290.946C204.741 290.999 203.384 291.182 202.499 291.345C201.591 291.515 200.025 291.962 199.006 292.323C198 292.692 196.266 293.428 195.186 293.956C194.106 294.484 192.14 295.617 190.818 296.464C189.497 297.311 187.553 298.659 186.484 299.451C185.415 300.243 183.721 301.572 182.707 302.396C181.693 303.22 179.956 304.56 178.836 305.378C177.702 306.187 175.857 307.427 174.703 308.115C173.562 308.81 171.92 309.764 171.065 310.222C170.197 310.671 168.545 311.454 167.383 311.934C166.234 312.422 164.29 313.108 163.093 313.458C161.883 313.8 160.025 314.243 158.96 314.43C157.903 314.604 156.032 314.818 154.832 314.89C153.632 314.962 151.846 314.968 150.859 314.926C149.881 314.87 148.431 314.741 147.634 314.626C146.838 314.51 145.487 314.274 144.638 314.091C143.788 313.908 142.354 313.531 141.455 313.245C140.547 312.973 139.038 312.442 138.094 312.075C136.887 311.592 135.544 310.9 133.569 309.748C131.526 308.556 130.351 307.797 129.317 306.955C128.533 306.314 127.462 305.376 126.939 304.887C126.416 304.398 125.31 303.238 124.495 302.303C123.672 301.382 122.491 299.847 121.883 298.904C121.275 297.961 120.46 296.585 120.081 295.848C119.702 295.112 119.063 293.655 118.653 292.625C118.251 291.582 117.625 289.598 117.251 288.222C116.9 286.84 116.413 284.681 116.194 283.45C115.961 282.211 115.506 279.242 115.161 276.872C114.816 274.501 114.347 271.524 114.114 270.285C113.895 269.054 113.44 267.061 113.126 265.866C112.804 264.686 112.239 262.977 111.849 262.069C111.46 261.162 110.889 259.965 110.564 259.389C110.23 258.826 109.595 257.867 109.136 257.268C108.684 256.656 107.889 255.751 107.374 255.248C106.866 254.731 105.84 253.875 105.093 253.329C104.345 252.782 103.176 252.045 102.459 251.7C101.749 251.341 100.471 250.853 99.6131 250.592C98.7548 250.33 97.436 250.038 96.6965 249.92C95.9571 249.801 94.6702 249.675 93.8256 249.642C92.989 249.595 91.437 249.609 90.3729 249.669C89.3009 249.742 87.4596 249.936 86.2607 250.101C85.0675 250.288 83.0891 250.623 81.8855 250.858C80.674 251.108 78.3378 251.583 76.6726 251.917C75.029 252.245 72.6357 252.725 71.3728 252.999C70.1178 253.26 68.4548 253.558 67.6719 253.672C66.897 253.771 65.6055 253.937 64.8112 254.007C64.0089 254.09 62.5014 254.185 61.4751 254.212C60.4407 254.252 58.3869 254.212 56.9263 254.132C55.452 254.044 53.1891 253.827 51.8851 253.636C50.5891 253.432 48.6291 253.042 47.5228 252.765C46.4165 252.487 44.692 251.977 43.6829 251.628C42.6738 251.278 41.2075 250.735 40.4384 250.415C39.6693 250.095 37.8054 249.1 36.297 248.22C34.3634 247.092 33.128 246.279 32.1213 245.453C31.3374 244.811 30.0793 243.691 29.3434 242.968C28.6155 242.231 27.5333 241.029 26.9472 240.301C26.369 239.559 25.5075 238.358 25.0299 237.601C24.5443 236.858 23.7982 235.522 23.3572 234.64C22.9162 233.757 22.3336 232.425 22.0548 231.674C21.7841 230.909 21.382 229.645 21.1628 228.855C20.9297 228.057 20.6362 226.764 20.5232 225.981C20.3965 225.19 20.2585 223.915 20.2026 223.128C20.1467 222.342 20.1642 220.863 20.2306 219.835C20.2971 218.807 20.4562 217.337 20.5855 216.549C20.7148 215.76 21.0671 214.274 21.3621 213.233C21.6572 212.191 22.2152 210.605 22.5857 209.718C22.9424 208.822 23.6376 207.316 24.1246 206.386C24.622 205.408 25.5537 203.874 26.3139 202.791C27.0364 201.742 28.1487 200.276 28.7797 199.541C29.4107 198.806 30.5287 197.583 31.2523 196.847C31.9759 196.111 33.0527 195.084 33.6482 194.567C34.2438 194.051 35.212 193.273 35.7812 192.833C36.3584 192.379 37.7518 191.409 38.8731 190.684C40.0024 189.945 41.7947 188.858 42.8714 188.273C43.9481 187.687 45.9129 186.683 47.256 186.05C48.5853 185.41 51.6839 184.037 54.1356 182.985C56.601 181.941 59.1659 180.79 59.8643 180.444C60.5489 180.089 61.852 179.305 62.7299 178.714C63.6077 178.123 64.7508 177.172 65.2915 176.623C65.8184 176.066 66.5181 175.151 66.8622 174.561C67.2383 173.916 67.5745 173.119 67.6957 172.565C67.8147 172.046 67.872 171.16 67.8104 170.572C67.7487 169.985 67.5226 169.081 67.3124 168.59C67.0965 168.078 66.6372 167.259 66.2796 166.738C65.9219 166.216 65.1072 165.281 64.465 164.649C63.776 163.972 62.5247 162.966 61.4014 162.182C59.9649 161.178 58.9776 160.602 57.3559 159.822C56.1697 159.24 52.3824 157.508 48.954 155.95C45.5176 154.405 41.1715 152.402 39.3145 151.521C37.4574 150.64 34.685 149.28 33.1697 148.506C31.6623 147.719 29.3322 146.451 28.0157 145.683C26.6992 144.915 24.6411 143.623 23.4332 142.826C22.2333 142.016 20.5386 140.825 19.6564 140.163C18.7822 139.488 17.4292 138.404 16.6533 137.749C15.8774 137.094 14.5084 135.818 13.6045 134.941C12.7007 134.064 11.3157 132.594 10.5422 131.683C9.76058 130.786 8.54826 129.178 7.833 128.136C7.11773 127.093 6.16483 125.544 5.70783 124.689C5.25082 123.834 4.46824 122.183 3.98043 121.034C3.50062 119.871 2.75241 117.688 2.33095 116.174C1.9095 114.659 1.41501 112.514 1.23807 111.399C1.06112 110.285 0.86824 108.756 0.802087 108.019C0.722215 107.274 0.664183 105.861 0.627787 104.884C0.605104 103.914 0.656857 102.124 0.72908 100.898C0.815021 99.6793 1.00736 97.8058 1.1687 96.7416C1.34376 95.6854 1.68237 93.9708 1.92598 92.9546C2.16961 91.9383 2.66364 90.2408 3.02385 89.1823C3.38405 88.1238 3.97291 86.6103 4.33079 85.8079C4.68866 85.0054 5.09455 84.1206 5.21918 83.844C5.3438 83.5673 5.86285 82.5831 6.39104 81.6777ZM15.7187 91.808C15.3848 92.5693 14.8634 94.0302 14.5626 95.0498C14.2699 96.0558 13.9176 97.5418 13.786 98.3659C13.6487 99.1684 13.5068 100.483 13.454 101.298C13.3956 102.091 13.3805 103.314 13.3781 104.012C13.3974 104.703 13.4886 105.933 13.5856 106.744C13.6826 107.554 13.9909 109.168 14.2639 110.338C14.5448 111.495 15.0245 113.099 15.3067 113.907C15.5968 114.701 16.1326 115.988 16.4959 116.752C16.8512 117.529 17.531 118.79 17.9789 119.566C18.4268 120.342 19.2506 121.577 19.7796 122.308C20.3087 123.04 21.3233 124.294 22.0192 125.086C22.7151 125.878 23.8292 127.024 24.4954 127.615C25.1536 128.22 26.2518 129.173 26.95 129.709C27.6402 130.259 29.4914 131.559 31.0616 132.586C32.7883 133.722 35.5973 135.397 38.1445 136.828C40.4804 138.117 43.2516 139.605 44.3144 140.115C45.3772 140.625 47.5874 141.657 49.2251 142.41C50.8627 143.163 54.0248 144.548 56.2396 145.509C58.4624 146.457 61.5697 147.81 63.125 148.515C64.6884 149.206 67.4448 150.594 69.2378 151.585C71.3543 152.746 73.0387 153.765 73.9895 154.467C74.7974 155.067 76.0156 156.035 76.6818 156.626C77.348 157.217 78.4015 158.31 79.0448 159.034C79.6802 159.773 80.5017 160.822 80.8765 161.408C81.2592 161.981 81.7711 162.868 82.0225 163.382C82.2738 163.897 82.7102 165.071 82.9774 165.999C83.2447 166.927 83.5096 168.332 83.5872 169.112C83.643 169.899 83.6531 171.173 83.6027 171.953C83.566 172.741 83.4035 173.933 83.2673 174.607C83.1175 175.274 82.8201 176.35 82.6155 176.985C82.397 177.611 81.918 178.748 81.543 179.485C81.1657 180.258 80.466 181.394 79.9276 182.128C79.3914 182.826 78.5809 183.806 78.102 184.28C77.623 184.755 76.6182 185.658 75.8661 186.286C75.114 186.913 73.8726 187.844 73.0999 188.349C72.3409 188.862 70.9487 189.705 70.0046 190.221C69.0742 190.744 67.3471 191.594 66.1881 192.131C65.0154 192.66 62.1545 193.878 59.808 194.844C57.4614 195.81 54.5571 197.039 53.3467 197.602C52.1225 198.156 50.328 199.058 49.3542 199.593C48.3803 200.128 46.7664 201.099 45.7719 201.732C44.7775 202.366 43.2664 203.507 42.3988 204.269C41.5449 205.04 40.3527 206.201 39.7617 206.867C39.1707 207.534 38.1864 208.78 37.5759 209.637C36.9655 210.495 36.1858 211.768 35.8268 212.478C35.4815 213.196 34.9647 214.365 34.6743 215.115C34.3838 215.865 34.0053 217.207 33.812 218.106C33.6324 219.012 33.4402 220.224 33.4092 220.812C33.3782 221.401 33.3975 222.534 33.467 223.328C33.5366 224.123 33.7844 225.462 34.0151 226.296C34.2401 227.107 34.6765 228.281 34.9781 228.898C35.2877 229.502 35.8304 230.462 36.2052 231.048C36.5879 231.621 37.3707 232.611 37.9477 233.26C38.5247 233.909 39.4949 234.861 40.1005 235.399C40.8879 236.097 41.8078 236.725 43.4534 237.686C44.9756 238.574 46.1892 239.171 47.1549 239.532C47.948 239.811 49.2303 240.228 50.028 240.436C50.8177 240.658 52.172 240.952 53.0451 241.093C53.9183 241.235 55.3446 241.405 56.2223 241.476C57.1 241.547 58.6338 241.596 59.6521 241.583C60.6704 241.57 62.5643 241.443 63.8615 241.299C65.1587 241.155 67.32 240.853 68.6732 240.613C70.0184 240.387 73.4632 239.712 76.332 239.142C79.1951 238.551 82.6102 237.896 83.8903 237.686C85.1784 237.463 86.9533 237.194 87.8208 237.093C88.6883 236.992 90.2986 236.847 91.4061 236.776C92.5056 236.719 94.1308 236.674 95.0406 236.69C95.9423 236.72 97.4166 236.807 98.3218 236.894C99.2189 236.995 100.698 237.232 101.596 237.425C102.494 237.619 104.033 238.038 105.001 238.364C106.532 238.889 107.159 239.2 109.71 240.688C111.828 241.942 113.049 242.747 114.091 243.575C114.875 244.216 116.081 245.269 116.764 245.925C117.448 246.581 118.458 247.685 119.019 248.362C119.58 249.039 120.494 250.307 121.049 251.183C121.612 252.045 122.386 253.397 122.774 254.212C123.171 255.013 123.726 256.33 124.016 257.124C124.298 257.932 124.807 259.645 125.136 260.94C125.459 262.213 125.85 263.968 126.002 264.81C126.168 265.661 126.606 268.564 126.979 271.264C127.353 273.964 127.776 276.767 127.9 277.5C128.037 278.242 128.321 279.677 128.546 280.709C128.757 281.733 129.231 283.536 129.61 284.713C129.99 285.89 130.579 287.558 130.943 288.414C131.308 289.27 132.01 290.618 132.507 291.404C133.004 292.191 133.943 293.418 134.586 294.143C135.221 294.881 136.23 295.893 136.836 296.43C137.67 297.174 138.543 297.757 140.6 298.957C142.808 300.245 143.553 300.606 144.822 301.015C145.664 301.304 147.142 301.67 148.097 301.86C149.052 302.049 150.307 302.23 150.888 302.274C151.476 302.305 152.558 302.311 153.279 302.272C153.992 302.247 155.289 302.103 156.124 301.964C156.958 301.826 158.432 301.472 159.404 301.193C160.362 300.906 161.891 300.364 162.798 299.975C163.706 299.585 165.071 298.947 165.845 298.534C166.618 298.121 168.141 297.244 169.224 296.553C170.308 295.861 172.042 294.685 173.087 293.934C174.131 293.183 176.218 291.623 177.715 290.474C179.212 289.325 181.298 287.766 182.343 287.015C183.388 286.264 185.287 284.963 186.556 284.141C187.826 283.319 189.64 282.226 190.584 281.71C191.529 281.195 192.793 280.572 193.386 280.311C193.979 280.05 195.256 279.563 196.21 279.219C197.178 278.883 198.858 278.429 199.94 278.214C201.029 277.985 202.815 277.759 203.923 277.688C205.03 277.617 206.844 277.627 207.964 277.692C209.084 277.757 210.75 277.957 211.673 278.109C212.587 278.275 214.228 278.644 215.326 278.935C216.425 279.227 218.319 279.854 219.57 280.326C220.806 280.79 222.87 281.663 224.149 282.244C226.044 283.092 228.33 284.37 236.506 289.103C242.795 292.754 247.223 295.245 248.411 295.791C249.447 296.285 250.816 296.9 251.467 297.17C252.111 297.453 253.473 297.954 254.482 298.303C255.491 298.653 257.021 299.086 257.871 299.269C258.72 299.452 260.087 299.661 260.907 299.735C261.728 299.809 263.122 299.814 264.015 299.764C264.894 299.707 266.446 299.473 267.429 299.237C268.412 299.002 269.849 298.553 270.589 298.231C271.342 297.917 272.565 297.269 273.322 296.792C274.079 296.314 275.185 295.488 275.805 294.93C276.438 294.381 277.422 293.355 278.01 292.632C278.866 291.605 279.347 290.875 280.255 289.161C281.112 287.565 281.555 286.555 281.911 285.346C282.196 284.447 282.55 283.053 282.703 282.223C282.87 281.402 283.065 279.713 283.161 278.446C283.257 277.178 283.276 275.129 283.201 273.872C283.139 272.623 282.946 270.653 282.78 269.49C282.599 268.318 282.043 265.806 281.541 263.894C281.046 261.969 280.224 259.283 279.717 257.884C279.201 256.499 278.262 254.076 277.609 252.518C276.963 250.946 275.134 246.772 273.555 243.24C271.977 239.708 270.366 236.01 269.981 235.032C269.604 234.04 268.939 231.997 268.518 230.482C268.118 228.962 267.635 226.86 267.475 225.811C267.315 224.761 267.143 223.135 267.091 222.185C267.052 221.243 267.059 219.592 267.114 218.521C267.183 217.458 267.428 215.652 267.664 214.522C267.888 213.383 268.4 211.623 268.788 210.58C269.389 208.982 269.722 208.349 270.969 206.337C272.002 204.66 272.752 203.627 273.526 202.773C274.131 202.114 275.323 200.953 276.191 200.19C277.058 199.428 278.837 198.112 280.158 197.265C281.48 196.418 283.183 195.389 283.957 194.976C284.73 194.563 286.431 193.79 287.748 193.235C289.065 192.679 290.984 191.942 292.017 191.588C293.05 191.235 294.919 190.615 296.167 190.24C297.401 189.857 301.521 188.657 305.298 187.569C309.076 186.482 313.282 185.258 314.646 184.841C316.011 184.424 318.235 183.699 319.597 183.224C320.958 182.75 322.948 182.017 324.043 181.589C325.124 181.154 326.99 180.349 328.173 179.77C329.37 179.2 331.129 178.296 332.084 177.731C333.052 177.174 334.522 176.23 335.366 175.601C336.211 174.972 337.384 174.002 337.968 173.441C338.566 172.889 339.445 171.95 339.931 171.369C340.43 170.796 341.273 169.541 341.841 168.567C342.545 167.36 343.023 166.352 343.386 165.258C343.691 164.388 344.047 162.959 344.175 162.078C344.317 161.204 344.423 159.888 344.426 159.19C344.414 158.485 344.372 157.265 344.309 156.493C344.226 155.562 344 154.658 343.616 153.772C343.322 153.049 342.736 151.879 342.34 151.171C341.937 150.476 341.249 149.449 340.823 148.888C340.405 148.313 339.441 147.255 338.706 146.531C337.849 145.7 336.754 144.804 335.71 144.104C334.791 143.475 333.296 142.603 332.31 142.119C331.351 141.652 329.695 140.962 328.609 140.586C327.545 140.204 325.659 139.656 324.419 139.355C323.179 139.055 321.031 138.61 319.65 138.393C318.264 138.154 315.929 137.84 314.459 137.681C312.998 137.509 308.154 137.147 303.717 136.875C299.281 136.604 294.35 136.265 292.758 136.126C291.166 135.988 288.756 135.74 287.387 135.567C286.018 135.393 283.505 134.975 281.785 134.615C280.073 134.242 277.819 133.662 276.761 133.302C275.702 132.942 273.768 132.163 272.448 131.558C270.692 130.755 269.338 130.02 267.354 128.789C265.507 127.638 264.186 126.72 263.174 125.872C262.365 125.18 261.115 124.046 260.42 123.346C259.725 122.647 258.663 121.475 258.068 120.761C257.474 120.047 256.469 118.651 255.828 117.67C255.187 116.69 254.384 115.357 254.063 114.71C253.742 114.063 253.201 112.847 252.87 112.028C252.539 111.21 252.055 109.77 251.804 108.814C251.545 107.872 251.232 106.329 251.114 105.396C250.983 104.456 250.838 102.845 250.785 101.803C250.731 100.76 250.714 98.9301 250.749 97.7367C250.783 96.5433 250.944 94.2835 251.124 92.7152C251.29 91.1388 251.716 87.9496 252.045 85.6223C252.395 83.2893 252.775 80.4956 252.909 79.4154C253.029 78.3272 253.201 76.7726 253.289 75.9598C253.363 75.1391 253.44 73.6211 253.479 72.5774C253.505 71.5258 253.464 69.7369 253.403 68.5802C253.343 67.4234 253.107 65.6859 252.885 64.7109C252.65 63.7279 252.264 62.4362 252.003 61.843C251.751 61.236 251.263 60.3079 250.913 59.773C250.564 59.2381 249.927 58.4071 249.502 57.9385C249.036 57.4459 248.186 56.7292 247.456 56.2481C246.61 55.6812 245.804 55.2663 244.976 54.9852C244.308 54.7429 243.118 54.4527 242.329 54.3236C241.54 54.1945 240.135 54.1466 239.193 54.1855C238.129 54.2451 236.574 54.515 235.068 54.9232C233.149 55.44 232.084 55.8482 229.761 56.9938C228.167 57.7735 225.752 59.1408 224.392 60.0211C223.047 60.9094 220.779 62.5282 219.385 63.6268C217.99 64.7254 215.014 67.181 212.779 69.0581C210.558 70.9433 207.746 73.2742 206.51 74.2265C205.289 75.1868 203.51 76.5026 202.557 77.16C201.603 77.8173 199.944 78.8348 198.881 79.4282C197.818 80.0215 196.134 80.8596 195.132 81.286C194.129 81.7125 192.562 82.2876 191.656 82.5494C190.749 82.8113 189.318 83.1531 188.484 83.2915C187.65 83.4299 186.274 83.5832 185.43 83.6427C184.595 83.6885 183.124 83.6578 182.162 83.5744C181.199 83.4911 179.816 83.3095 179.101 83.1495C178.386 82.9895 177.134 82.6456 176.333 82.3805C175.379 82.0628 174.073 81.4662 172.559 80.657C171.088 79.8719 169.768 79.0467 168.913 78.4009C168.174 77.8409 166.88 76.7185 166.05 75.9036C165.221 75.0886 163.998 73.7502 163.375 72.9273C162.745 72.118 161.847 70.8219 161.377 70.0515C160.907 69.2811 159.932 67.4248 159.197 65.9115C158.462 64.3981 157.456 62.0274 156.941 60.6421C156.447 59.251 155.593 56.3991 155.031 54.3062C154.469 52.2133 153.37 47.8583 152.577 44.6189C151.797 41.3875 150.849 37.7823 150.477 36.5913C150.098 35.4139 149.469 33.5942 149.067 32.5507C148.665 31.5071 147.931 29.8657 147.44 28.8804C146.949 27.8951 146.1 26.3886 145.544 25.5131C144.981 24.6512 144.108 23.4065 143.583 22.7321C143.049 22.0715 142.127 21.0371 141.518 20.4428C140.917 19.8347 139.695 18.8095 138.805 18.1614C137.56 17.2699 136.793 16.8219 135.522 16.2276C134.602 15.8196 133.179 15.2654 132.354 15.0414C131.537 14.8037 130.253 14.5146 129.522 14.3821C128.782 14.2633 127.45 14.1845 126.546 14.1903C125.655 14.2041 124.26 14.3277 123.439 14.4741C122.64 14.6148 121.286 14.983 120.432 15.3122C119.578 15.6415 118.352 16.2315 117.706 16.6453C117.039 17.0649 116.129 17.7108 115.676 18.1086C115.223 18.5064 114.516 19.2152 114.102 19.6725C113.688 20.1297 112.903 21.1609 112.374 21.9736C111.812 22.8413 111.095 24.133 110.669 25.1161C110.247 26.0283 109.655 27.7053 109.325 28.8369C108.996 29.9686 108.593 31.793 108.422 32.9063C108.25 34.0197 108.037 36.2121 107.95 37.7793C107.877 39.3544 107.837 43.266 107.865 46.4632C107.907 49.6684 107.837 53.82 107.732 55.6707C107.626 57.5213 107.401 59.7983 107.235 60.7128C107.055 61.6193 106.775 62.9818 106.591 63.7386C106.407 64.4953 106.041 65.7527 105.805 66.5346C105.548 67.3222 104.975 68.8083 104.525 69.8325C104.066 70.8705 103.402 72.2296 103.026 72.8744C102.65 73.5191 101.957 74.549 101.488 75.1949C101.006 75.8328 100.279 76.7325 99.8649 77.1897C99.4511 77.647 98.6601 78.4358 98.116 78.9273C97.5581 79.4109 96.5683 80.194 95.8904 80.6627C95.2126 81.1314 94.1016 81.8071 93.4169 82.1615C92.7323 82.5159 91.443 83.0876 90.532 83.4203C89.6211 83.753 88.0495 84.1784 87.0254 84.3899C85.9957 84.5798 84.3098 84.7914 83.2595 84.8589C82.2092 84.9265 80.5508 84.9335 79.5725 84.8775C78.5942 84.8216 77.0319 84.664 76.1016 84.5258C75.1713 84.3876 73.681 84.1065 72.7907 83.8997C71.9004 83.6929 70.3976 83.2758 69.4708 82.9741C68.5222 82.6781 67.0617 82.157 66.2023 81.8027C65.3349 81.4622 62.671 80.2942 60.2803 79.1936C57.8815 78.1068 55.1022 76.8531 54.084 76.4245C53.0737 75.9822 51.2544 75.2885 50.0293 74.868C48.8041 74.4475 47.107 73.9538 46.2579 73.771C45.4088 73.5882 43.6659 73.362 42.4121 73.2741C41.1447 73.1782 39.372 73.1921 38.4394 73.3099C37.5148 73.414 35.8552 73.7696 34.7671 74.0909C33.6653 74.4042 32.0823 75.0068 31.2239 75.4069C30.3792 75.8151 29.2237 76.4096 28.6613 76.7434C28.0989 77.0772 26.9593 77.8649 26.1363 78.488C25.3133 79.111 24.0868 80.1422 23.4272 80.7686C22.7814 81.4031 21.9984 82.1782 21.692 82.5142C21.3937 82.8366 20.6849 83.6734 20.135 84.3639C19.5852 85.0543 18.5975 86.4638 17.9538 87.5041C17.3102 88.5444 16.678 89.628 16.5533 89.9047C16.4287 90.1813 16.0525 91.0467 15.7187 91.808Z" fill="#02AF85"/>
</svg>
