<svg width="279" height="266" viewBox="0 0 279 266" fill="none" xmlns="http://www.w3.org/2000/svg">
<path fill-rule="evenodd" clip-rule="evenodd" d="M274.413 192.925C274.009 193.716 273.307 194.926 272.869 195.607C272.42 196.282 271.599 197.429 271.053 198.144C270.506 198.858 269.473 200.091 268.75 200.88C268.04 201.675 266.875 202.838 266.186 203.477C265.486 204.11 264.326 205.092 263.603 205.653C262.886 206.201 261.778 206.998 261.131 207.416C260.495 207.84 259.513 208.43 258.964 208.748C258.41 209.047 257.302 209.616 256.511 209.989C255.721 210.361 253.846 211.056 252.338 211.519C250.259 212.167 249.189 212.406 247.839 212.543C246.863 212.634 245.34 212.694 244.433 212.654C243.526 212.615 241.853 212.443 240.697 212.241C239.553 212.045 237.747 211.635 236.696 211.322C235.639 211.02 234.177 210.564 233.438 210.294C232.693 210.036 230.16 209.073 227.801 208.157C225.448 207.229 222.796 206.234 221.901 205.942C221.013 205.638 219.651 205.251 218.874 205.052C218.097 204.853 216.835 204.595 216.062 204.474C215.289 204.353 214.185 204.255 213.602 204.235C213.019 204.215 211.972 204.268 211.267 204.336C210.562 204.403 209.499 204.601 208.905 204.773C208.039 205.029 207.534 205.294 206.42 206.103C205.655 206.656 204.753 207.411 204.419 207.781C204.086 208.152 203.457 209.052 203.024 209.781C202.442 210.766 202.112 211.473 201.781 212.47C201.523 213.216 201.175 214.675 200.994 215.705C200.804 216.837 200.64 218.667 200.601 220.29C200.559 221.775 200.611 224.891 200.736 227.21C200.86 229.528 200.977 232.436 201.007 233.669C201.026 234.897 201.009 236.592 200.953 237.445C200.884 238.291 200.702 239.869 200.526 240.947C200.349 242.025 200.016 243.629 199.779 244.508C199.553 245.392 199.154 246.718 198.884 247.457C198.626 248.203 198.064 249.549 197.634 250.447C197.184 251.41 196.48 252.68 195.937 253.503C195.431 254.285 194.548 255.491 193.966 256.187C193.396 256.889 192.513 257.866 192.014 258.348C191.504 258.823 190.606 259.625 190.006 260.098C189.405 260.571 188.426 261.269 187.828 261.652C187.229 262.035 186.017 262.686 185.123 263.109C184.229 263.533 182.76 264.094 181.87 264.367C180.973 264.653 179.492 264.978 178.581 265.119C177.669 265.26 176.439 265.399 175.838 265.415C175.236 265.43 174.082 265.427 173.265 265.389C172.448 265.352 171.11 265.206 170.272 265.066C169.445 264.932 168.052 264.604 167.175 264.337C166.279 264.075 164.967 263.622 164.234 263.34C163.406 263.008 162.046 262.332 160.575 261.491C159.097 260.662 157.676 259.756 156.707 259.03C155.862 258.414 154.806 257.565 154.353 257.157C153.9 256.75 153.177 256.047 152.743 255.604C152.309 255.16 151.705 254.49 151.395 254.128C151.092 253.754 150.421 252.866 149.898 252.132C149.386 251.404 148.673 250.311 148.315 249.695C147.951 249.061 147.376 247.994 147.032 247.295C146.681 246.607 146.06 245.197 145.646 244.17C145.225 243.156 144.452 241.027 143.931 239.457C143.409 237.887 142.284 234.185 141.423 231.218C140.574 228.257 139.497 224.779 139.041 223.487C138.585 222.195 137.847 220.374 137.395 219.419C136.955 218.47 136.276 217.197 135.918 216.581C135.542 215.971 134.838 214.974 134.372 214.361C133.899 213.76 133.073 212.851 132.544 212.357C131.956 211.802 131.105 211.168 130.371 210.718C129.629 210.279 128.798 209.868 128.255 209.687C127.754 209.513 126.875 209.305 126.306 209.202C125.731 209.11 124.698 209.049 124.018 209.069C123.115 209.108 122.209 209.297 120.767 209.749C119.531 210.129 118.232 210.657 117.415 211.107C116.672 211.504 115.212 212.45 114.166 213.189C113.12 213.928 111.583 215.106 110.748 215.79C109.914 216.474 107.894 218.218 106.266 219.653C104.626 221.081 102.397 223.019 101.298 223.943C100.2 224.867 98.2204 226.42 96.8983 227.393C95.5761 228.366 93.8946 229.528 93.1563 229.974C92.4299 230.426 91.198 231.142 90.4122 231.563C89.6265 231.983 88.2395 232.647 87.328 233.047C86.4227 233.434 84.9422 233.988 84.0336 234.268C83.1312 234.535 81.6732 234.903 80.7912 235.074C79.9092 235.246 78.5394 235.448 77.7378 235.525C76.9425 235.59 75.6182 235.649 74.7887 235.635C73.953 235.634 72.6212 235.506 71.8128 235.366C71.0044 235.227 69.9039 234.978 69.373 234.803C68.8001 234.621 67.6342 234.094 66.5599 233.509C65.165 232.754 64.4721 232.311 63.6704 231.642C63.0929 231.153 62.2633 230.394 61.8353 229.939C61.401 229.495 60.5827 228.514 60.0299 227.749C59.4707 226.996 58.7106 225.847 58.3478 225.183C57.9786 224.531 57.4177 223.35 57.0759 222.56C56.7341 221.771 56.3122 220.558 56.1066 219.855C55.9129 219.159 55.6573 218.034 55.5293 217.358C55.4068 216.699 55.2277 215.143 55.1308 213.92C55.0221 212.691 54.9529 210.813 54.9671 209.724C54.9812 208.636 55.0468 206.906 55.1322 205.855C55.2057 204.798 55.443 202.429 55.6499 200.575C55.8568 198.722 56.113 196.316 56.1991 195.236C56.2971 194.161 56.3901 192.293 56.4071 191.085C56.436 189.883 56.3814 188.149 56.2955 187.221C56.2095 186.293 56.031 184.966 55.8974 184.271C55.7637 183.576 55.4655 182.474 55.2347 181.819C55.0039 181.164 54.531 180.076 54.1744 179.4C53.8178 178.724 53.1408 177.62 52.6578 176.953C52.1747 176.286 51.3628 175.292 50.8461 174.775C50.3357 174.245 49.4887 173.461 48.9579 173.028C48.2148 172.421 47.4681 171.964 45.6276 170.988C43.7094 169.986 42.948 169.643 41.6891 169.234C40.8298 168.961 39.3598 168.578 38.4208 168.369C37.4817 168.16 35.9013 167.87 34.8825 167.725C33.8638 167.581 32.0226 167.381 30.7865 167.273C29.5441 167.177 26.5708 167.047 24.1607 167.001C21.7568 166.944 17.5257 166.862 14.7486 166.82C11.9779 166.766 8.68597 166.633 7.44986 166.526C6.21378 166.418 4.34328 166.187 3.30708 166.018C2.27089 165.849 0.422145 165.463 -0.797024 165.151C-2.01619 164.839 -3.70622 164.354 -4.55922 164.069C-5.41226 163.784 -6.94912 163.182 -7.96067 162.737C-9.10352 162.253 -10.4936 161.546 -11.5546 160.908C-12.5213 160.349 -13.9063 159.432 -14.6627 158.879C-15.4191 158.326 -16.5162 157.44 -17.1104 156.896C-17.711 156.365 -18.5922 155.502 -19.0733 155.003C-19.5481 154.493 -20.4592 153.371 -21.0937 152.502C-21.7282 151.633 -22.5281 150.387 -22.891 149.722C-23.2475 149.046 -23.7624 147.952 -24.0351 147.29C-24.3078 146.628 -24.6732 145.566 -24.8446 144.943C-25.016 144.319 -25.2333 143.352 -25.3223 142.803C-25.4232 142.247 -25.5363 141.198 -25.5965 140.451C-25.6448 139.71 -25.655 138.38 -25.6152 137.473C-25.5635 136.572 -25.4212 135.156 -25.2626 134.312C-25.1159 133.462 -24.7955 132.14 -24.5538 131.34C-24.2392 130.259 -23.8311 129.288 -22.9219 127.488C-22.1947 126.001 -21.4222 124.63 -20.9297 123.902C-20.4812 123.258 -19.6551 122.159 -19.0731 121.463C-18.503 120.761 -17.5456 119.701 -16.9358 119.096C-16.3378 118.485 -15.3658 117.57 -14.77 117.049C-14.1861 116.521 -12.8806 115.494 -11.901 114.765C-10.9033 114.031 -9.50908 113.066 -8.77081 112.62C-8.04441 112.169 -6.77623 111.441 -5.95965 110.991C-5.13125 110.548 -3.77996 109.864 -2.93481 109.476C-2.08965 109.087 -0.880291 108.556 -0.260977 108.306C0.370254 108.063 1.9416 107.481 3.22705 107.036C4.5125 106.591 8.24719 105.315 11.515 104.202C14.7946 103.095 18.4384 101.847 19.633 101.43C20.8276 101.013 22.5443 100.387 23.4607 100.036C24.3771 99.6846 25.9262 99.0298 26.8811 98.5774C27.8479 98.1313 29.2181 97.4121 29.9137 96.9896C30.6094 96.5671 31.6428 95.8519 32.2189 95.3966C32.7832 94.9348 33.6867 94.1204 34.2112 93.5615C35.0868 92.6562 35.2799 92.3781 36.1302 90.7745C36.9238 89.2778 37.1093 88.8131 37.3057 87.8976C37.4285 87.2931 37.5509 86.2015 37.5809 85.4565C37.6108 84.7114 37.5447 83.4589 37.444 82.6446C37.3488 81.8485 36.9226 80.0702 36.5162 78.7134C36.1036 77.3684 35.3819 75.3726 34.9089 74.2849C34.4297 73.209 33.0155 70.2525 31.7652 67.7329C30.5093 65.1952 29.0435 62.1352 28.5078 60.9076C27.9839 59.6863 27.1602 57.6821 26.702 56.4804C26.232 55.2724 25.4191 52.8174 24.8908 51.0307C24.3625 49.2439 23.7369 46.7512 23.4905 45.4944C23.256 44.244 22.9564 42.1981 22.8357 40.9623C22.7151 39.7265 22.5997 38.0218 22.578 37.1733C22.5563 36.3248 22.5987 34.8102 22.6652 33.7954C22.7435 32.7869 22.9131 31.2333 23.0606 30.3527C23.208 29.4722 23.4661 28.2394 23.6197 27.6056C23.7851 26.978 24.0738 25.9745 24.2748 25.3659C24.4758 24.7572 24.9253 23.5651 25.2768 22.7014C25.6535 21.7902 26.3226 20.471 26.8747 19.5158C27.3953 18.6201 28.1627 17.4595 28.5845 16.9223C29.0063 16.385 29.8107 15.4419 30.3786 14.83C30.9465 14.218 32.0416 13.1856 32.7968 12.5359C33.5639 11.8926 34.7882 10.9896 35.5272 10.514C36.2481 10.044 37.4065 9.3799 38.0944 9.02939C38.776 8.69078 39.9853 8.16022 40.7745 7.84821C41.5637 7.53621 42.9994 7.09524 43.9611 6.85949C44.9229 6.62376 46.4388 6.34707 47.3249 6.25388C48.2174 6.14881 49.5962 6.07334 50.39 6.06817C51.1839 6.06299 52.5828 6.15037 53.4883 6.25009C54.3876 6.36168 55.9625 6.63369 56.9609 6.87395C57.9593 7.11419 59.4824 7.54133 60.3354 7.82624C61.1884 8.11114 62.3984 8.55489 63.0181 8.79214C63.6377 9.0294 65.2262 9.73474 66.5346 10.3372C68.105 11.0481 71.0325 12.5852 75.0566 14.7798C79.2525 17.0807 81.9488 18.48 83.5722 19.2343C84.8869 19.8249 86.625 20.5638 87.4172 20.8774C88.2156 21.179 89.492 21.6123 90.2563 21.8349C91.0207 22.0576 92.36 22.3721 93.2404 22.5193C94.1145 22.6785 95.4882 22.8134 96.2695 22.832C97.0507 22.8505 98.2121 22.812 98.8271 22.7424C99.4421 22.6728 100.583 22.4714 101.327 22.3027C102.089 22.1284 103.398 21.6964 104.248 21.3558C105.086 21.0088 106.528 20.3274 107.423 19.8436C108.319 19.3597 109.943 18.3338 111.032 17.5718C112.12 16.8099 113.719 15.603 114.595 14.8961C115.472 14.1893 116.86 13.0074 117.689 12.2754C118.518 11.5433 119.942 10.3503 120.861 9.62039C121.793 8.89679 123.311 7.7842 124.264 7.16336C125.205 6.53621 126.56 5.67235 127.268 5.25616C127.987 4.84626 129.358 4.12708 130.324 3.68097C131.279 3.22856 132.9 2.58151 133.901 2.24445C134.913 1.91368 136.469 1.47556 137.363 1.28033C138.251 1.09698 139.827 0.851781 140.839 0.749566C141.852 0.647351 143.363 0.581039 144.199 0.582878C145.028 0.596588 146.259 0.655929 146.937 0.726172C147.615 0.796422 148.766 0.950081 149.49 1.07556C150.215 1.20105 151.441 1.47078 152.212 1.68156C152.989 1.88046 154.284 2.27811 155.095 2.556C156.132 2.92348 157.292 3.46226 159.002 4.36895C160.771 5.30713 161.791 5.90873 162.695 6.58576C163.38 7.10122 164.318 7.85725 164.777 8.25308C165.237 8.6489 166.212 9.59227 166.934 10.3552C167.661 11.1062 168.713 12.3641 169.26 13.1409C169.806 13.9177 170.543 15.0538 170.889 15.6635C171.235 16.2731 171.825 17.4839 172.208 18.341C172.584 19.21 173.181 20.866 173.544 22.0173C173.889 23.1742 174.375 24.984 174.603 26.0178C174.842 27.058 175.33 29.5534 175.703 31.5469C176.076 33.5404 176.575 36.0421 176.814 37.0823C177.042 38.1161 177.495 39.7867 177.802 40.7864C178.115 41.7741 178.652 43.2002 179.012 43.9545C179.373 44.7088 179.896 45.7016 180.191 46.1777C180.493 46.642 181.063 47.4313 181.472 47.9222C181.875 48.4249 182.579 49.1634 183.032 49.5711C183.479 49.9907 184.377 50.6796 185.028 51.116C185.678 51.5525 186.693 52.1359 187.312 52.4032C187.924 52.6824 189.022 53.0513 189.757 53.2432C190.492 53.4351 191.617 53.6363 192.247 53.7114C192.877 53.7865 193.969 53.8486 194.685 53.8476C195.394 53.8584 196.707 53.7934 197.605 53.7065C198.509 53.6077 200.06 53.38 201.068 53.1995C202.071 53.0008 203.733 52.6494 204.743 52.4088C205.759 52.1563 207.719 51.6737 209.116 51.334C210.495 51 212.504 50.5125 213.562 50.2369C214.615 49.9733 216.011 49.6637 216.67 49.541C217.322 49.4302 218.409 49.2456 219.078 49.1593C219.754 49.0611 221.026 48.9289 221.893 48.8714C222.767 48.8019 224.505 48.7651 225.744 48.7825C226.994 48.8062 228.915 48.9121 230.025 49.0287C231.128 49.1572 232.8 49.4194 233.745 49.6163C234.69 49.8132 236.167 50.1851 237.032 50.4462C237.898 50.7074 239.157 51.1162 239.818 51.3605C240.48 51.6048 242.091 52.3828 243.397 53.0754C245.071 53.9632 246.144 54.6082 247.024 55.2726C247.709 55.7881 248.812 56.6924 249.459 57.2791C250.1 57.8777 251.057 58.8567 251.578 59.4525C252.092 60.0601 252.862 61.0467 253.292 61.6703C253.729 62.2821 254.406 63.3868 254.809 64.1181C255.212 64.8493 255.751 65.9567 256.012 66.5824C256.268 67.2199 256.651 68.2755 256.864 68.9361C257.088 69.603 257.381 70.6865 257.504 71.3449C257.638 72.0097 257.798 73.084 257.873 73.7473C257.947 74.4106 257.983 75.6624 257.962 76.534C257.941 77.4055 257.857 78.6545 257.775 79.3261C257.692 79.9977 257.445 81.2668 257.232 82.1578C257.018 83.0489 256.6 84.4101 256.317 85.1732C256.046 85.9426 255.51 87.2409 255.13 88.0438C254.743 88.8886 254.007 90.2182 253.402 91.1601C252.826 92.0726 251.936 93.3504 251.427 93.9939C250.919 94.6373 250.015 95.7104 249.428 96.358C248.842 97.0056 247.966 97.911 247.48 98.3685C246.994 98.826 246.202 99.5169 245.735 99.9087C245.262 100.312 244.117 101.181 243.194 101.833C242.264 102.496 240.785 103.478 239.894 104.01C239.004 104.542 237.376 105.459 236.262 106.04C235.159 106.628 232.585 107.895 230.547 108.869C228.498 109.837 226.368 110.899 225.789 111.216C225.222 111.539 224.147 112.247 223.424 112.778C222.702 113.308 221.768 114.151 221.329 114.634C220.903 115.123 220.342 115.922 220.071 116.433C219.775 116.991 219.518 117.676 219.435 118.15C219.352 118.593 219.334 119.344 219.406 119.839C219.479 120.334 219.701 121.091 219.896 121.498C220.096 121.924 220.512 122.602 220.833 123.03C221.153 123.459 221.875 124.222 222.439 124.734C223.046 125.284 224.139 126.092 225.116 126.716C226.365 127.516 227.22 127.969 228.619 128.574C229.642 129.025 232.905 130.36 235.859 131.561C238.819 132.75 242.564 134.294 244.165 134.976C245.766 135.657 248.158 136.713 249.466 137.315C250.768 137.929 252.783 138.921 253.923 139.526C255.063 140.13 256.848 141.153 257.897 141.785C258.94 142.43 260.415 143.379 261.184 143.908C261.946 144.45 263.128 145.32 263.807 145.847C264.486 146.375 265.688 147.407 266.482 148.118C267.277 148.829 268.499 150.024 269.185 150.768C269.876 151.5 270.957 152.819 271.598 153.676C272.239 154.534 273.098 155.811 273.514 156.519C273.93 157.226 274.649 158.596 275.101 159.551C275.547 160.518 276.254 162.339 276.663 163.606C277.071 164.873 277.563 166.67 277.751 167.607C277.939 168.544 278.155 169.83 278.236 170.451C278.329 171.079 278.427 172.272 278.491 173.097C278.544 173.917 278.562 175.433 278.543 176.473C278.512 177.506 278.413 179.098 278.313 180.003C278.202 180.903 277.974 182.365 277.803 183.233C277.632 184.101 277.272 185.554 277.004 186.462C276.735 187.369 276.289 188.67 276.014 189.361C275.739 190.052 275.426 190.814 275.33 191.053C275.234 191.291 274.829 192.141 274.413 192.925ZM266.175 184.676C266.431 184.021 266.822 182.767 267.042 181.894C267.255 181.034 267.502 179.764 267.585 179.063C267.673 178.379 267.748 177.262 267.765 176.571C267.787 175.898 267.758 174.863 267.736 174.273C267.696 173.689 267.576 172.651 267.467 171.969C267.357 171.287 267.04 169.932 266.769 168.952C266.492 167.983 266.031 166.643 265.765 165.969C265.492 165.307 264.995 164.236 264.661 163.603C264.334 162.958 263.715 161.915 263.31 161.274C262.904 160.632 262.165 159.617 261.693 159.016C261.22 158.415 260.319 157.39 259.703 156.743C259.087 156.097 258.105 155.166 257.521 154.689C256.944 154.2 255.982 153.431 255.373 153.002C254.77 152.561 253.16 151.524 251.796 150.71C250.297 149.808 247.863 148.487 245.659 147.364C243.639 146.354 241.244 145.19 240.327 144.796C239.411 144.401 237.506 143.604 236.095 143.023C234.683 142.442 231.961 141.379 230.055 140.642C228.142 139.917 225.467 138.879 224.127 138.336C222.781 137.805 220.402 136.726 218.851 135.949C217.021 135.04 215.561 134.235 214.732 133.674C214.028 133.195 212.965 132.417 212.381 131.941C211.797 131.464 210.868 130.575 210.299 129.985C209.737 129.382 209.006 128.522 208.668 128.039C208.325 127.568 207.862 126.835 207.631 126.409C207.401 125.982 206.992 125.004 206.734 124.228C206.476 123.453 206.203 122.273 206.111 121.616C206.037 120.952 205.984 119.874 206 119.213C206.004 118.546 206.101 117.532 206.193 116.957C206.297 116.388 206.511 115.467 206.663 114.923C206.826 114.386 207.192 113.408 207.484 112.771C207.777 112.105 208.329 111.12 208.76 110.48C209.189 109.871 209.841 109.014 210.23 108.597C210.619 108.179 211.438 107.381 212.052 106.824C212.667 106.267 213.685 105.437 214.321 104.983C214.946 104.523 216.095 103.763 216.876 103.294C217.645 102.819 219.076 102.041 220.038 101.547C221.012 101.059 223.39 99.9306 225.342 99.0328C227.294 98.135 229.708 96.9956 230.713 96.4783C231.729 95.9672 233.216 95.1425 234.022 94.6565C234.827 94.1705 236.159 93.294 236.978 92.7241C237.798 92.1542 239.037 91.1372 239.745 90.4624C240.441 89.7814 241.409 88.7579 241.886 88.1739C242.363 87.5898 243.153 86.502 243.64 85.7558C244.127 85.0096 244.743 83.9056 245.022 83.2928C245.289 82.6737 245.686 81.6668 245.906 81.0225C246.126 80.3782 246.4 79.23 246.533 78.4633C246.654 77.6904 246.775 76.6589 246.781 76.1598C246.787 75.6608 246.732 74.7032 246.646 74.0336C246.559 73.364 246.304 72.2393 246.08 71.5424C245.862 70.8636 245.452 69.8856 245.176 69.3738C244.893 68.874 244.401 68.0804 244.064 67.5973C243.721 67.126 243.025 66.3156 242.514 65.7863C242.004 65.2569 241.151 64.4849 240.62 64.0513C239.93 63.4876 239.13 62.9874 237.705 62.2318C236.387 61.5329 235.34 61.069 234.511 60.7967C233.83 60.5881 232.731 60.2793 232.049 60.1307C231.374 59.9703 230.218 59.7684 229.475 59.6786C228.731 59.5887 227.519 59.4938 226.774 59.464C226.029 59.4343 224.73 59.4455 223.869 59.4912C223.008 59.5368 221.41 59.7093 220.318 59.8758C219.226 60.0423 217.408 60.3719 216.271 60.6216C215.141 60.8593 212.25 61.5483 209.843 62.1286C207.442 62.727 204.575 63.3986 203.5 63.6196C202.418 63.8525 200.926 64.1417 200.195 64.2567C199.465 64.3716 198.108 64.5499 197.173 64.6479C196.245 64.7341 194.872 64.8277 194.102 64.8455C193.338 64.8514 192.088 64.8277 191.319 64.7854C190.557 64.7311 189.298 64.5809 188.531 64.4484C187.765 64.3159 186.449 64.014 185.619 63.7718C184.306 63.3797 183.765 63.1383 181.556 61.9671C179.722 60.9793 178.661 60.3406 177.751 59.6755C177.065 59.16 176.01 58.311 175.409 57.7795C174.808 57.248 173.916 56.3487 173.418 55.7956C172.92 55.2425 172.104 54.2006 171.604 53.4791C171.098 52.7694 170.397 51.6522 170.04 50.9761C169.678 50.312 169.163 49.2172 168.89 48.5552C168.624 47.8813 168.135 46.4503 167.812 45.3661C167.495 44.3001 167.103 42.8294 166.946 42.122C166.777 41.4083 166.306 38.9674 165.898 36.6964C165.489 34.4253 165.035 32.069 164.905 31.4525C164.764 30.8297 164.474 29.626 164.249 28.7606C164.035 27.9015 163.572 26.393 163.211 25.4101C162.849 24.4273 162.294 23.0368 161.956 22.3251C161.618 21.6135 160.978 20.4976 160.53 19.8495C160.083 19.2014 159.247 18.1952 158.678 17.6043C158.115 17.0015 157.227 16.1805 156.696 15.7469C155.965 15.1462 155.206 14.6831 153.425 13.7386C151.513 12.7249 150.871 12.445 149.784 12.1425C149.061 11.9268 147.799 11.6683 146.984 11.5407C146.169 11.413 145.102 11.3034 144.609 11.2857C144.11 11.2799 143.195 11.3122 142.587 11.3699C141.984 11.4157 140.892 11.5822 140.191 11.7279C139.49 11.8736 138.255 12.2232 137.443 12.4925C136.642 12.7682 135.367 13.2791 134.613 13.6401C133.859 14.001 132.726 14.5875 132.086 14.9632C131.445 15.3389 130.188 16.1329 129.295 16.7552C128.402 17.3775 126.975 18.4321 126.117 19.1033C125.26 19.7746 123.548 21.1652 122.321 22.1885C121.094 23.2118 119.383 24.6025 118.525 25.2737C117.667 25.9449 116.106 27.1106 115.06 27.8495C114.014 28.5884 112.517 29.5752 111.736 30.0438C110.955 30.5124 109.907 31.0828 109.414 31.3237C108.921 31.5646 107.858 32.0204 107.063 32.3443C106.255 32.6619 104.85 33.1036 103.943 33.3226C103.029 33.5535 101.526 33.8064 100.591 33.9044C99.657 34.0025 98.1223 34.0562 97.1727 34.0397C96.223 34.0231 94.8066 33.9112 94.0213 33.8144C93.2422 33.7056 91.8413 33.4498 90.9023 33.241C89.9632 33.0323 88.3389 32.5666 87.2651 32.2103C86.2032 31.8603 84.4273 31.1926 83.3257 30.7454C81.6938 30.0932 79.7156 29.0899 72.6375 25.3672C67.1926 22.4953 63.3611 20.5398 62.337 20.1185C61.4442 19.7365 60.265 19.2634 59.7047 19.0576C59.1508 18.84 57.9813 18.4633 57.1157 18.2022C56.25 17.941 54.9407 17.6272 54.2162 17.5017C53.4916 17.3763 52.3282 17.2464 51.6315 17.2117C50.9348 17.1771 49.7552 17.2213 49.0019 17.2936C48.2604 17.3721 46.9555 17.6238 46.1322 17.8568C45.3088 18.0898 44.1079 18.5183 43.4934 18.8164C42.8671 19.1083 41.8548 19.6976 41.2311 20.1278C40.6074 20.558 39.6998 21.2943 39.1949 21.7874C38.6781 22.2743 37.8807 23.1755 37.4085 23.8078C36.7195 24.7055 36.3375 25.34 35.6285 26.8206C34.958 28.2 34.6183 29.0699 34.359 30.1042C34.1481 30.875 33.897 32.0658 33.7958 32.7731C33.6827 33.4741 33.5761 34.9089 33.5382 35.9845C33.5004 37.0601 33.5549 38.7935 33.6617 39.8545C33.7566 40.9093 33.9873 42.5686 34.1683 43.5472C34.3611 44.5321 34.9178 46.6382 35.4085 48.2376C35.8929 49.8489 36.6808 52.0929 37.1579 53.2589C37.6413 54.4131 38.5188 56.4306 39.1251 57.7261C39.725 59.0334 41.4155 62.5016 42.8724 65.435C44.3292 68.3685 45.8187 71.441 46.178 72.2555C46.5309 73.0818 47.1634 74.7868 47.5719 76.0534C47.9623 77.3257 48.4431 79.0872 48.6143 79.9693C48.7855 80.8515 48.9871 82.2215 49.0641 83.0232C49.1291 83.8186 49.1798 85.2151 49.17 86.123C49.1483 87.0246 49.0031 88.5607 48.8417 89.5252C48.6921 90.4959 48.3192 92.0026 48.0271 92.8977C47.5732 94.2702 47.3135 94.8173 46.3275 96.562C45.5109 98.016 44.912 98.9159 44.2867 99.6649C43.7978 100.243 42.8292 101.266 42.1215 101.941C41.4138 102.616 39.9544 103.79 38.8658 104.552C37.7772 105.314 36.3719 106.243 35.7315 106.618C35.0911 106.994 33.679 107.706 32.5842 108.221C31.4895 108.737 29.8915 109.426 29.0296 109.761C28.1677 110.095 26.6082 110.683 25.5653 111.043C24.5343 111.41 21.0911 112.567 17.9331 113.616C14.7751 114.666 11.2592 115.845 10.1192 116.245C8.97914 116.645 7.12258 117.335 5.98739 117.783C4.85217 118.231 3.19409 118.919 2.28253 119.318C1.38287 119.724 -0.168369 120.469 -1.14921 120.999C-2.14191 121.523 -3.59883 122.348 -4.38679 122.858C-5.18661 123.363 -6.39761 124.212 -7.09056 124.773C-7.78349 125.334 -8.74222 126.195 -9.21709 126.689C-9.70382 127.176 -10.4152 128.002 -10.8062 128.509C-11.2091 129.011 -11.8787 130.102 -12.3259 130.945C-12.8801 131.99 -13.2498 132.86 -13.5188 133.798C-13.7472 134.544 -13.999 135.765 -14.0772 136.515C-14.1672 137.258 -14.2121 138.376 -14.1902 138.966C-14.1564 139.562 -14.079 140.592 -13.9984 141.244C-13.897 142.028 -13.6747 142.785 -13.3195 143.521C-13.0454 144.123 -12.5094 145.092 -12.1507 145.678C-11.7857 146.252 -11.1686 147.096 -10.7888 147.557C-10.4153 148.028 -9.56415 148.891 -8.91682 149.477C-8.16334 150.151 -7.20654 150.871 -6.29993 151.428C-5.50019 151.928 -4.20583 152.615 -3.35497 152.99C-2.52788 153.352 -1.10343 153.879 -0.172133 154.16C0.740982 154.446 2.35489 154.845 3.41411 155.057C4.47333 155.269 6.30606 155.571 7.48133 155.707C8.6622 155.861 10.648 156.047 11.8967 156.131C13.1391 156.227 17.2487 156.366 21.011 156.444C24.7733 156.521 28.9555 156.639 30.3069 156.701C31.6584 156.763 33.7058 156.89 34.8699 156.99C36.034 157.09 38.1743 157.357 39.6415 157.603C41.1025 157.86 43.0288 158.272 43.9364 158.541C44.8439 158.809 46.5073 159.402 47.6446 159.868C49.157 160.487 50.3277 161.062 52.0481 162.035C53.6498 162.945 54.7988 163.676 55.6843 164.359C56.3925 164.917 57.4889 165.833 58.1006 166.401C58.7123 166.969 59.6514 167.923 60.1786 168.507C60.7057 169.091 61.6042 170.237 62.1801 171.045C62.756 171.852 63.4812 172.952 63.7749 173.488C64.0687 174.025 64.5676 175.035 64.8759 175.716C65.1842 176.397 65.6424 177.598 65.8878 178.398C66.1395 179.186 66.4571 180.48 66.5886 181.265C66.7319 182.057 66.9097 183.414 66.9908 184.294C67.0719 185.174 67.149 186.721 67.1608 187.732C67.1726 188.743 67.1145 190.66 67.0163 191.993C66.93 193.332 66.6784 196.044 66.4805 198.024C66.2644 200.01 66.039 202.386 65.9628 203.304C65.8985 204.229 65.8066 205.55 65.76 206.24C65.7252 206.937 65.7123 208.224 65.7151 209.108C65.7298 209.998 65.8258 211.51 65.9165 212.487C66.0073 213.463 66.2669 214.925 66.4877 215.742C66.7205 216.565 67.0914 217.645 67.3321 218.137C67.5665 218.642 68.0111 219.411 68.3252 219.851C68.6393 220.292 69.2062 220.973 69.5819 221.354C69.9932 221.755 70.737 222.332 71.3712 222.714C72.106 223.164 72.8017 223.488 73.5122 223.697C74.0851 223.879 75.1024 224.084 75.7739 224.166C76.4454 224.248 77.6361 224.24 78.4314 224.175C79.3295 224.088 80.635 223.806 81.8953 223.409C83.5008 222.906 84.3879 222.524 86.3132 221.476C87.6352 220.761 89.6312 219.522 90.7506 218.73C91.8582 217.933 93.7209 216.486 94.8628 215.508C96.0047 214.531 98.4382 212.352 100.264 210.687C102.078 209.016 104.377 206.948 105.389 206.1C106.39 205.246 107.849 204.072 108.633 203.483C109.417 202.894 110.786 201.976 111.665 201.438C112.543 200.9 113.939 200.133 114.772 199.738C115.605 199.343 116.911 198.802 117.669 198.55C118.426 198.297 119.625 197.959 120.326 197.813C121.027 197.667 122.186 197.49 122.897 197.411C123.603 197.344 124.848 197.319 125.665 197.357C126.482 197.394 127.658 197.5 128.268 197.611C128.879 197.722 129.949 197.97 130.636 198.166C131.454 198.402 132.58 198.862 133.887 199.495C135.159 200.108 136.304 200.761 137.049 201.278C137.694 201.726 138.827 202.631 139.556 203.292C140.286 203.953 141.366 205.043 141.921 205.718C142.483 206.381 143.287 207.446 143.711 208.082C144.134 208.717 145.023 210.254 145.697 211.509C146.37 212.764 147.303 214.735 147.786 215.889C148.251 217.049 149.072 219.432 149.619 221.183C150.167 222.934 151.245 226.58 152.028 229.293C152.799 232 153.725 235.017 154.079 236.011C154.441 236.994 155.036 238.512 155.412 239.381C155.788 240.25 156.464 241.613 156.914 242.43C157.363 243.246 158.133 244.491 158.633 245.213C159.139 245.923 159.92 246.946 160.388 247.498C160.862 248.039 161.677 248.882 162.213 249.364C162.742 249.857 163.811 250.683 164.586 251.2C165.669 251.912 166.334 252.264 167.43 252.723C168.222 253.037 169.444 253.457 170.15 253.618C170.85 253.791 171.945 253.991 172.568 254.078C173.198 254.154 174.328 254.174 175.092 254.138C175.845 254.096 177.021 253.944 177.71 253.792C178.381 253.645 179.514 253.287 180.225 252.979C180.936 252.672 181.953 252.13 182.485 251.758C183.036 251.38 183.783 250.803 184.152 250.451C184.522 250.099 185.096 249.475 185.43 249.074C185.765 248.673 186.393 247.774 186.813 247.068C187.258 246.315 187.82 245.197 188.147 244.351C188.473 243.565 188.916 242.126 189.156 241.158C189.396 240.189 189.674 238.632 189.781 237.684C189.888 236.737 189.993 234.875 190.012 233.546C190.02 232.211 189.92 228.901 189.786 226.198C189.641 223.488 189.557 219.973 189.583 218.404C189.608 216.835 189.721 214.901 189.83 214.122C189.95 213.349 190.141 212.187 190.271 211.541C190.4 210.894 190.667 209.818 190.839 209.149C191.03 208.473 191.463 207.197 191.809 206.315C192.161 205.421 192.677 204.249 192.973 203.69C193.269 203.132 193.819 202.237 194.194 201.675C194.58 201.118 195.164 200.332 195.498 199.931C195.833 199.53 196.475 198.836 196.918 198.402C197.373 197.973 198.184 197.277 198.741 196.857C199.298 196.437 200.215 195.828 200.782 195.504C201.349 195.181 202.42 194.653 203.179 194.341C203.938 194.028 205.253 193.614 206.112 193.4C206.976 193.204 208.395 192.967 209.281 192.874C210.167 192.781 211.57 192.718 212.399 192.732C213.229 192.745 214.556 192.825 215.348 192.91C216.139 192.995 217.41 193.181 218.17 193.326C218.93 193.47 220.215 193.771 221.01 193.995C221.822 194.213 223.076 194.603 223.815 194.873C224.56 195.132 226.854 196.028 228.914 196.877C230.98 197.714 233.374 198.679 234.25 199.007C235.12 199.346 236.683 199.87 237.734 200.184C238.784 200.498 240.237 200.857 240.961 200.982C241.686 201.108 243.168 201.239 244.232 201.271C245.307 201.308 246.806 201.236 247.591 201.104C248.369 200.984 249.761 200.626 250.67 200.317C251.592 200.014 252.91 199.45 253.622 199.082C254.323 198.708 255.28 198.166 255.744 197.864C256.209 197.562 257.145 196.857 257.82 196.301C258.495 195.746 259.497 194.832 260.034 194.279C260.558 193.72 261.194 193.038 261.441 192.743C261.683 192.46 262.253 191.728 262.695 191.125C263.136 190.522 263.923 189.296 264.432 188.394C264.941 187.492 265.438 186.553 265.534 186.315C265.63 186.077 265.919 185.332 266.175 184.676Z" fill="#02AF85"/>
</svg>
