<svg width="39" height="39" viewBox="0 0 39 39" fill="none" xmlns="http://www.w3.org/2000/svg">
<path d="M37 9.77581H35.0556C32.9928 9.77581 31.0145 8.95657 29.5558 7.49833C28.0972 6.04008 27.2778 4.06227 27.2778 2H19.5V24.3554C19.5 25.1838 19.2882 25.9985 18.8847 26.722C18.4812 27.4456 17.8994 28.054 17.1945 28.4895C16.4897 28.925 15.6852 29.1732 14.8574 29.2104C14.0296 29.2477 13.2061 29.0727 12.4649 28.7023C11.7238 28.3318 11.0897 27.7781 10.6228 27.0937C10.156 26.4093 9.87183 25.6169 9.79742 24.7919C9.72301 23.9668 9.86078 23.1365 10.1977 22.3796C10.5345 21.6228 11.0593 20.9646 11.7222 20.4675V12.0697C9.41141 12.6176 7.30177 13.8053 5.63509 15.4968C3.96841 17.1882 2.81214 19.3149 2.29879 21.6331C1.78545 23.9512 1.9358 26.3671 2.73263 28.6038C3.52946 30.8405 4.94051 32.8075 6.80406 34.2793C8.66761 35.7511 10.9083 36.6683 13.2692 36.9256C15.6301 37.1829 18.0158 36.77 20.1528 35.7341C22.2898 34.6983 24.0916 33.0815 25.3518 31.069C26.6119 29.0565 27.2794 26.7298 27.2778 24.3554V15.4521C29.641 16.8227 32.3235 17.5468 35.0556 17.5516H37V9.77581Z" stroke="#02AF85" stroke-width="3" stroke-linecap="round" stroke-linejoin="round"/>
</svg>
