<svg width="259" height="217" viewBox="0 0 259 217" fill="none" xmlns="http://www.w3.org/2000/svg">
<path fill-rule="evenodd" clip-rule="evenodd" d="M1.63945 144.315C1.44922 143.582 1.21167 142.41 1.10466 141.727C1.00881 141.041 0.88284 139.842 0.826497 139.076C0.770154 138.309 0.731639 136.936 0.745867 136.022C0.748935 135.111 0.83315 133.708 0.910695 132.909C0.999398 132.107 1.18311 130.821 1.3273 130.053C1.4742 129.296 1.72937 128.159 1.90611 127.525C2.0717 126.894 2.36455 125.959 2.53496 125.445C2.71923 124.939 3.10436 123.947 3.39841 123.261C3.69246 122.575 4.49587 121.068 5.19672 119.916C6.15664 118.324 6.70459 117.564 7.48986 116.711C8.06193 116.099 9.00069 115.197 9.6026 114.708C10.2045 114.219 11.3712 113.38 12.224 112.853C13.0657 112.33 14.4519 111.567 15.3011 111.171C16.1476 110.765 17.3402 110.227 17.9656 109.98C18.5883 109.722 20.752 108.901 22.7787 108.148C24.8081 107.406 27.0667 106.538 27.804 106.217C28.5441 105.907 29.6336 105.382 30.2427 105.069C30.8518 104.755 31.8051 104.204 32.3672 103.843C32.9293 103.482 33.6904 102.918 34.074 102.601C34.4576 102.283 35.0966 101.655 35.5088 101.212C35.921 100.769 36.4883 100.04 36.7697 99.593C37.1777 98.9382 37.3505 98.4825 37.603 97.3337C37.7779 96.5464 37.9263 95.5529 37.9291 95.1267C37.9318 94.7005 37.8236 93.7694 37.6861 93.0581C37.5002 92.0986 37.3093 91.4594 36.9554 90.6353C36.6976 90.0124 36.0921 88.883 35.6236 88.1221C35.1026 87.2914 34.1693 86.0289 33.2738 84.97C32.4585 83.998 30.6581 82.0361 29.2635 80.6257C27.869 79.2153 26.1455 77.4239 25.4263 76.6531C24.7183 75.8796 23.7673 74.7869 23.3199 74.2101C22.8836 73.6306 22.1054 72.5195 21.6063 71.7307C21.1073 70.9418 20.4105 69.7282 20.0641 69.0323C19.7065 68.3391 19.2093 67.2661 18.9627 66.6405C18.7049 66.0176 18.3003 64.8393 18.0661 64.0216C17.8071 63.1507 17.5364 61.9399 17.4164 61.1062C17.2961 60.3198 17.1762 59.0488 17.1533 58.2742C17.1193 57.5023 17.1293 56.3769 17.1749 55.7867C17.2316 55.1937 17.3496 54.1721 17.4651 53.5294C17.5806 52.8866 17.8099 51.8853 17.9752 51.3013C18.1404 50.7174 18.5458 49.6141 18.8766 48.8363C19.2075 48.0585 19.8278 46.8675 20.2416 46.1877C20.6526 45.4967 21.4141 44.4488 21.9165 43.842C22.4189 43.2352 23.1258 42.4487 23.5012 42.0974C23.8767 41.746 24.6161 41.0935 25.1592 40.6541C25.7023 40.2147 26.6395 39.5496 27.2547 39.1636C27.8587 38.7804 28.9347 38.1996 29.6469 37.8728C30.3677 37.5321 31.4623 37.0769 32.0904 36.8414C32.8078 36.5843 34.0605 36.2443 35.4771 35.9472C36.8911 35.6389 38.3129 35.4115 39.3439 35.3263C40.2328 35.2402 41.389 35.1837 41.9097 35.1872C42.4305 35.1906 43.2908 35.2297 43.8197 35.2666C44.3486 35.3035 45.1139 35.3893 45.5174 35.4449C45.9236 35.5116 46.8553 35.6988 47.6062 35.8709C48.3458 36.0457 49.4217 36.3397 49.9998 36.5302C50.5917 36.729 51.5642 37.0837 52.1808 37.3356C52.7947 37.5765 53.9915 38.1248 54.8382 38.5454C55.6822 38.9549 57.3835 39.877 58.6071 40.5843C59.8308 41.2915 62.6492 43.0177 64.8821 44.4253C67.1038 45.8355 69.7642 47.4464 70.7882 48.0131C71.8122 48.5798 73.3169 49.3251 74.1473 49.6787C74.9666 50.0351 76.1224 50.4634 76.7004 50.6538C77.2869 50.8304 78.3019 51.0683 78.9472 51.1951C79.5898 51.3108 80.6334 51.4235 81.2516 51.4387C81.9421 51.4599 82.845 51.3823 83.5699 51.2534C84.2921 51.1132 85.0565 50.9037 85.5061 50.7117C85.925 50.5389 86.6041 50.1729 87.0263 49.9166C87.4457 49.6492 88.1399 49.1021 88.563 48.7038C89.1179 48.167 89.5898 47.5322 90.2542 46.425C90.8284 45.4817 91.3589 44.4071 91.6255 43.6567C91.8749 42.9814 92.2712 41.5493 92.5204 40.484C92.7695 39.4187 93.0835 37.7939 93.2286 36.8839C93.3737 35.974 93.6751 33.7139 93.9013 31.8741C94.1388 30.0315 94.464 27.5292 94.6417 26.3158C94.8194 25.1024 95.2033 22.9877 95.4962 21.6163C95.7891 20.2449 96.2038 18.5483 96.4228 17.8449C96.6306 17.1443 97.0112 15.988 97.2748 15.2737C97.5384 14.5596 98.0475 13.3483 98.4034 12.5762C98.7619 11.8153 99.3934 10.6216 99.8157 9.92791C100.241 9.24542 100.963 8.18323 101.429 7.57344C101.896 6.96364 102.656 6.05768 103.124 5.55376C103.595 5.06101 104.408 4.27241 104.946 3.81072C105.481 3.33788 106.404 2.66424 107 2.29486C107.595 1.92549 108.439 1.46025 108.878 1.2709C109.347 1.06227 110.391 0.737647 111.409 0.501968C112.728 0.193071 113.422 0.083408 114.314 0.0558424C114.96 0.0405948 115.921 0.0552705 116.452 0.103337C116.981 0.140238 118.061 0.303358 118.848 0.478463C119.632 0.642403 120.769 0.945165 121.378 1.16367C121.983 1.37101 123.011 1.80674 123.677 2.11755C124.344 2.42835 125.301 2.96397 125.831 3.29617C126.35 3.63107 127.151 4.20463 127.616 4.56426C128.068 4.91545 129.065 5.80786 129.82 6.53433C130.587 7.25808 131.697 8.41867 132.305 9.12189C132.913 9.8251 133.852 10.9679 134.394 11.6873C134.946 12.4041 136.139 14.0528 137.058 15.3542C137.977 16.6556 139.177 18.3377 139.735 19.0768C140.282 19.8186 141.282 21.0648 141.956 21.8465C142.62 22.6308 143.638 23.7073 144.219 24.2515C144.8 24.7958 145.667 25.5425 146.147 25.9106C146.626 26.2786 147.442 26.8133 147.96 27.1008C148.479 27.3884 149.398 27.8151 150.01 28.0447C150.621 28.2744 151.68 28.5962 152.367 28.7483C153.054 28.9005 154.136 29.0748 154.76 29.1123C155.386 29.161 156.372 29.1814 156.957 29.1574C157.776 29.1237 158.512 28.9921 160.241 28.5716C162.035 28.1238 162.716 27.911 163.752 27.4581C164.456 27.1452 165.612 26.5567 166.331 26.1575C167.049 25.7582 168.223 25.0472 168.956 24.5618C169.689 24.0763 170.978 23.1599 171.829 22.5276C172.677 21.8841 174.651 20.2813 176.216 18.9433C177.784 17.6165 180.534 15.2694 182.332 13.7213C184.133 12.1842 186.311 10.4017 187.162 9.76939C188.012 9.13704 189.338 8.22369 190.096 7.74396C190.854 7.26422 192.254 6.46278 193.21 5.97042C194.166 5.47806 195.52 4.82952 196.227 4.52773C196.934 4.22594 198.257 3.73879 199.155 3.4494C200.16 3.11059 201.449 2.7736 202.489 2.57987C203.423 2.38822 204.828 2.18856 205.625 2.11301C206.422 2.03745 207.626 1.98128 208.313 1.99137C208.999 1.9903 210.051 2.04182 210.641 2.08747C211.234 2.14431 212.452 2.3445 213.351 2.53984C214.249 2.73518 215.467 3.07749 216.075 3.29599C216.686 3.52565 217.636 3.93303 218.186 4.20128C218.736 4.46954 219.571 4.94025 220.034 5.24137C220.497 5.54248 221.185 6.03731 221.553 6.3378C221.933 6.63558 222.6 7.24168 223.062 7.68486C223.513 8.13075 224.274 8.97427 224.763 9.5764C225.241 10.1813 225.953 11.1665 226.33 11.7958C226.719 12.4224 227.264 13.4483 227.563 14.0966C227.975 14.9656 228.265 15.8172 228.706 17.4832C229.084 18.8451 229.368 20.159 229.466 20.9035C229.546 21.5698 229.641 22.7404 229.664 23.515C229.698 24.2869 229.687 25.507 229.641 26.2393C229.605 26.9689 229.503 28.1049 229.418 28.7757C229.344 29.4438 229.093 30.8405 228.881 31.8615C228.659 32.8963 228.316 34.3037 228.097 35.007C227.889 35.7076 227.492 36.8917 227.225 37.6421C226.948 38.3952 226.472 39.5983 226.153 40.3261C225.833 41.0539 225.362 42.0787 225.108 42.5896C224.843 43.1032 224.169 44.3663 223.6 45.3794C223.031 46.3924 221.369 49.326 219.912 51.8905C218.445 54.4576 216.825 57.3219 216.298 58.2655C215.771 59.2092 215.03 60.5833 214.644 61.3273C214.257 62.0714 213.639 63.3682 213.286 64.1988C212.921 65.0322 212.454 66.2687 212.249 66.9332C212.044 67.5976 211.79 68.6406 211.68 69.2583C211.581 69.8733 211.466 70.9061 211.448 71.5606C211.402 72.6356 211.436 72.9228 211.802 74.4295C212.144 75.8357 212.289 76.2378 212.683 76.934C212.948 77.3899 213.488 78.1567 213.892 78.6496C214.295 79.1426 215.048 79.9053 215.574 80.3684C216.086 80.823 217.367 81.7173 218.396 82.3536C219.423 82.9788 221.016 83.8445 221.935 84.2712C222.851 84.6867 225.432 85.7734 227.659 86.6739C229.901 87.5829 232.573 88.7064 233.611 89.1868C234.639 89.6699 236.302 90.4831 237.276 90.9909C238.261 91.4961 240.173 92.6034 241.524 93.4452C242.875 94.2871 244.688 95.5247 245.558 96.1878C246.418 96.8537 247.769 97.9908 248.547 98.7119C249.325 99.4329 250.366 100.457 250.861 100.986C251.356 101.516 252.188 102.508 252.721 103.194C253.243 103.882 254.016 104.971 254.421 105.617C254.826 106.263 255.36 107.197 255.622 107.689C255.872 108.184 256.257 108.989 256.474 109.492C256.69 109.995 257.079 111.011 257.345 111.762C257.621 112.558 257.942 113.78 258.131 114.704C258.306 115.571 258.474 116.748 258.509 117.33C258.544 117.913 258.565 118.971 258.55 119.685C258.534 120.398 258.42 121.678 258.306 122.522C258.181 123.368 257.911 124.639 257.708 125.362C257.514 126.071 257.151 127.152 256.91 127.766C256.667 128.369 256.195 129.394 255.868 130.041C255.541 130.688 254.874 131.784 254.393 132.48C253.912 133.176 253.101 134.213 252.588 134.775C252.077 135.348 251.239 136.178 250.735 136.632C250.231 137.085 249.287 137.823 248.652 138.273C248.014 138.711 246.854 139.431 246.08 139.844C245.306 140.256 244.091 140.847 243.384 141.149C242.678 141.451 241.653 141.854 241.122 142.054C240.592 142.254 239.177 142.704 238 143.061C236.593 143.498 233.851 144.176 230.036 145.056C226.05 145.966 223.534 146.601 222.069 147.04C220.894 147.409 219.365 147.922 218.681 148.171C218 148.431 216.938 148.879 216.324 149.17C215.709 149.461 214.675 150.02 214.029 150.425C213.381 150.819 212.427 151.512 211.917 151.943C211.407 152.374 210.687 153.058 210.334 153.451C209.98 153.844 209.365 154.62 208.986 155.15C208.598 155.693 208.007 156.712 207.657 157.412C207.318 158.108 206.784 159.361 206.486 160.178C206.189 160.995 205.733 162.572 205.47 163.676C205.206 164.78 204.87 166.458 204.71 167.407C204.551 168.356 204.335 169.898 204.22 170.836C204.106 171.774 203.873 173.343 203.699 174.331C203.515 175.322 203.176 176.893 202.919 177.83C202.674 178.765 202.298 180.086 202.082 180.753C201.855 181.423 201.387 182.659 201.023 183.492C200.669 184.323 200.001 185.656 199.553 186.438C199.094 187.224 198.348 188.386 197.887 189.018C197.424 189.639 196.557 190.689 195.968 191.329C195.379 191.969 194.451 192.868 193.916 193.341C193.378 193.802 192.558 194.463 192.085 194.802C191.613 195.142 190.79 195.696 190.256 196.027C189.722 196.358 188.786 196.881 188.174 197.183C187.565 197.497 186.512 197.978 185.836 198.26C184.965 198.614 183.918 198.927 182.312 199.318C180.649 199.722 179.657 199.916 178.695 199.996C177.965 200.055 176.937 200.104 176.419 200.112C175.901 200.12 174.743 200.07 173.849 199.992C172.959 199.925 171.573 199.718 170.783 199.532C169.994 199.346 168.879 199.037 168.312 198.844C167.745 198.651 166.681 198.212 165.951 197.881C165.218 197.54 163.897 196.821 163.012 196.291C162.135 195.748 160.799 194.867 160.067 194.336C159.324 193.807 157.597 192.489 156.228 191.427C154.859 190.365 153.122 189.05 152.379 188.521C151.647 187.99 150.41 187.18 149.647 186.715C148.887 186.261 147.735 185.655 147.077 185.378C146.419 185.1 145.521 184.763 145.063 184.626C144.607 184.501 143.795 184.32 143.255 184.238C142.712 184.146 141.844 184.073 141.323 184.07C140.8 184.055 139.836 184.124 139.172 184.214C138.509 184.305 137.53 184.507 136.983 184.687C136.433 184.856 135.523 185.243 134.944 185.537C134.366 185.832 133.533 186.342 133.088 186.651C132.643 186.96 131.91 187.54 131.453 187.946C130.994 188.342 130.192 189.128 129.668 189.693C129.146 190.269 128.285 191.294 127.743 191.981C127.215 192.677 126.352 193.844 125.844 194.57C125.338 195.308 124.359 196.728 123.659 197.737C122.968 198.733 121.961 200.183 121.441 200.96C120.918 201.725 120.202 202.715 119.851 203.167C119.497 203.607 118.907 204.342 118.529 204.776C118.153 205.223 117.415 206.028 116.894 206.557C116.375 207.097 115.285 208.106 114.484 208.798C113.672 209.491 112.384 210.514 111.609 211.069C110.832 211.612 109.615 212.393 108.9 212.803C108.184 213.213 107.03 213.813 106.329 214.137C105.628 214.461 104.592 214.914 104.03 215.133C103.469 215.352 101.999 215.769 100.772 216.067C99.1984 216.45 98.1472 216.646 97.2082 216.721C96.4781 216.78 95.2608 216.828 94.5145 216.82C93.7655 216.801 92.5991 216.718 91.9285 216.633C91.2551 216.537 90.2036 216.343 89.5752 216.189C88.9495 216.045 87.8905 215.724 87.2181 215.485C86.5457 215.247 85.5735 214.845 85.0515 214.593C84.5269 214.331 83.6832 213.874 83.1727 213.573C82.651 213.274 81.8496 212.748 81.3979 212.397C80.935 212.048 80.2231 211.453 79.7995 211.071C79.3758 210.69 78.6428 209.91 78.1619 209.342C77.6809 208.773 77.0263 207.927 76.698 207.452C76.3696 206.976 75.8076 206.025 75.4389 205.335C75.0701 204.644 74.5648 203.538 74.3127 202.89C74.0495 202.244 73.6558 201.111 73.4432 200.382C73.2114 199.623 72.9271 198.356 72.78 197.411C72.6299 196.502 72.4741 195.181 72.434 194.481C72.3939 193.782 72.3627 192.584 72.3702 191.837C72.3778 191.09 72.4237 190.015 72.4747 189.448C72.5257 188.88 72.6401 187.989 72.7158 187.474C72.7888 186.948 73.0277 185.743 73.2482 184.803C73.4659 183.852 73.8541 182.386 74.1213 181.541C74.3885 180.696 74.9079 179.187 75.2903 178.184C75.6616 177.183 76.5868 174.914 77.3363 173.136C78.0969 171.355 78.8554 169.468 79.0454 168.938C79.2242 168.409 79.5096 167.347 79.6703 166.599C79.8311 165.851 79.9494 164.782 79.9557 164.225C79.9509 163.67 79.856 162.842 79.7393 162.362C79.6118 161.838 79.3872 161.254 79.1722 160.904C78.9738 160.574 78.5592 160.084 78.2324 159.809C77.9055 159.534 77.3341 159.176 76.9786 159.026C76.6092 158.868 75.9588 158.671 75.511 158.579C75.0632 158.487 74.1697 158.409 73.5181 158.402C72.8191 158.394 71.6627 158.498 70.6842 158.653C69.4325 158.851 68.6291 159.047 67.3928 159.454C66.483 159.746 63.6415 160.744 61.0735 161.652C58.5082 162.571 55.2397 163.708 53.8302 164.181C52.4208 164.654 50.2942 165.336 49.1167 165.693C47.9364 166.039 46.0867 166.548 45.0156 166.808C43.9445 167.069 42.2239 167.428 41.195 167.619C40.1634 167.799 38.6831 168.029 37.8915 168.127C37.0973 168.213 35.8489 168.328 35.1161 168.376C34.3833 168.424 33.0297 168.446 32.119 168.442C31.2084 168.439 29.7495 168.368 28.8895 168.282C28.0322 168.207 26.5939 167.977 25.6983 167.793C24.8027 167.609 23.5293 167.28 22.8623 167.064C22.1953 166.848 20.959 166.38 20.1286 166.026C19.2954 165.662 17.8104 164.9 16.831 164.322C15.8516 163.745 14.5176 162.875 13.8663 162.383C13.215 161.892 12.3478 161.192 11.9434 160.841C11.5279 160.493 10.7889 159.786 10.2796 159.295C9.78149 158.802 8.91039 157.843 8.33267 157.168C7.76611 156.49 6.92637 155.418 6.4765 154.783C6.03779 154.145 5.35396 153.082 4.97103 152.43C4.58811 151.778 3.99383 150.646 3.65042 149.914C3.307 149.182 2.85445 148.098 2.63828 147.501C2.42211 146.903 2.18965 146.238 2.11579 146.032C2.04192 145.825 1.81852 145.052 1.63945 144.315Z" fill="#02AF85"/>
</svg>
