<svg width="52" height="38" viewBox="0 0 52 38" fill="none" xmlns="http://www.w3.org/2000/svg">
<path fill-rule="evenodd" clip-rule="evenodd" d="M39.6032 35.6067C45.1338 35.8081 49.784 31.496 50 25.9659V11.6476C49.784 6.11766 45.1338 1.80544 39.6032 2.00677H12.3968C6.86631 1.80544 2.21595 6.11766 2 11.6476V25.9659C2.21595 31.496 6.86631 35.8081 12.3968 35.6067H39.6032Z" stroke="#02AF85" stroke-width="3" stroke-linecap="round" stroke-linejoin="round"/>
<path fill-rule="evenodd" clip-rule="evenodd" d="M24.8192 12.0268L32.4056 17.1819C32.8971 17.469 33.1993 17.9953 33.1993 18.5643C33.1993 19.1336 32.8971 19.6599 32.4056 19.9467L24.8192 25.5867C23.3792 26.5635 21.2 25.7307 21.2 24.2043V13.4044C21.2 11.8852 23.3816 11.05 24.8192 12.0268Z" stroke="#02AF85" stroke-width="3" stroke-linecap="round" stroke-linejoin="round"/>
</svg>
